<svg xmlns="http://www.w3.org/2000/svg" xmlns:xlink="http://www.w3.org/1999/xlink" xmlns:lucid="lucid" width="598" height="432"><g transform="translate(0 0)" lucid:page-tab-id="bubh5fmqjfe8"><path d="M312.18 112.18h-64.36V47.82h64.36zm-61.02-3.34h57.68V51.16h-57.68z" stroke="#fff" stroke-opacity="0" fill="#d86613"/><path d="M257.02 40h3.33v9.48h-3.33V40zM267.47 40h3.33v9.48h-3.33V40zM277.93 40h3.34v9.48h-3.34V40zM288.4 40h3.33v9.48h-3.33V40zM298.87 40h3.33v9.48h-3.33V40zM257.02 110.52h3.33V120h-3.33v-9.48zM267.47 110.52h3.33V120h-3.33v-9.48zM277.93 110.52h3.34V120h-3.34v-9.48zM288.4 110.52h3.33V120h-3.33v-9.48zM298.87 110.52h3.33V120h-3.33v-9.48zM310.52 57.42H320v3.33h-9.48v-3.33zM310.52 67.87H320v3.33h-9.48v-3.33zM310.52 78.33H320v3.34h-9.48v-3.34zM310.52 88.8H320v3.33h-9.48V88.8zM310.52 99.25H320v3.33h-9.48v-3.33zM240 57.42h9.48v3.33H240v-3.33zM240 67.87h9.48v3.33H240v-3.33zM240 78.33h9.48v3.34H240v-3.34zM240 88.8h9.48v3.33H240V88.8zM240 99.25h9.48v3.33H240v-3.33z" stroke="#fff" stroke-opacity="0" fill="#d86613"/><use xlink:href="#a" transform="matrix(1,0,0,1,210,129) translate(3.2098765432098872 17.77777777777778)"/><use xlink:href="#b" transform="matrix(1,0,0,1,210,129) translate(83.76543209876543 17.77777777777778)"/><path d="M524.97 120h-43.24c-.98 0-1.73-.8-1.73-1.68V41.68c0-.88.75-1.68 1.73-1.68h43.24c.98 0 1.73.8 1.73 1.68v76.64c0 .88-.75 1.68-1.73 1.68zm-41.56-3.44h39.9V43.44h-39.9z" stroke="#fff" stroke-opacity="0" fill="#1071e5"/><path d="M488.12 47.98h30.44v3.4h-30.44V48zM488.12 55.97h30.44v3.4h-30.44v-3.4zM488.12 63.93h30.44v3.4h-30.44v-3.4zM488.12 71.9h30.44v3.42h-30.44v-3.4z" stroke="#fff" stroke-opacity="0" fill="#1071e5"/><use xlink:href="#c" transform="matrix(1,0,0,1,450,129) translate(4.148148148148145 17.77777777777778)"/><use xlink:href="#d" transform="matrix(1,0,0,1,450,129) translate(90.50617283950618 17.77777777777778)"/><path d="M84.97 240H41.73c-.98 0-1.73-.8-1.73-1.68v-76.64c0-.88.75-1.68 1.73-1.68h43.24c.98 0 1.73.8 1.73 1.68v76.64c0 .88-.75 1.68-1.73 1.68zm-41.56-3.44h39.9v-73.12H43.4z" stroke="#fff" stroke-opacity="0" fill="#232f3e"/><path d="M48.12 167.98h30.44v3.4H48.12V168zM48.12 175.97h30.44v3.4H48.12v-3.4zM48.12 183.93h30.44v3.4H48.12v-3.4zM48.12 191.9h30.44v3.42H48.12v-3.4z" stroke="#fff" stroke-opacity="0" fill="#232f3e"/><use xlink:href="#e" transform="matrix(1,0,0,1,10.000000000000021,249) translate(-0.17283950617284205 17.77777777777778)"/><path d="M312.18 232.18h-64.36v-64.36h64.36zm-61.02-3.34h57.68v-57.68h-57.68z" stroke="#fff" stroke-opacity="0" fill="#d86613"/><path d="M257.02 160h3.33v9.48h-3.33V160zM267.47 160h3.33v9.48h-3.33V160zM277.93 160h3.34v9.48h-3.34V160zM288.4 160h3.33v9.48h-3.33V160zM298.87 160h3.33v9.48h-3.33V160zM257.02 230.52h3.33V240h-3.33v-9.48zM267.47 230.52h3.33V240h-3.33v-9.48zM277.93 230.52h3.34V240h-3.34v-9.48zM288.4 230.52h3.33V240h-3.33v-9.48zM298.87 230.52h3.33V240h-3.33v-9.48zM310.52 177.42H320v3.33h-9.48v-3.33zM310.52 187.87H320v3.33h-9.48v-3.33zM310.52 198.33H320v3.34h-9.48v-3.34zM310.52 208.8H320v3.33h-9.48v-3.33zM310.52 219.25H320v3.33h-9.48v-3.33zM240 177.42h9.48v3.33H240v-3.33zM240 187.87h9.48v3.33H240v-3.33zM240 198.33h9.48v3.34H240v-3.34zM240 208.8h9.48v3.33H240v-3.33zM240 219.25h9.48v3.33H240v-3.33z" stroke="#fff" stroke-opacity="0" fill="#d86613"/><use xlink:href="#a" transform="matrix(1,0,0,1,210,249) translate(3.2098765432098872 17.77777777777778)"/><use xlink:href="#b" transform="matrix(1,0,0,1,210,249) translate(83.76543209876543 17.77777777777778)"/><path d="M312.18 352.18h-64.36v-64.36h64.36zm-61.02-3.34h57.68v-57.68h-57.68z" stroke="#fff" stroke-opacity="0" fill="#d86613"/><path d="M257.02 280h3.33v9.48h-3.33V280zM267.47 280h3.33v9.48h-3.33V280zM277.93 280h3.34v9.48h-3.34V280zM288.4 280h3.33v9.48h-3.33V280zM298.87 280h3.33v9.48h-3.33V280zM257.02 350.52h3.33V360h-3.33v-9.48zM267.47 350.52h3.33V360h-3.33v-9.48zM277.93 350.52h3.34V360h-3.34v-9.48zM288.4 350.52h3.33V360h-3.33v-9.48zM298.87 350.52h3.33V360h-3.33v-9.48zM310.52 297.42H320v3.33h-9.48v-3.33zM310.52 307.87H320v3.33h-9.48v-3.33zM310.52 318.33H320v3.34h-9.48v-3.34zM310.52 328.8H320v3.33h-9.48v-3.33zM310.52 339.25H320v3.33h-9.48v-3.33zM240 297.42h9.48v3.33H240v-3.33zM240 307.87h9.48v3.33H240v-3.33zM240 318.33h9.48v3.34H240v-3.34zM240 328.8h9.48v3.33H240v-3.33zM240 339.25h9.48v3.33H240v-3.33z" stroke="#fff" stroke-opacity="0" fill="#d86613"/><use xlink:href="#a" transform="matrix(1,0,0,1,210,369) translate(3.2098765432098872 17.77777777777778)"/><use xlink:href="#b" transform="matrix(1,0,0,1,210,369) translate(83.76543209876543 17.77777777777778)"/><path d="M479 80H321" stroke="#3a414a" stroke-width="2" fill="none"/><path d="M480 81h-1.03v-2H480zM321.03 81H320v-2h1.03z" stroke="#3a414a" stroke-width=".05" fill="#3a414a"/><path d="M321 200h73a6 6 0 0 0 6-6V86a6 6 0 0 1 6-6h73" stroke="#3a414a" stroke-width="2" fill="none"/><path d="M321.03 201H320v-2h1.03zM480 81h-1.03v-2H480z" stroke="#3a414a" stroke-width=".05" fill="#3a414a"/><path d="M321 320h158" stroke="#3a414a" stroke-width="2" fill="none"/><path d="M321.03 321H320v-2h1.03zM480 321h-1.03v-2H480z" stroke="#3a414a" stroke-width=".05" fill="#3a414a"/><path d="M524.97 360h-43.24c-.98 0-1.73-.8-1.73-1.68v-76.64c0-.88.75-1.68 1.73-1.68h43.24c.98 0 1.73.8 1.73 1.68v76.64c0 .88-.75 1.68-1.73 1.68zm-41.56-3.44h39.9v-73.12h-39.9z" stroke="#fff" stroke-opacity="0" fill="#008a0e"/><path d="M488.12 287.98h30.44v3.4h-30.44V288zM488.12 295.97h30.44v3.4h-30.44v-3.4zM488.12 303.93h30.44v3.4h-30.44v-3.4zM488.12 311.9h30.44v3.42h-30.44v-3.4z" stroke="#fff" stroke-opacity="0" fill="#008a0e"/><use xlink:href="#c" transform="matrix(1,0,0,1,450,369) translate(4.148148148148145 17.77777777777778)"/><use xlink:href="#f" transform="matrix(1,0,0,1,450,369) translate(90.50617283950618 17.77777777777778)"/><path d="M239 80h-69.65a6 6 0 0 0-6 6v108a6 6 0 0 1-6 6H87.7" stroke="#3a414a" stroke-width="2" fill="none"/><path d="M240 81h-1.03v-2H240zM87.73 201H86.7v-2h1.03z" stroke="#3a414a" stroke-width=".05" fill="#3a414a"/><path d="M239 200H87.7" stroke="#3a414a" stroke-width="2" fill="none"/><path d="M240 201h-1.03v-2H240zM87.73 201H86.7v-2h1.03z" stroke="#3a414a" stroke-width=".05" fill="#3a414a"/><path d="M239 320h-69.65a6 6 0 0 1-6-6V206a6 6 0 0 0-6-6H87.7" stroke="#3a414a" stroke-width="2" fill="none"/><path d="M240 321h-1.03v-2H240zM87.73 201H86.7v-2h1.03z" stroke="#3a414a" stroke-width=".05" fill="#3a414a"/><defs><path fill="#3a414a" d="M266 0h-40l-56-210L115 0H75L2-248h35L96-30l15-64 43-154h32l59 218 59-218h35" id="g"/><path fill="#3a414a" d="M141-36C126-15 110 5 73 4 37 3 15-17 15-53c-1-64 63-63 125-63 3-35-9-54-41-54-24 1-41 7-42 31l-33-3c5-37 33-52 76-52 45 0 72 20 72 64v82c-1 20 7 32 28 27v20c-31 9-61-2-59-35zM48-53c0 20 12 33 32 33 41-3 63-29 60-74-43 2-92-5-92 41" id="h"/><path fill="#3a414a" d="M177-190C167-65 218 103 67 71c-23-6-38-20-44-43l32-5c15 47 100 32 89-28v-30C133-14 115 1 83 1 29 1 15-40 15-95c0-56 16-97 71-98 29-1 48 16 59 35 1-10 0-23 2-32h30zM94-22c36 0 50-32 50-73 0-42-14-75-50-75-39 0-46 34-46 75s6 73 46 73" id="i"/><path fill="#3a414a" d="M24 0v-261h32V0H24" id="j"/><path fill="#3a414a" d="M100-194c63 0 86 42 84 106H49c0 40 14 67 53 68 26 1 43-12 49-29l28 8c-11 28-37 45-77 45C44 4 14-33 15-96c1-61 26-98 85-98zm52 81c6-60-76-77-97-28-3 7-6 17-6 28h103" id="k"/><g id="a"><use transform="matrix(0.06172839506172839,0,0,0.06172839506172839,0,0)" xlink:href="#g"/><use transform="matrix(0.06172839506172839,0,0,0.06172839506172839,20.123456790123456,0)" xlink:href="#h"/><use transform="matrix(0.06172839506172839,0,0,0.06172839506172839,32.46913580246913,0)" xlink:href="#i"/><use transform="matrix(0.06172839506172839,0,0,0.06172839506172839,44.81481481481481,0)" xlink:href="#i"/><use transform="matrix(0.06172839506172839,0,0,0.06172839506172839,57.16049382716049,0)" xlink:href="#j"/><use transform="matrix(0.06172839506172839,0,0,0.06172839506172839,62.03703703703703,0)" xlink:href="#k"/></g><path fill="#3a414a" d="M190 0L58-211 59 0H30v-248h39L202-35l-2-213h31V0h-41" id="l"/><path fill="#3a414a" d="M100-194c62-1 85 37 85 99 1 63-27 99-86 99S16-35 15-95c0-66 28-99 85-99zM99-20c44 1 53-31 53-75 0-43-8-75-51-75s-53 32-53 75 10 74 51 75" id="m"/><path fill="#3a414a" d="M85-194c31 0 48 13 60 33l-1-100h32l1 261h-30c-2-10 0-23-3-31C134-8 116 4 85 4 32 4 16-35 15-94c0-66 23-100 70-100zm9 24c-40 0-46 34-46 75 0 40 6 74 45 74 42 0 51-32 51-76 0-42-9-74-50-73" id="n"/><g id="b"><use transform="matrix(0.06172839506172839,0,0,0.06172839506172839,0,0)" xlink:href="#l"/><use transform="matrix(0.06172839506172839,0,0,0.06172839506172839,15.987654320987653,0)" xlink:href="#m"/><use transform="matrix(0.06172839506172839,0,0,0.06172839506172839,28.333333333333332,0)" xlink:href="#n"/><use transform="matrix(0.06172839506172839,0,0,0.06172839506172839,40.67901234567901,0)" xlink:href="#k"/></g><path fill="#3a414a" d="M160-131c35 5 61 23 61 61C221 17 115-2 30 0v-248c76 3 177-17 177 60 0 33-19 50-47 57zm-97-11c50-1 110 9 110-42 0-47-63-36-110-37v79zm0 115c55-2 124 14 124-45 0-56-70-42-124-44v89" id="o"/><path fill="#3a414a" d="M106-169C34-169 62-67 57 0H25v-261h32l-1 103c12-21 28-36 61-36 89 0 53 116 60 194h-32v-121c2-32-8-49-39-48" id="p"/><path fill="#3a414a" d="M24-231v-30h32v30H24zM24 0v-190h32V0H24" id="q"/><path fill="#3a414a" d="M108 0H70L1-190h34L89-25l56-165h34" id="r"/><g id="c"><use transform="matrix(0.06172839506172839,0,0,0.06172839506172839,0,0)" xlink:href="#o"/><use transform="matrix(0.06172839506172839,0,0,0.06172839506172839,14.814814814814813,0)" xlink:href="#k"/><use transform="matrix(0.06172839506172839,0,0,0.06172839506172839,27.160493827160494,0)" xlink:href="#k"/><use transform="matrix(0.06172839506172839,0,0,0.06172839506172839,39.50617283950617,0)" xlink:href="#p"/><use transform="matrix(0.06172839506172839,0,0,0.06172839506172839,51.85185185185185,0)" xlink:href="#q"/><use transform="matrix(0.06172839506172839,0,0,0.06172839506172839,56.72839506172839,0)" xlink:href="#r"/><use transform="matrix(0.06172839506172839,0,0,0.06172839506172839,67.8395061728395,0)" xlink:href="#k"/></g><path fill="#3a414a" d="M27 0v-27h64v-190l-56 39v-29l58-41h29v221h61V0H27" id="s"/><use transform="matrix(0.06172839506172839,0,0,0.06172839506172839,0,0)" xlink:href="#s" id="d"/><path fill="#3a414a" d="M143 0L79-87 56-68V0H24v-261h32v163l83-92h37l-77 82L181 0h-38" id="t"/><path fill="#3a414a" d="M115-194c55 1 70 41 70 98S169 2 115 4C84 4 66-9 55-30l1 105H24l-1-265h31l2 30c10-21 28-34 59-34zm-8 174c40 0 45-34 45-75s-6-73-45-74c-42 0-51 32-51 76 0 43 10 73 51 73" id="u"/><path fill="#3a414a" d="M114-163C36-179 61-72 57 0H25l-1-190h30c1 12-1 29 2 39 6-27 23-49 58-41v29" id="v"/><g id="e"><use transform="matrix(0.06172839506172839,0,0,0.06172839506172839,0,0)" xlink:href="#o"/><use transform="matrix(0.06172839506172839,0,0,0.06172839506172839,14.814814814814813,0)" xlink:href="#k"/><use transform="matrix(0.06172839506172839,0,0,0.06172839506172839,27.160493827160494,0)" xlink:href="#k"/><use transform="matrix(0.06172839506172839,0,0,0.06172839506172839,39.50617283950617,0)" xlink:href="#t"/><use transform="matrix(0.06172839506172839,0,0,0.06172839506172839,50.61728395061728,0)" xlink:href="#k"/><use transform="matrix(0.06172839506172839,0,0,0.06172839506172839,62.962962962962955,0)" xlink:href="#k"/><use transform="matrix(0.06172839506172839,0,0,0.06172839506172839,75.30864197530863,0)" xlink:href="#u"/><use transform="matrix(0.06172839506172839,0,0,0.06172839506172839,87.65432098765432,0)" xlink:href="#k"/><use transform="matrix(0.06172839506172839,0,0,0.06172839506172839,100,0)" xlink:href="#v"/></g><path fill="#3a414a" d="M101-251c82-7 93 87 43 132L82-64C71-53 59-42 53-27h129V0H18c2-99 128-94 128-182 0-28-16-43-45-43s-46 15-49 41l-32-3c6-41 34-60 81-64" id="w"/><use transform="matrix(0.06172839506172839,0,0,0.06172839506172839,0,0)" xlink:href="#w" id="f"/></defs></g></svg>