<svg xmlns="http://www.w3.org/2000/svg" xmlns:xlink="http://www.w3.org/1999/xlink" xmlns:lucid="lucid" width="521" height="462"><g transform="translate(0 0)" lucid:page-tab-id="ppmfqz-5yE4O"><path d="M40 46a6 6 0 0 1 6-6h428a6 6 0 0 1 6 6v368a6 6 0 0 1-6 6H46a6 6 0 0 1-6-6z" stroke="#1071e5" stroke-width="2" fill="#fff" fill-opacity="0"/><path d="M40 40h56v56H40V40z" stroke="#fff" stroke-opacity="0" fill="#1071e5"/><path d="M80.88 81.22h-25c-4.13.05-7.57-3.1-7.9-7.2v-.64c-.15-3.4 1.97-6.38 5.25-7.36v-.66c.12-4.22 2.44-7.75 6.24-9.57 4.12-1.86 8.73-.96 11.8 2.3 1.1 1.1 1.85 2.2 2.45 3.6 1.2-1 2.72-1.32 4.24-.9 2.24.8 3.68 2.74 3.76 5.1 3.68.65 6.32 3.8 6.28 7.56 0 7.07-7.04 7.73-7.12 7.76zm-26.7-13.88c-2.83.6-4.75 3.14-4.6 6.04v.53c.3 3.33 3.1 5.84 6.4 5.76h24.98c3.04-.3 5.4-2.64 5.68-5.7.28-3.43-2.24-6.5-5.68-6.78-.44-.05-.72-.44-.64-.87.08-1.83-1-3.44-2.72-4.13-1.32-.37-2.64.13-3.44 1.24-.2.25-.44.38-.76.33-.28-.05-.48-.24-.6-.5-.6-1.6-1.4-2.85-2.6-4.04-2.68-2.8-6.6-3.6-10.13-2-3.24 1.6-5.2 4.63-5.32 8.24-.04.4-.04.74 0 1.14.04.4-.2.76-.6.84z" stroke="#fff" stroke-opacity="0" fill="#fff"/><use xlink:href="#a" transform="matrix(1,0,0,1,111,60) translate(0 17.955555555555552)"/><path d="M218.08 300h-116c-12 .16-21.92-9.6-22.08-21.76V162.08c-.16-12 9.6-21.92 21.76-22.08H218.24c12.16.16 21.92 10.08 21.76 22.08v116.16c-.16 12-9.92 21.76-21.92 21.76zm-116-153.12h-.16c-8.48 0-15.2 6.88-15.04 15.2v116.16c0 8.32 6.88 15.04 15.2 14.88h116.16c8.32 0 15.04-6.72 15.2-15.04v-116-.16c-.16-8.48-7.04-15.2-15.36-15.04z" stroke="#fff" stroke-opacity="0" fill="#1071e5"/><path d="M153.6 194.67h-51.05c-1.9 0-3.42-1.5-3.42-3.4v-31.9c0-1.9 1.5-3.4 3.42-3.4h51.04c1.9 0 3.4 1.5 3.4 3.4v31.9c0 1.9-1.5 3.4-3.4 3.4zm-47.64-6.8h44.22v-25.1h-44.22z" stroke="#fff" stroke-opacity="0" fill="#1071e5"/><path d="M111.93 168.94h6.8v12.76h-6.8v-12.76zM124.7 168.94h6.8v12.76h-6.8v-12.76zM137.46 168.94h6.8v12.76h-6.8v-12.76zM153.6 239.37h-51.05c-1.9 0-3.42-1.5-3.42-3.4v-31.93c0-1.9 1.5-3.4 3.42-3.4h51.04c1.9 0 3.4 1.5 3.4 3.4v31.92c0 1.9-1.5 3.4-3.4 3.4zm-47.64-6.82h44.22v-25.1h-44.22z" stroke="#fff" stroke-opacity="0" fill="#1071e5"/><path d="M111.93 213.63h6.8v12.77h-6.8v-12.77zM124.7 213.63h6.8v12.77h-6.8v-12.77zM137.46 213.63h6.8v12.77h-6.8v-12.77zM153.6 284.03h-51.05c-1.9 0-3.42-1.5-3.42-3.4v-31.9c0-1.9 1.5-3.4 3.42-3.4h51.04c1.9 0 3.4 1.5 3.4 3.4v31.9c0 1.9-1.5 3.4-3.4 3.4zm-47.64-6.8h44.22v-25.1h-44.22z" stroke="#fff" stroke-opacity="0" fill="#1071e5"/><path d="M111.93 258.3h6.8v12.76h-6.8V258.3zM124.7 258.3h6.8v12.76h-6.8V258.3zM137.46 258.3h6.8v12.76h-6.8V258.3zM217.45 194.67H166.4c-1.9 0-3.4-1.5-3.4-3.4v-31.9c0-1.9 1.5-3.4 3.4-3.4h51.05c1.9 0 3.42 1.5 3.42 3.4v31.9c0 1.9-1.5 3.4-3.42 3.4zm-47.63-6.8h44.22v-25.1h-44.22z" stroke="#fff" stroke-opacity="0" fill="#1071e5"/><path d="M175.76 168.94h6.8v12.76h-6.8v-12.76zM188.53 168.94h6.8v12.76h-6.8v-12.76zM201.3 168.94h6.8v12.76h-6.8v-12.76zM217.45 239.37H166.4c-1.9 0-3.4-1.5-3.4-3.4v-31.93c0-1.9 1.5-3.4 3.4-3.4h51.05c1.9 0 3.42 1.5 3.42 3.4v31.92c0 1.9-1.5 3.4-3.42 3.4zm-47.63-6.82h44.22v-25.1h-44.22z" stroke="#fff" stroke-opacity="0" fill="#1071e5"/><path d="M175.76 213.63h6.8v12.77h-6.8v-12.77zM188.53 213.63h6.8v12.77h-6.8v-12.77zM201.3 213.63h6.8v12.77h-6.8v-12.77zM217.45 284.03H166.4c-1.9 0-3.4-1.5-3.4-3.4v-31.9c0-1.9 1.5-3.4 3.4-3.4h51.05c1.9 0 3.42 1.5 3.42 3.4v31.9c0 1.9-1.5 3.4-3.42 3.4zm-47.63-6.8h44.22v-25.1h-44.22z" stroke="#fff" stroke-opacity="0" fill="#1071e5"/><path d="M175.76 258.3h6.8v12.76h-6.8V258.3zM188.53 258.3h6.8v12.76h-6.8V258.3zM201.3 258.3h6.8v12.76h-6.8V258.3z" stroke="#fff" stroke-opacity="0" fill="#1071e5"/><use xlink:href="#b" transform="matrix(1,0,0,1,50,309) translate(64.32098765432099 17.77777777777778)"/><use xlink:href="#c" transform="matrix(1,0,0,1,50,309) translate(5.524691358024697 44.44444444444444)"/><use xlink:href="#d" transform="matrix(1,0,0,1,50,309) translate(65.40123456790124 44.44444444444444)"/><use xlink:href="#e" transform="matrix(1,0,0,1,50,309) translate(99.9074074074074 44.44444444444444)"/><path d="M358.5 298.7c-29.24 0-60.17-8.1-60.17-23V163.07c0-14.9 30.93-23 60.18-23 29.14 0 60.2 8.1 60.2 23V275.7c0 14.9-31.06 23-60.2 23zm0-151.8c-33.1 0-53.43 9.35-53.43 16.17V275.7c0 6.66 20.22 16.18 53.44 16.18 33.23 0 53.45-9.36 53.45-16.18V163.07c0-6.82-20.34-16.18-53.44-16.18z" stroke="#fff" stroke-opacity="0" fill="#1071e5"/><path d="M358.5 182.76c-29.24 0-60.17-8.06-60.17-23.05h6.74c0 6.77 20.22 16.3 53.44 16.3 33.23 0 53.45-9.47 53.45-16.3h6.74c0 15-31.06 23.06-60.2 23.06z" stroke="#fff" stroke-opacity="0" fill="#1071e5"/><use xlink:href="#f" transform="matrix(1,0,0,1,268.32899444916734,307.69682608246137) translate(49.23456790123457 17.77777777777778)"/><use xlink:href="#g" transform="matrix(1,0,0,1,268.32899444916734,307.69682608246137) translate(37.598765432098766 44.44444444444444)"/><use xlink:href="#h" transform="matrix(1,0,0,1,268.32899444916734,307.69682608246137) translate(89.26543209876544 44.44444444444444)"/><path d="M344.02 191.15v39.5H315.4v-39.5h28.62m2.06-2.1h-32.75v43.7h32.75v-43.7z" stroke="#fff" stroke-opacity="0" stroke-width="3" fill="#1071e5"/><path d="M338.68 196.07h2.6v2.1h-2.6v-2.1zM318.12 196.07h18.7v2.1h-18.7v-2.1zM328.54 202.98h12.75v2.08h-12.76v-2.08zM322.62 202.98h4.33v2.08h-4.33v-2.08zM318.12 202.98h2.34v2.08h-2.34v-2.08zM327.48 209.87h13.8v2.08h-13.8v-2.08zM318.12 209.87h7.5v2.08h-7.5v-2.08zM318.12 216.76h23.16v2.08h-23.16v-2.08zM337.22 223.66h4.07v2.08h-4.08v-2.08zM318.12 223.66h16.8v2.08h-16.8v-2.08z" stroke="#fff" stroke-opacity="0" stroke-width="3" fill="#1071e5"/><path d="M353.33 239.05h-34.8v-4.18h2.08v2.1h30.64v-41.73h-3.1v-2.07h5.2v45.88z" stroke="#fff" stroke-opacity="0" stroke-width="3" fill="#1071e5"/><path d="M383.5 276.72l-14.1-14.12-7.77 7.77-1.35-1.36 8.43-8.43c.4-.38 1-.38 1.38 0l14.77 14.8z" stroke="#fff" stroke-opacity="0" fill="#1071e5"/><path d="M398.64 268.73l-10.92-10.92-10.67 10.72-1.36-1.35 11.37-11.4c.36-.37.97-.37 1.33 0l11.6 11.6zM376.46 258.98c-2.48 0-4.5-2-4.5-4.48 0-2.48 2-4.5 4.48-4.5 2.48 0 4.5 2 4.5 4.48v.02c0 2.47-2.02 4.47-4.48 4.48zm0-7.05c-1.43 0-2.58 1.15-2.58 2.57s1.15 2.57 2.57 2.57 2.56-1.15 2.56-2.57-1.13-2.57-2.54-2.57z" stroke="#fff" stroke-opacity="0" fill="#1071e5"/><path d="M399 280h-38.04c-.52 0-.96-.44-.96-.96v-38.08c0-.52.44-.96.96-.96H399c.5 0 .95.44.95.96v38.08c0 .52-.44.96-.96.96zm-37.08-1.92h36.1v-36.16h-36.1z" stroke="#fff" stroke-opacity="0" fill="#1071e5"/><path d="M241.5 220h55.33" stroke="#1071e5" stroke-width="3" stroke-linejoin="round" fill="none"/><path d="M241.54 221.5H240v-3h1.54zM298.33 221.5h-1.54v-3h1.53z" stroke="#1071e5" stroke-width=".05" fill="#1071e5"/><path d="M380.7 230.36c-11.45 0-20.7-9.2-20.7-20.6 0-11.46 9.2-20.7 20.6-20.7 11.46 0 20.7 9.2 20.7 20.6v.1c-.03 11.35-9.24 20.56-20.6 20.6zm0-39.53c-10.45-.05-18.92 8.42-18.92 18.83-.04 10.46 8.42 18.92 18.83 18.92 10.47.05 18.94-8.42 18.94-18.83.04-10.46-8.43-18.92-18.84-18.92z" stroke="#fff" stroke-opacity="0" fill="#1071e5"/><path d="M376.34 223.5l-1.27-1.2 11.77-12.57-11.77-12.62 1.27-1.18 12.38 13.18c.32.36.32.85 0 1.2z" stroke="#fff" stroke-opacity="0" fill="#1071e5"/><defs><path fill="#232f3e" d="M182-130c37 4 62 22 62 59C244 23 116-4 24 0v-248c84 5 203-23 205 63 0 31-19 50-47 55zM76-148c40-3 101 13 101-30 0-44-60-28-101-31v61zm0 110c48-3 116 14 116-37 0-48-69-32-116-35v72" id="i"/><path fill="#232f3e" d="M185-48c-13 30-37 53-82 52C43 2 14-33 14-96s30-98 90-98c62 0 83 45 84 108H66c0 31 8 55 39 56 18 0 30-7 34-22zm-45-69c5-46-57-63-70-21-2 6-4 13-4 21h74" id="j"/><path fill="#232f3e" d="M114-157C55-157 80-60 75 0H25v-261h50l-1 109c12-26 28-41 61-42 86-1 58 113 63 194h-50c-7-57 23-157-34-157" id="k"/><path fill="#232f3e" d="M25-224v-37h50v37H25zM25 0v-190h50V0H25" id="l"/><path fill="#232f3e" d="M128 0H69L1-190h53L99-40l48-150h52" id="m"/><g id="a"><use transform="matrix(0.06234567901234567,0,0,0.06234567901234567,0,0)" xlink:href="#i"/><use transform="matrix(0.06234567901234567,0,0,0.06234567901234567,16.147530864197527,0)" xlink:href="#j"/><use transform="matrix(0.06234567901234567,0,0,0.06234567901234567,28.61666666666666,0)" xlink:href="#j"/><use transform="matrix(0.06234567901234567,0,0,0.06234567901234567,41.08580246913579,0)" xlink:href="#k"/><use transform="matrix(0.06234567901234567,0,0,0.06234567901234567,54.7395061728395,0)" xlink:href="#l"/><use transform="matrix(0.06234567901234567,0,0,0.06234567901234567,60.97407407407407,0)" xlink:href="#m"/><use transform="matrix(0.06234567901234567,0,0,0.06234567901234567,73.4432098765432,0)" xlink:href="#j"/></g><path fill="#3a414a" d="M169-182c-1-43-94-46-97-3 18 66 151 10 154 114 3 95-165 93-204 36-6-8-10-19-12-30l50-8c3 46 112 56 116 5-17-69-150-10-154-114-4-87 153-88 188-35 5 8 8 18 10 28" id="n"/><path fill="#3a414a" d="M185-48c-13 30-37 53-82 52C43 2 14-33 14-96s30-98 90-98c62 0 83 45 84 108H66c0 31 8 55 39 56 18 0 30-7 34-22zm-45-69c5-46-57-63-70-21-2 6-4 13-4 21h74" id="o"/><path fill="#3a414a" d="M135-150c-39-12-60 13-60 57V0H25l-1-190h47c2 13-1 29 3 40 6-28 27-53 61-41v41" id="p"/><path fill="#3a414a" d="M128 0H69L1-190h53L99-40l48-150h52" id="q"/><path fill="#3a414a" d="M25-224v-37h50v37H25zM25 0v-190h50V0H25" id="r"/><path fill="#3a414a" d="M190-63c-7 42-38 67-86 67-59 0-84-38-90-98-12-110 154-137 174-36l-49 2c-2-19-15-32-35-32-30 0-35 28-38 64-6 74 65 87 74 30" id="s"/><path fill="#3a414a" d="M137-138c1-29-70-34-71-4 15 46 118 7 119 86 1 83-164 76-172 9l43-7c4 19 20 25 44 25 33 8 57-30 24-41C81-84 22-81 20-136c-2-80 154-74 161-7" id="t"/><g id="b"><use transform="matrix(0.06172839506172839,0,0,0.06172839506172839,0,0)" xlink:href="#n"/><use transform="matrix(0.06172839506172839,0,0,0.06172839506172839,14.814814814814813,0)" xlink:href="#o"/><use transform="matrix(0.06172839506172839,0,0,0.06172839506172839,27.160493827160494,0)" xlink:href="#p"/><use transform="matrix(0.06172839506172839,0,0,0.06172839506172839,35.80246913580247,0)" xlink:href="#q"/><use transform="matrix(0.06172839506172839,0,0,0.06172839506172839,48.148148148148145,0)" xlink:href="#r"/><use transform="matrix(0.06172839506172839,0,0,0.06172839506172839,54.32098765432099,0)" xlink:href="#s"/><use transform="matrix(0.06172839506172839,0,0,0.06172839506172839,66.66666666666667,0)" xlink:href="#o"/><use transform="matrix(0.06172839506172839,0,0,0.06172839506172839,79.01234567901236,0)" xlink:href="#t"/></g><path fill="#3a414a" d="M67-93c0 74 22 123 53 168H70C40 30 18-18 18-93s22-123 52-168h50c-32 44-53 94-53 168" id="u"/><path fill="#3a414a" d="M275 0h-61l-44-196L126 0H64L0-248h53L97-49l45-199h58l43 199 44-199h52" id="v"/><path fill="#3a414a" d="M135-194c52 0 70 43 70 98 0 56-19 99-73 100-30 1-46-15-58-35L72 0H24l1-261h50v104c11-23 29-37 60-37zM114-30c31 0 40-27 40-66 0-37-7-63-39-63s-41 28-41 65c0 36 8 64 40 64" id="w"/><g id="c"><use transform="matrix(0.06172839506172839,0,0,0.06172839506172839,0,0)" xlink:href="#u"/><use transform="matrix(0.06172839506172839,0,0,0.06172839506172839,7.345679012345679,0)" xlink:href="#v"/><use transform="matrix(0.06172839506172839,0,0,0.06172839506172839,27.839506172839503,0)" xlink:href="#o"/><use transform="matrix(0.06172839506172839,0,0,0.06172839506172839,40.18518518518518,0)" xlink:href="#w"/></g><path fill="#3a414a" d="M238-95c0 69-44 99-111 99C63 4 22-25 22-93v-155h51v151c-1 38 19 59 55 60 90 1 49-130 58-211h52v153" id="x"/><path fill="#3a414a" d="M24 0v-248h52V0H24" id="y"/><path fill="#3a414a" d="M76-54c-1 42 2 86-19 110H24C36 42 46 24 48 0H25v-54h51" id="z"/><g id="d"><use transform="matrix(0.06172839506172839,0,0,0.06172839506172839,0,0)" xlink:href="#x"/><use transform="matrix(0.06172839506172839,0,0,0.06172839506172839,15.987654320987653,0)" xlink:href="#y"/><use transform="matrix(0.06172839506172839,0,0,0.06172839506172839,22.160493827160494,0)" xlink:href="#z"/></g><path fill="#3a414a" d="M114-157C55-157 80-60 75 0H25v-261h50l-1 109c12-26 28-41 61-42 86-1 58 113 63 194h-50c-7-57 23-157-34-157" id="A"/><path fill="#3a414a" d="M88-194c31-1 46 15 58 34l-1-101h50l1 261h-48c-2-10 0-23-3-31C134-8 116 4 84 4 32 4 16-41 15-95c0-56 19-97 73-99zm17 164c33 0 40-30 41-66 1-37-9-64-41-64s-38 30-39 65c0 43 13 65 39 65" id="B"/><path fill="#3a414a" d="M85 4C-2 5 27-109 22-190h50c7 57-23 150 33 157 60-5 35-97 40-157h50l1 190h-47c-2-12 1-28-3-38-12 25-28 42-61 42" id="C"/><path fill="#3a414a" d="M25 0v-261h50V0H25" id="D"/><path fill="#3a414a" d="M102-93c0 74-22 123-52 168H0C30 29 54-18 53-93c0-74-22-123-53-168h50c30 45 52 94 52 168" id="E"/><g id="e"><use transform="matrix(0.06172839506172839,0,0,0.06172839506172839,0,0)" xlink:href="#n"/><use transform="matrix(0.06172839506172839,0,0,0.06172839506172839,14.814814814814813,0)" xlink:href="#s"/><use transform="matrix(0.06172839506172839,0,0,0.06172839506172839,27.160493827160494,0)" xlink:href="#A"/><use transform="matrix(0.06172839506172839,0,0,0.06172839506172839,40.67901234567901,0)" xlink:href="#o"/><use transform="matrix(0.06172839506172839,0,0,0.06172839506172839,53.02469135802469,0)" xlink:href="#B"/><use transform="matrix(0.06172839506172839,0,0,0.06172839506172839,66.5432098765432,0)" xlink:href="#C"/><use transform="matrix(0.06172839506172839,0,0,0.06172839506172839,80.06172839506172,0)" xlink:href="#D"/><use transform="matrix(0.06172839506172839,0,0,0.06172839506172839,86.23456790123456,0)" xlink:href="#o"/><use transform="matrix(0.06172839506172839,0,0,0.06172839506172839,98.58024691358024,0)" xlink:href="#p"/><use transform="matrix(0.06172839506172839,0,0,0.06172839506172839,107.22222222222221,0)" xlink:href="#E"/></g><path fill="#3a414a" d="M115-3C79 11 28 4 28-45v-112H4v-33h27l15-45h31v45h36v33H77v99c-1 23 16 31 38 25v30" id="F"/><path fill="#3a414a" d="M110-194c64 0 96 36 96 99 0 64-35 99-97 99-61 0-95-36-95-99 0-62 34-99 96-99zm-1 164c35 0 45-28 45-65 0-40-10-65-43-65-34 0-45 26-45 65 0 36 10 65 43 65" id="G"/><path fill="#3a414a" d="M133-34C117-15 103 5 69 4 32 3 11-16 11-54c-1-60 55-63 116-61 1-26-3-47-28-47-18 1-26 9-28 27l-52-2c7-38 36-58 82-57s74 22 75 68l1 82c-1 14 12 18 25 15v27c-30 8-71 5-69-32zm-48 3c29 0 43-24 42-57-32 0-66-3-65 30 0 17 8 27 23 27" id="H"/><path fill="#3a414a" d="M195-6C206 82 75 100 31 46c-4-6-6-13-8-21l49-6c3 16 16 24 34 25 40 0 42-37 40-79-11 22-30 35-61 35-53 0-70-43-70-97 0-56 18-96 73-97 30 0 46 14 59 34l2-30h47zm-90-29c32 0 41-27 41-63 0-35-9-62-40-62-32 0-39 29-40 63 0 36 9 62 39 62" id="I"/><g id="f"><use transform="matrix(0.06172839506172839,0,0,0.06172839506172839,0,0)" xlink:href="#n"/><use transform="matrix(0.06172839506172839,0,0,0.06172839506172839,14.814814814814813,0)" xlink:href="#F"/><use transform="matrix(0.06172839506172839,0,0,0.06172839506172839,22.160493827160494,0)" xlink:href="#G"/><use transform="matrix(0.06172839506172839,0,0,0.06172839506172839,35.67901234567901,0)" xlink:href="#p"/><use transform="matrix(0.06172839506172839,0,0,0.06172839506172839,44.32098765432099,0)" xlink:href="#H"/><use transform="matrix(0.06172839506172839,0,0,0.06172839506172839,56.666666666666664,0)" xlink:href="#I"/><use transform="matrix(0.06172839506172839,0,0,0.06172839506172839,70.18518518518518,0)" xlink:href="#o"/></g><path fill="#3a414a" d="M24-248c120-7 223 5 221 122C244-46 201 0 124 0H24v-248zM76-40c74 7 117-18 117-86 0-67-45-88-117-82v168" id="J"/><path fill="#3a414a" d="M240-174c0 40-23 61-54 70L253 0h-59l-57-94H76V0H24v-248c93 4 217-23 216 74zM76-134c48-2 112 12 112-38 0-48-66-32-112-35v73" id="K"/><g id="g"><use transform="matrix(0.06172839506172839,0,0,0.06172839506172839,0,0)" xlink:href="#u"/><use transform="matrix(0.06172839506172839,0,0,0.06172839506172839,7.345679012345679,0)" xlink:href="#J"/><use transform="matrix(0.06172839506172839,0,0,0.06172839506172839,23.333333333333332,0)" xlink:href="#K"/><use transform="matrix(0.06172839506172839,0,0,0.06172839506172839,39.32098765432099,0)" xlink:href="#z"/></g><path fill="#3a414a" d="M24 0v-248h195v40H76v63h132v40H76v65h150V0H24" id="L"/><path fill="#3a414a" d="M67-125c0 53 21 87 73 88 37 1 54-22 65-47l45 17C233-25 199 4 140 4 58 4 20-42 15-125 8-235 124-281 211-232c18 10 29 29 36 50l-46 12c-8-25-30-41-62-41-52 0-71 34-72 86" id="M"/><g id="h"><use transform="matrix(0.06172839506172839,0,0,0.06172839506172839,0,0)" xlink:href="#L"/><use transform="matrix(0.06172839506172839,0,0,0.06172839506172839,14.814814814814813,0)" xlink:href="#M"/><use transform="matrix(0.06172839506172839,0,0,0.06172839506172839,30.80246913580247,0)" xlink:href="#K"/><use transform="matrix(0.06172839506172839,0,0,0.06172839506172839,46.79012345679012,0)" xlink:href="#E"/></g></defs></g></svg>