<svg xmlns="http://www.w3.org/2000/svg" xmlns:xlink="http://www.w3.org/1999/xlink" xmlns:lucid="lucid" width="898" height="482"><g transform="translate(0 0)" lucid:page-tab-id="7XbhajXm~Vy3"><path d="M40 46a6 6 0 0 1 6-6h808a6 6 0 0 1 6 6v388a6 6 0 0 1-6 6H46a6 6 0 0 1-6-6z" stroke="#1071e5" stroke-width="2" fill="#fff" fill-opacity="0"/><path d="M40 40h56v56H40V40z" stroke="#fff" stroke-opacity="0" fill="#1071e5"/><path d="M80.88 81.22h-25c-4.13.05-7.57-3.1-7.9-7.2v-.64c-.15-3.4 1.97-6.38 5.25-7.36v-.66c.12-4.22 2.44-7.75 6.24-9.57 4.12-1.86 8.73-.96 11.8 2.3 1.1 1.1 1.85 2.2 2.45 3.6 1.2-1 2.72-1.32 4.24-.9 2.24.8 3.68 2.74 3.76 5.1 3.68.65 6.32 3.8 6.28 7.56 0 7.07-7.04 7.73-7.12 7.76zm-26.7-13.88c-2.83.6-4.75 3.14-4.6 6.04v.53c.3 3.33 3.1 5.84 6.4 5.76h24.98c3.04-.3 5.4-2.64 5.68-5.7.28-3.43-2.24-6.5-5.68-6.78-.44-.05-.72-.44-.64-.87.08-1.83-1-3.44-2.72-4.13-1.32-.37-2.64.13-3.44 1.24-.2.25-.44.38-.76.33-.28-.05-.48-.24-.6-.5-.6-1.6-1.4-2.85-2.6-4.04-2.68-2.8-6.6-3.6-10.13-2-3.24 1.6-5.2 4.63-5.32 8.24-.04.4-.04.74 0 1.14.04.4-.2.76-.6.84z" stroke="#fff" stroke-opacity="0" fill="#fff"/><use xlink:href="#a" transform="matrix(1,0,0,1,111,60) translate(0 17.955555555555552)"/><path d="M66.35 126a6 6 0 0 1 6-6h637.02a6 6 0 0 1 6 6v188a6 6 0 0 1-6 6H72.35a6 6 0 0 1-6-6z" fill-opacity="0"/><path d="M69.43 120.78l.2-.13.87-.36.9-.23h2m4 0h3.98m4 0h3.97m4 0h3.98m4 0h3.97m4 0h3.98m3.98 0h4m3.98 0h4m3.97 0h4m4 0h3.98m3.98 0h4m3.98 0h3.98m4 0h3.98m4 0h3.97m4 0h3.98m3.98 0h4m3.98 0h4m3.98 0h4m3.98 0h4m3.97 0h4m3.98 0h4m3.98-.02h4m3.98 0h3.98m4 0h3.98m3.98 0h4m3.98 0h4m3.97 0h4m3.98 0h3.98m4 0h4m3.98 0h3.98m4 0h3.98m4 0h3.97m4 0h4m3.97 0h4m3.98 0h4m3.97 0h4m3.98 0h3.98m4 0h3.98m4 0h3.97m4 0h3.98m4 0h3.98m4 0h3.98m3.98 0l4-.02m3.98 0h4m3.97 0h3.98m4 0h3.97m4 0h3.98m4 0h3.97m4 0h3.98m3.98 0h4m3.98 0h4m3.97 0h4m4 0h3.98m3.98 0h4m3.98 0h3.98m4 0H512m4 0h3.97m4 0h3.98m3.98 0h4m3.98 0h4m3.98 0h4m3.98 0h4m3.97 0h4m3.98 0h4m3.98 0l4-.02m3.98 0h3.98m4 0h3.98m3.98 0h4m3.98 0h4m3.97 0h4m3.98 0h3.98m4 0h4m3.98 0h3.98m4 0h3.98m4 0h3.97m4 0h4m3.97 0h4m3.98 0h4m3.97 0h4m3.98 0h3.98m4 0h2l.92.07.92.22.22.08m3.15 2.7l.1.2.37.87.22.9v1.98m0 3.94v3.93m0 3.94v3.93m0 3.94v3.95m0 3.93v3.94m0 3.94v3.93m0 3.93v3.93m0 3.94v3.94m.02 3.93V190m0 3.95v3.93m0 3.94v3.93m0 3.94v3.93m0 3.93v3.94m0 3.94v3.93m0 3.94l.02 3.94m0 3.94v3.94m0 3.93V253m0 3.92v3.94m0 3.94v3.93m0 3.94v3.94m0 3.94v3.94m.02 3.93v3.95m0 3.94v3.92m0 3.94v3.94m0 3.93V314l-.07.94-.23.9-.1.23m-2.68 3.15l-.2.13-.88.36-.92.23h-2m-3.98 0h-3.98m-4 0h-3.98m-4 0h-3.97m-4 0h-4m-3.97 0h-4m-3.98 0h-4m-3.97 0h-4m-3.98 0h-3.98m-4 0h-3.98m-4 0h-3.97m-4 0h-3.98m-4 0h-3.98m-4 0h-3.98m-3.98 0h-4m-3.98 0h-4m-3.97 0h-3.98m-4 0h-3.97m-4 0h-3.98m-4 0h-3.97m-4 0h-3.98m-4 .02h-3.97m-4 0h-3.98m-3.98 0h-4m-4 0h-3.98m-3.98 0h-4m-3.98 0h-3.98m-4 0H493m-4 0h-3.97m-4 0h-3.98m-3.98 0h-4m-3.98 0h-4m-3.98 0h-4m-3.98 0h-4m-3.97 0h-4m-3.98 0h-4m-3.98 0h-4m-3.98 0h-3.98m-4 0h-3.98m-3.98 0h-4m-3.98 0h-4m-3.97 0h-4m-3.98 0l-4 .02m-3.97 0h-4m-3.98 0h-3.98m-4 0h-3.98m-4 0h-3.97m-4 0h-4m-3.97 0h-4m-3.98 0h-4m-3.97 0h-4m-3.98 0h-3.98m-4 0h-3.98m-4 0h-3.97m-4 0h-3.98m-4 0h-3.98m-4 0h-3.98m-3.98 0h-4m-3.98 0h-4m-3.97 0h-3.98m-4 0h-3.97m-4 0h-3.98m-4 0h-3.97m-4 0h-3.98m-4 0l-3.97.02m-4 0h-3.98m-3.98 0h-4m-4 0h-3.98m-3.98 0h-4m-3.98 0h-3.98m-4 0h-3.98m-4 0h-3.97m-4 0h-3.98m-3.98 0h-4m-3.98 0h-4m-3.98 0h-4m-3.98 0h-4m-3.97 0h-4m-3.98 0h-4m-3.98 0h-4m-3.98 0h-2l-.93-.07-.9-.22-.22-.08m-3.15-2.7l-.13-.2-.36-.87-.22-.9v-1.98m0-3.94v-3.93m0-3.94v-3.93m0-3.94v-3.95m0-3.93v-3.94m0-3.94v-3.93m0-3.93v-3.93m-.02-3.94v-3.94m0-3.93V250m0-3.95v-3.93m0-3.94v-3.93m0-3.94v-3.93m0-3.93v-3.94m0-3.94l-.02-3.93m0-3.94v-3.94m0-3.94v-3.94m0-3.93V187m0-3.92v-3.94m0-3.94v-3.93m0-3.94v-3.94m-.02-3.94v-3.94m0-3.93v-3.95m0-3.94v-3.92m0-3.94v-3.94m0-3.93V126l.06-.94.22-.9.1-.23" stroke="#1071e5" fill="none"/><use xlink:href="#b" transform="matrix(1,0,0,1,66.35056746532155,140) translate(0 14.4)"/><use xlink:href="#c" transform="matrix(1,0,0,1,66.35056746532155,140) translate(10 14.4)"/><path d="M265.47 340H74.22c-4.35 0-7.87 3.24-7.87 7.44v45.12c0 4.2 3.52 7.44 7.87 7.44h191.25c4.34 0 7.86-3.24 7.86-7.44v-45.12c0-4.14-3.52-7.44-7.86-7.44zM83.74 392.62c-3.94 0-7.45-3.24-7.45-7.02 0-3.72 3.5-6.96 7.44-6.96 4.14 0 7.45 3.24 7.45 6.96 0 4.26-3.53 7.02-7.46 7.02zm174.28-2.34h-41.8c-1.67 0-2.5-.9-2.5-2.34 0-1.38.83-2.34 2.5-2.34H258c1.45 0 2.48.96 2.48 2.34 0 1.02-1.03 2.34-2.48 2.34zm0-7.92h-41.8c-1.67 0-2.5-.9-2.5-2.34 0-1.38.83-2.34 2.5-2.34H258c1.45 0 2.48.96 2.48 2.34 0 1.44-1.03 2.34-2.48 2.34zm0-7.38h-41.8c-1.67 0-2.5-.96-2.5-2.34 0-1.44.83-2.34 2.5-2.34H258c1.45 0 2.48.9 2.48 2.34 0 1.38-1.03 2.34-2.48 2.34z" stroke="#000" stroke-opacity="0" fill="#979ea8"/><use xlink:href="#d" transform="matrix(1,0,0,1,36.35056746532155,409) translate(76.625 14.4)"/><use xlink:href="#e" transform="matrix(1,0,0,1,36.35056746532155,409) translate(134.525 14.4)"/><path d="M411.83 268.7h-69.76c-1.1 0-2.07-.98-2.07-2.05v-93.3c0-1.07.96-2.05 2.07-2.05h69.76c1.1 0 2.07.98 2.07 2.05v93.3c0 1.07-.96 2.05-2.07 2.05zm-67.7-4.2h65.63v-89h-65.62z" stroke="#fff" stroke-opacity="0" fill="#1071e5"/><path d="M363.35 198.78h-11.62c-1.13 0-2.06-.93-2.06-2.07v-11.66c0-1.14.93-2.07 2.06-2.07h11.62c1.14 0 2.07.93 2.07 2.07v11.67c0 1.15-.93 2.08-2.07 2.08zm-9.55-4.14h7.5v-7.53h-7.5zM363.35 225.97h-11.62c-1.13 0-2.06-.93-2.06-2.07v-11.67c0-1.14.93-2.07 2.06-2.07h11.62c1.14 0 2.07.93 2.07 2.07v11.67c0 1.14-.93 2.07-2.07 2.07zm-9.55-4.14h7.5v-7.53h-7.5zM363.35 253.16h-11.62c-1.13 0-2.06-.94-2.06-2.07v-11.67c0-1.13.93-2.06 2.06-2.06h11.62c1.14 0 2.07.93 2.07 2.06v11.66c0 1.12-.93 2.06-2.07 2.06zm-9.55-4.14h7.5v-7.52h-7.5zM369.2 188.8h34.88v4.14H369.2v-4.15zM369.2 215.98h34.88v4.14H369.2v-4.14zM369.2 243.2h34.88v4.13H369.2v-4.14z" stroke="#fff" stroke-opacity="0" fill="#1071e5"/><use xlink:href="#f" transform="matrix(1,0,0,1,310,277.69682608246137) translate(52.18518518518518 17.77777777777778)"/><path d="M268.5 196.65a6 6 0 0 1 6-6h48a6 6 0 0 1 6 6v48a6 6 0 0 1-6 6h-48a6 6 0 0 1-6-6z" stroke="#000" stroke-opacity="0" fill="#fff" fill-opacity="0"/><use xlink:href="#g" transform="matrix(1,0,0,1,273.50857225852155,195.65158695876926) translate(9.567901234567902 30.27777777777778)"/><use xlink:href="#h" transform="matrix(1,0,0,1,273.50857225852155,195.65158695876926) translate(21.913580246913583 30.27777777777778)"/><use xlink:href="#i" transform="matrix(1,0,0,1,273.50857225852155,195.65158695876926) translate(34.25925925925926 30.27777777777778)"/><path d="M485.63 340H294.37c-4.34 0-7.86 3.24-7.86 7.44v45.12c0 4.2 3.53 7.44 7.87 7.44h191.26c4.34 0 7.86-3.24 7.86-7.44v-45.12c0-4.14-3.53-7.44-7.87-7.44zM303.9 392.62c-3.94 0-7.46-3.24-7.46-7.02 0-3.72 3.52-6.96 7.46-6.96 4.13 0 7.45 3.24 7.45 6.96 0 4.26-3.52 7.02-7.45 7.02zm174.27-2.34h-41.8c-1.66 0-2.5-.9-2.5-2.34 0-1.38.84-2.34 2.5-2.34h41.8c1.45 0 2.5.96 2.5 2.34 0 1.02-1.05 2.34-2.5 2.34zm0-7.92h-41.8c-1.66 0-2.5-.9-2.5-2.34 0-1.38.84-2.34 2.5-2.34h41.8c1.45 0 2.5.96 2.5 2.34 0 1.44-1.05 2.34-2.5 2.34zm0-7.38h-41.8c-1.66 0-2.5-.96-2.5-2.34 0-1.44.84-2.34 2.5-2.34h41.8c1.45 0 2.5.9 2.5 2.34 0 1.38-1.05 2.34-2.5 2.34z" stroke="#000" stroke-opacity="0" fill="#979ea8"/><use xlink:href="#d" transform="matrix(1,0,0,1,256.50861706599414,409) translate(76.625 14.4)"/><use xlink:href="#e" transform="matrix(1,0,0,1,256.50861706599414,409) translate(134.525 14.4)"/><path d="M707.5 340H516.25c-4.35 0-7.87 3.24-7.87 7.44v45.12c0 4.2 3.52 7.44 7.87 7.44H707.5c4.35 0 7.87-3.24 7.87-7.44v-45.12c0-4.14-3.52-7.44-7.87-7.44zm-181.73 52.62c-3.93 0-7.45-3.24-7.45-7.02 0-3.72 3.52-6.96 7.45-6.96 4.14 0 7.45 3.24 7.45 6.96 0 4.26-3.52 7.02-7.45 7.02zm174.28-2.34h-41.8c-1.67 0-2.5-.9-2.5-2.34 0-1.38.83-2.34 2.5-2.34h41.8c1.45 0 2.48.96 2.48 2.34 0 1.02-1.03 2.34-2.48 2.34zm0-7.92h-41.8c-1.67 0-2.5-.9-2.5-2.34 0-1.38.83-2.34 2.5-2.34h41.8c1.45 0 2.48.96 2.48 2.34 0 1.44-1.03 2.34-2.48 2.34zm0-7.38h-41.8c-1.67 0-2.5-.96-2.5-2.34 0-1.44.83-2.34 2.5-2.34h41.8c1.45 0 2.48.9 2.48 2.34 0 1.38-1.03 2.34-2.48 2.34z" stroke="#000" stroke-opacity="0" fill="#979ea8"/><use xlink:href="#d" transform="matrix(1,0,0,1,478.3827658680116,409) translate(76.625 14.4)"/><use xlink:href="#e" transform="matrix(1,0,0,1,478.3827658680116,409) translate(134.525 14.4)"/><path d="M716.83 220H759" stroke="#1071e5" stroke-width="2" fill="none"/><path d="M716.85 221h-1.02v-2h1.02zM760 221h-1.03v-2H760z" stroke="#1071e5" stroke-width=".05" fill="#1071e5"/><path d="M648.13 207.75v39.52H619.5v-39.52h28.63m2.06-2.1h-32.76v43.72h32.75v-43.72z" stroke="#fff" stroke-opacity="0" stroke-width="3" fill="#1071e5"/><path d="M642.8 212.68h2.6v2.08h-2.6v-2.08zM622.23 212.68h18.7v2.08h-18.7v-2.08zM632.65 219.58h12.75v2.08h-12.75v-2.08zM626.73 219.58h4.33v2.08h-4.33v-2.08zM622.23 219.58h2.34v2.08h-2.34v-2.08zM631.6 226.47h13.8v2.08h-13.8v-2.08zM622.23 226.47h7.5v2.08h-7.5v-2.08zM622.23 233.36h23.16v2.08h-23.17v-2.08zM641.33 240.26h4.07v2.08h-4.07v-2.08zM622.23 240.26h16.8v2.08h-16.8v-2.08z" stroke="#fff" stroke-opacity="0" stroke-width="3" fill="#1071e5"/><path d="M657.44 255.65h-34.8v-4.17h2.08v2.1h30.63v-41.74h-3.1v-2.07h5.2v45.88z" stroke="#fff" stroke-opacity="0" stroke-width="3" fill="#1071e5"/><path d="M637.44 269.35c-18.2 0-37.44-5.04-37.44-14.3v-70.1c0-9.26 19.25-14.3 37.44-14.3 18.13 0 37.45 5.04 37.45 14.3v70.1c0 9.26-19.33 14.3-37.46 14.3zm0-94.45c-20.6 0-33.25 5.82-33.25 10.06v70.08c0 4.14 12.57 10.06 33.24 10.06s33.25-5.82 33.25-10.06v-70.08c0-4.24-12.66-10.06-33.26-10.06z" stroke="#fff" stroke-opacity="0" fill="#1071e5"/><path d="M637.44 197.22c-18.2 0-37.44-5.02-37.44-14.35h4.2c0 4.2 12.57 10.14 33.24 10.14s33.25-5.88 33.25-10.13h4.2c0 9.33-19.33 14.35-37.46 14.35z" stroke="#fff" stroke-opacity="0" fill="#1071e5"/><use xlink:href="#j" transform="matrix(1,0,0,1,570,278.34841304123074) translate(17.067901234567906 17.77777777777778)"/><use xlink:href="#k" transform="matrix(1,0,0,1,570,278.34841304123074) translate(55.21604938271605 17.77777777777778)"/><path d="M797.44 269.35c-18.2 0-37.44-5.04-37.44-14.3v-70.1c0-9.26 19.25-14.3 37.44-14.3 18.13 0 37.45 5.04 37.45 14.3v70.1c0 9.26-19.33 14.3-37.46 14.3zm0-94.45c-20.6 0-33.25 5.82-33.25 10.06v70.08c0 4.14 12.57 10.06 33.24 10.06s33.25-5.82 33.25-10.06v-70.08c0-4.24-12.66-10.06-33.26-10.06z" stroke="#fff" stroke-opacity="0" fill="#1071e5"/><path d="M797.44 197.22c-18.2 0-37.44-5.02-37.44-14.35h4.2c0 4.2 12.57 10.14 33.24 10.14s33.25-5.88 33.25-10.13h4.2c0 9.33-19.33 14.35-37.46 14.35z" stroke="#fff" stroke-opacity="0" fill="#1071e5"/><use xlink:href="#l" transform="matrix(1,0,0,1,730,278.34841304123063) translate(51.51234567901235 17.77777777777778)"/><use xlink:href="#m" transform="matrix(1,0,0,1,730,278.34841304123063) translate(33.641975308641975 44.44444444444444)"/><path d="M800.94 245.1l-14.1-14.1-7.77 7.77-1.35-1.36 8.43-8.44c.4-.37.98-.37 1.37 0l14.77 14.8z" stroke="#fff" stroke-opacity="0" fill="#1071e5"/><path d="M816.08 237.13l-10.9-10.92-10.7 10.7-1.35-1.34 11.38-11.4c.37-.36.98-.36 1.35 0l11.6 11.62zM793.9 227.38c-2.48 0-4.5-2-4.5-4.48 0-2.48 2-4.5 4.48-4.5 2.48-.02 4.5 2 4.5 4.48v.02c0 2.47-2 4.47-4.48 4.48zm0-7.05c-1.43 0-2.58 1.15-2.58 2.57s1.15 2.57 2.57 2.57c1.4 0 2.56-1.15 2.56-2.57s-1.14-2.57-2.56-2.57z" stroke="#fff" stroke-opacity="0" fill="#1071e5"/><path d="M816.44 248.4H778.4c-.52 0-.96-.44-.96-.96v-38.08c0-.52.44-.96.96-.96h38.04c.52 0 .96.44.96.96v38.08c0 .52-.44.96-.96.96zm-37.08-1.92h36.12v-36.16h-36.12zM251.26 268.7H181.5c-1.1 0-2.06-.98-2.06-2.05v-93.3c0-1.07.96-2.05 2.07-2.05h69.76c1.1 0 2.07.98 2.07 2.05v93.3c0 1.07-.96 2.05-2.07 2.05zm-67.7-4.2h65.64v-89h-65.63z" stroke="#fff" stroke-opacity="0" fill="#1071e5"/><path d="M202.8 198.78h-11.63c-1.13 0-2.06-.93-2.06-2.07v-11.66c0-1.14.94-2.07 2.07-2.07h11.62c1.12 0 2.05.93 2.05 2.07v11.67c0 1.15-.93 2.08-2.06 2.08zm-9.57-4.14h7.5v-7.53h-7.5zM202.8 225.97h-11.63c-1.13 0-2.06-.93-2.06-2.07v-11.67c0-1.14.94-2.07 2.07-2.07h11.62c1.12 0 2.05.93 2.05 2.07v11.67c0 1.14-.93 2.07-2.06 2.07zm-9.57-4.14h7.5v-7.53h-7.5zM202.8 253.16h-11.63c-1.13 0-2.06-.94-2.06-2.07v-11.67c0-1.13.94-2.06 2.07-2.06h11.62c1.12 0 2.05.93 2.05 2.06v11.66c0 1.12-.93 2.06-2.06 2.06zm-9.57-4.14h7.5v-7.52h-7.5zM208.64 188.8h34.88v4.14h-34.88v-4.15zM208.64 215.98h34.88v4.14h-34.88v-4.14zM208.64 243.2h34.88v4.13h-34.88v-4.14z" stroke="#fff" stroke-opacity="0" fill="#1071e5"/><use xlink:href="#n" transform="matrix(1,0,0,1,149.4358997531982,277.69682608246137) translate(52.18518518518519 17.77777777777778)"/><path d="M151.83 268.7H82.07c-1.1 0-2.07-.98-2.07-2.05v-93.3c0-1.07.96-2.05 2.07-2.05h69.76c1.1 0 2.07.98 2.07 2.05v93.3c0 1.07-.96 2.05-2.07 2.05zm-67.7-4.2h65.63v-89H84.14z" stroke="#fff" stroke-opacity="0" fill="#1071e5"/><path d="M103.35 198.78H91.73c-1.13 0-2.06-.93-2.06-2.07v-11.66c0-1.14.93-2.07 2.06-2.07h11.62c1.14 0 2.07.93 2.07 2.07v11.67c0 1.15-.93 2.08-2.07 2.08zm-9.55-4.14h7.5v-7.53h-7.5zM103.35 225.97H91.73c-1.13 0-2.06-.93-2.06-2.07v-11.67c0-1.14.93-2.07 2.06-2.07h11.62c1.14 0 2.07.93 2.07 2.07v11.67c0 1.14-.93 2.07-2.07 2.07zm-9.55-4.14h7.5v-7.53h-7.5zM103.35 253.16H91.73c-1.13 0-2.06-.94-2.06-2.07v-11.67c0-1.13.93-2.06 2.06-2.06h11.62c1.14 0 2.07.93 2.07 2.06v11.66c0 1.12-.93 2.06-2.07 2.06zm-9.55-4.14h7.5v-7.52h-7.5zM109.2 188.8h34.88v4.14H109.2v-4.15zM109.2 215.98h34.88v4.14H109.2v-4.14zM109.2 243.2h34.88v4.13H109.2v-4.14z" stroke="#fff" stroke-opacity="0" fill="#1071e5"/><g><use xlink:href="#o" transform="matrix(1,0,0,1,50,277.69682608246137) translate(30.24074074074074 17.77777777777778)"/><use xlink:href="#p" transform="matrix(1,0,0,1,50,277.69682608246137) translate(81.59876543209876 17.77777777777778)"/></g><path d="M517.44 269.35c-18.2 0-37.44-5.04-37.44-14.3v-70.1c0-9.26 19.25-14.3 37.44-14.3 18.13 0 37.45 5.04 37.45 14.3v70.1c0 9.26-19.33 14.3-37.46 14.3zm0-94.45c-20.6 0-33.25 5.82-33.25 10.06v70.08c0 4.14 12.57 10.06 33.24 10.06s33.25-5.82 33.25-10.06v-70.08c0-4.24-12.66-10.06-33.26-10.06z" stroke="#fff" stroke-opacity="0" fill="#1071e5"/><path d="M517.44 197.22c-18.2 0-37.44-5.02-37.44-14.35h4.2c0 4.2 12.57 10.14 33.24 10.14s33.25-5.88 33.25-10.13h4.2c0 9.33-19.33 14.35-37.46 14.35z" stroke="#fff" stroke-opacity="0" fill="#1071e5"/><g><use xlink:href="#q" transform="matrix(1,0,0,1,450,278.34841304123063) translate(44.10493827160494 17.77777777777778)"/></g><path d="M517.5 255.65c-13.86 0-25.06-11.15-25.06-24.95 0-13.85 11.15-25.05 24.95-25.05 13.84 0 25.04 11.15 25.04 24.95v.1c-.05 13.75-11.2 24.9-24.95 24.95zm0-47.85c-12.66-.05-22.9 10.2-22.9 22.8-.06 12.65 10.2 22.9 22.8 22.9 12.64.05 22.9-10.2 22.9-22.8.04-12.65-10.2-22.9-22.8-22.9z" stroke="#fff" stroke-opacity="0" fill="#1071e5"/><path d="M512.22 247.33l-1.54-1.43 14.25-15.22-14.25-15.27 1.54-1.43 14.98 15.95c.38.43.38 1.03 0 1.47z" stroke="#fff" stroke-opacity="0" fill="#1071e5"/><defs><path fill="#232f3e" d="M182-130c37 4 62 22 62 59C244 23 116-4 24 0v-248c84 5 203-23 205 63 0 31-19 50-47 55zM76-148c40-3 101 13 101-30 0-44-60-28-101-31v61zm0 110c48-3 116 14 116-37 0-48-69-32-116-35v72" id="r"/><path fill="#232f3e" d="M185-48c-13 30-37 53-82 52C43 2 14-33 14-96s30-98 90-98c62 0 83 45 84 108H66c0 31 8 55 39 56 18 0 30-7 34-22zm-45-69c5-46-57-63-70-21-2 6-4 13-4 21h74" id="s"/><path fill="#232f3e" d="M114-157C55-157 80-60 75 0H25v-261h50l-1 109c12-26 28-41 61-42 86-1 58 113 63 194h-50c-7-57 23-157-34-157" id="t"/><path fill="#232f3e" d="M25-224v-37h50v37H25zM25 0v-190h50V0H25" id="u"/><path fill="#232f3e" d="M128 0H69L1-190h53L99-40l48-150h52" id="v"/><g id="a"><use transform="matrix(0.06234567901234567,0,0,0.06234567901234567,0,0)" xlink:href="#r"/><use transform="matrix(0.06234567901234567,0,0,0.06234567901234567,16.147530864197527,0)" xlink:href="#s"/><use transform="matrix(0.06234567901234567,0,0,0.06234567901234567,28.61666666666666,0)" xlink:href="#s"/><use transform="matrix(0.06234567901234567,0,0,0.06234567901234567,41.08580246913579,0)" xlink:href="#t"/><use transform="matrix(0.06234567901234567,0,0,0.06234567901234567,54.7395061728395,0)" xlink:href="#u"/><use transform="matrix(0.06234567901234567,0,0,0.06234567901234567,60.97407407407407,0)" xlink:href="#v"/><use transform="matrix(0.06234567901234567,0,0,0.06234567901234567,73.4432098765432,0)" xlink:href="#s"/></g><path fill="#282c33" d="M195 0l-88-114-31 24V0H24v-248h52v113l112-113h60L142-143 257 0h-62" id="w"/><path fill="#282c33" d="M85 4C-2 5 27-109 22-190h50c7 57-23 150 33 157 60-5 35-97 40-157h50l1 190h-47c-2-12 1-28-3-38-12 25-28 42-61 42" id="x"/><path fill="#282c33" d="M135-194c52 0 70 43 70 98 0 56-19 99-73 100-30 1-46-15-58-35L72 0H24l1-261h50v104c11-23 29-37 60-37zM114-30c31 0 40-27 40-66 0-37-7-63-39-63s-41 28-41 65c0 36 8 64 40 64" id="y"/><path fill="#282c33" d="M185-48c-13 30-37 53-82 52C43 2 14-33 14-96s30-98 90-98c62 0 83 45 84 108H66c0 31 8 55 39 56 18 0 30-7 34-22zm-45-69c5-46-57-63-70-21-2 6-4 13-4 21h74" id="z"/><path fill="#282c33" d="M135-150c-39-12-60 13-60 57V0H25l-1-190h47c2 13-1 29 3 40 6-28 27-53 61-41v41" id="A"/><path fill="#282c33" d="M135-194c87-1 58 113 63 194h-50c-7-57 23-157-34-157-59 0-34 97-39 157H25l-1-190h47c2 12-1 28 3 38 12-26 28-41 61-42" id="B"/><path fill="#282c33" d="M115-3C79 11 28 4 28-45v-112H4v-33h27l15-45h31v45h36v33H77v99c-1 23 16 31 38 25v30" id="C"/><path fill="#282c33" d="M137-138c1-29-70-34-71-4 15 46 118 7 119 86 1 83-164 76-172 9l43-7c4 19 20 25 44 25 33 8 57-30 24-41C81-84 22-81 20-136c-2-80 154-74 161-7" id="D"/><g id="c"><use transform="matrix(0.05,0,0,0.05,0,0)" xlink:href="#w"/><use transform="matrix(0.05,0,0,0.05,12.950000000000001,0)" xlink:href="#x"/><use transform="matrix(0.05,0,0,0.05,23.900000000000002,0)" xlink:href="#y"/><use transform="matrix(0.05,0,0,0.05,34.85,0)" xlink:href="#z"/><use transform="matrix(0.05,0,0,0.05,44.85,0)" xlink:href="#A"/><use transform="matrix(0.05,0,0,0.05,51.85,0)" xlink:href="#B"/><use transform="matrix(0.05,0,0,0.05,62.800000000000004,0)" xlink:href="#z"/><use transform="matrix(0.05,0,0,0.05,72.80000000000001,0)" xlink:href="#C"/><use transform="matrix(0.05,0,0,0.05,78.75000000000001,0)" xlink:href="#z"/><use transform="matrix(0.05,0,0,0.05,88.75000000000001,0)" xlink:href="#D"/></g><path d="M185-189c-5-48-123-54-124 2 14 75 158 14 163 119 3 78-121 87-175 55-17-10-28-26-33-46l33-7c5 56 141 63 141-1 0-78-155-14-162-118-5-82 145-84 179-34 5 7 8 16 11 25" id="E"/><path d="M100-194c63 0 86 42 84 106H49c0 40 14 67 53 68 26 1 43-12 49-29l28 8c-11 28-37 45-77 45C44 4 14-33 15-96c1-61 26-98 85-98zm52 81c6-60-76-77-97-28-3 7-6 17-6 28h103" id="F"/><path d="M114-163C36-179 61-72 57 0H25l-1-190h30c1 12-1 29 2 39 6-27 23-49 58-41v29" id="G"/><path d="M108 0H70L1-190h34L89-25l56-165h34" id="H"/><g id="d"><use transform="matrix(0.05,0,0,0.05,0,0)" xlink:href="#E"/><use transform="matrix(0.05,0,0,0.05,12,0)" xlink:href="#F"/><use transform="matrix(0.05,0,0,0.05,22,0)" xlink:href="#G"/><use transform="matrix(0.05,0,0,0.05,27.950000000000003,0)" xlink:href="#H"/><use transform="matrix(0.05,0,0,0.05,36.95,0)" xlink:href="#F"/><use transform="matrix(0.05,0,0,0.05,46.95,0)" xlink:href="#G"/></g><path d="M87 75C49 33 22-17 22-94c0-76 28-126 65-167h31c-38 41-64 92-64 168S80 34 118 75H87" id="I"/><path d="M115-194c53 0 69 39 70 98 0 66-23 100-70 100C84 3 66-7 56-30L54 0H23l1-261h32v101c10-23 28-34 59-34zm-8 174c40 0 45-34 45-75 0-40-5-75-45-74-42 0-51 32-51 76 0 43 10 73 51 73" id="J"/><path d="M24 0v-261h32V0H24" id="K"/><path d="M141-36C126-15 110 5 73 4 37 3 15-17 15-53c-1-64 63-63 125-63 3-35-9-54-41-54-24 1-41 7-42 31l-33-3c5-37 33-52 76-52 45 0 72 20 72 64v82c-1 20 7 32 28 27v20c-31 9-61-2-59-35zM48-53c0 20 12 33 32 33 41-3 63-29 60-74-43 2-92-5-92 41" id="L"/><path d="M85-194c31 0 48 13 60 33l-1-100h32l1 261h-30c-2-10 0-23-3-31C134-8 116 4 85 4 32 4 16-35 15-94c0-66 23-100 70-100zm9 24c-40 0-46 34-46 75 0 40 6 74 45 74 42 0 51-32 51-76 0-42-9-74-50-73" id="M"/><path d="M33-261c38 41 65 92 65 168S71 34 33 75H2C39 34 66-17 66-93S39-220 2-261h31" id="N"/><g id="e"><use transform="matrix(0.05,0,0,0.05,0,0)" xlink:href="#I"/><use transform="matrix(0.05,0,0,0.05,5.95,0)" xlink:href="#J"/><use transform="matrix(0.05,0,0,0.05,15.949999999999998,0)" xlink:href="#K"/><use transform="matrix(0.05,0,0,0.05,19.9,0)" xlink:href="#L"/><use transform="matrix(0.05,0,0,0.05,29.899999999999995,0)" xlink:href="#M"/><use transform="matrix(0.05,0,0,0.05,39.9,0)" xlink:href="#F"/><use transform="matrix(0.05,0,0,0.05,49.9,0)" xlink:href="#N"/></g><path fill="#3a414a" d="M100-194c63 0 86 42 84 106H49c0 40 14 67 53 68 26 1 43-12 49-29l28 8c-11 28-37 45-77 45C44 4 14-33 15-96c1-61 26-98 85-98zm52 81c6-60-76-77-97-28-3 7-6 17-6 28h103" id="O"/><path fill="#3a414a" d="M59-47c-2 24 18 29 38 22v24C64 9 27 4 27-40v-127H5v-23h24l9-43h21v43h35v23H59v120" id="P"/><path fill="#3a414a" d="M96-169c-40 0-48 33-48 73s9 75 48 75c24 0 41-14 43-38l32 2c-6 37-31 61-74 61-59 0-76-41-82-99-10-93 101-131 147-64 4 7 5 14 7 22l-32 3c-4-21-16-35-41-35" id="Q"/><g id="f"><use transform="matrix(0.06172839506172839,0,0,0.06172839506172839,0,0)" xlink:href="#O"/><use transform="matrix(0.06172839506172839,0,0,0.06172839506172839,12.345679012345679,0)" xlink:href="#P"/><use transform="matrix(0.06172839506172839,0,0,0.06172839506172839,18.51851851851852,0)" xlink:href="#Q"/></g><path fill="#3a414a" d="M24 0v-54h51V0H24" id="R"/><use transform="matrix(0.06172839506172839,0,0,0.06172839506172839,0,0)" xlink:href="#R" id="g"/><use transform="matrix(0.06172839506172839,0,0,0.06172839506172839,0,0)" xlink:href="#R" id="h"/><use transform="matrix(0.06172839506172839,0,0,0.06172839506172839,0,0)" xlink:href="#R" id="i"/><path fill="#3a414a" d="M30-248c118-7 216 8 213 122C240-48 200 0 122 0H30v-248zM63-27c89 8 146-16 146-99s-60-101-146-95v194" id="S"/><path fill="#3a414a" d="M233-177c-1 41-23 64-60 70L243 0h-38l-65-103H63V0H30v-248c88 3 205-21 203 71zM63-129c60-2 137 13 137-47 0-61-80-42-137-45v92" id="T"/><g id="j"><use transform="matrix(0.06172839506172839,0,0,0.06172839506172839,0,0)" xlink:href="#S"/><use transform="matrix(0.06172839506172839,0,0,0.06172839506172839,15.987654320987653,0)" xlink:href="#T"/></g><path fill="#3a414a" d="M87 75C49 33 22-17 22-94c0-76 28-126 65-167h31c-38 41-64 92-64 168S80 34 118 75H87" id="U"/><path fill="#3a414a" d="M210-169c-67 3-38 105-44 169h-31v-121c0-29-5-50-35-48C34-165 62-65 56 0H25l-1-190h30c1 10-1 24 2 32 10-44 99-50 107 0 11-21 27-35 58-36 85-2 47 119 55 194h-31v-121c0-29-5-49-35-48" id="V"/><path fill="#3a414a" d="M24 0v-261h32V0H24" id="W"/><path fill="#3a414a" d="M100-194c62-1 85 37 85 99 1 63-27 99-86 99S16-35 15-95c0-66 28-99 85-99zM99-20c44 1 53-31 53-75 0-43-8-75-51-75s-53 32-53 75 10 74 51 75" id="X"/><path fill="#3a414a" d="M177-190C167-65 218 103 67 71c-23-6-38-20-44-43l32-5c15 47 100 32 89-28v-30C133-14 115 1 83 1 29 1 15-40 15-95c0-56 16-97 71-98 29-1 48 16 59 35 1-10 0-23 2-32h30zM94-22c36 0 50-32 50-73 0-42-14-75-50-75-39 0-46 34-46 75s6 73 46 73" id="Y"/><path fill="#3a414a" d="M33-261c38 41 65 92 65 168S71 34 33 75H2C39 34 66-17 66-93S39-220 2-261h31" id="Z"/><g id="k"><use transform="matrix(0.06172839506172839,0,0,0.06172839506172839,0,0)" xlink:href="#U"/><use transform="matrix(0.06172839506172839,0,0,0.06172839506172839,7.345679012345679,0)" xlink:href="#V"/><use transform="matrix(0.06172839506172839,0,0,0.06172839506172839,25.80246913580247,0)" xlink:href="#W"/><use transform="matrix(0.06172839506172839,0,0,0.06172839506172839,30.679012345679013,0)" xlink:href="#X"/><use transform="matrix(0.06172839506172839,0,0,0.06172839506172839,43.02469135802469,0)" xlink:href="#Y"/><use transform="matrix(0.06172839506172839,0,0,0.06172839506172839,55.37037037037037,0)" xlink:href="#Z"/></g><g id="l"><use transform="matrix(0.06172839506172839,0,0,0.06172839506172839,0,0)" xlink:href="#S"/><use transform="matrix(0.06172839506172839,0,0,0.06172839506172839,15.987654320987653,0)" xlink:href="#T"/></g><path fill="#3a414a" d="M115-194c53 0 69 39 70 98 0 66-23 100-70 100C84 3 66-7 56-30L54 0H23l1-261h32v101c10-23 28-34 59-34zm-8 174c40 0 45-34 45-75 0-40-5-75-45-74-42 0-51 32-51 76 0 43 10 73 51 73" id="aa"/><path fill="#3a414a" d="M135-143c-3-34-86-38-87 0 15 53 115 12 119 90S17 21 10-45l28-5c4 36 97 45 98 0-10-56-113-15-118-90-4-57 82-63 122-42 12 7 21 19 24 35" id="ab"/><g id="m"><use transform="matrix(0.06172839506172839,0,0,0.06172839506172839,0,0)" xlink:href="#U"/><use transform="matrix(0.06172839506172839,0,0,0.06172839506172839,7.345679012345679,0)" xlink:href="#aa"/><use transform="matrix(0.06172839506172839,0,0,0.06172839506172839,19.691358024691358,0)" xlink:href="#W"/><use transform="matrix(0.06172839506172839,0,0,0.06172839506172839,24.5679012345679,0)" xlink:href="#X"/><use transform="matrix(0.06172839506172839,0,0,0.06172839506172839,36.913580246913575,0)" xlink:href="#aa"/><use transform="matrix(0.06172839506172839,0,0,0.06172839506172839,49.25925925925925,0)" xlink:href="#ab"/><use transform="matrix(0.06172839506172839,0,0,0.06172839506172839,60.37037037037037,0)" xlink:href="#Z"/></g><path fill="#3a414a" d="M30 0v-248h187v28H63v79h144v27H63v87h162V0H30" id="ac"/><path fill="#3a414a" d="M185-189c-5-48-123-54-124 2 14 75 158 14 163 119 3 78-121 87-175 55-17-10-28-26-33-46l33-7c5 56 141 63 141-1 0-78-155-14-162-118-5-82 145-84 179-34 5 7 8 16 11 25" id="ad"/><g id="n"><use transform="matrix(0.06172839506172839,0,0,0.06172839506172839,0,0)" xlink:href="#ac"/><use transform="matrix(0.06172839506172839,0,0,0.06172839506172839,14.814814814814813,0)" xlink:href="#ad"/></g><path fill="#3a414a" d="M266 0h-40l-56-210L115 0H75L2-248h35L96-30l15-64 43-154h32l59 218 59-218h35" id="ae"/><g id="o"><use transform="matrix(0.06172839506172839,0,0,0.06172839506172839,0,0)" xlink:href="#ae"/><use transform="matrix(0.06172839506172839,0,0,0.06172839506172839,20.493827160493826,0)" xlink:href="#O"/><use transform="matrix(0.06172839506172839,0,0,0.06172839506172839,32.839506172839506,0)" xlink:href="#aa"/></g><path fill="#3a414a" d="M232-93c-1 65-40 97-104 97C67 4 28-28 28-90v-158h33c8 89-33 224 67 224 102 0 64-133 71-224h33v155" id="af"/><path fill="#3a414a" d="M33 0v-248h34V0H33" id="ag"/><g id="p"><use transform="matrix(0.06172839506172839,0,0,0.06172839506172839,0,0)" xlink:href="#af"/><use transform="matrix(0.06172839506172839,0,0,0.06172839506172839,15.987654320987653,0)" xlink:href="#ag"/></g><path fill="#3a414a" d="M212-179c-10-28-35-45-73-45-59 0-87 40-87 99 0 60 29 101 89 101 43 0 62-24 78-52l27 14C228-24 195 4 139 4 59 4 22-46 18-125c-6-104 99-153 187-111 19 9 31 26 39 46" id="ah"/><g id="q"><use transform="matrix(0.06172839506172839,0,0,0.06172839506172839,0,0)" xlink:href="#ac"/><use transform="matrix(0.06172839506172839,0,0,0.06172839506172839,14.814814814814813,0)" xlink:href="#ah"/><use transform="matrix(0.06172839506172839,0,0,0.06172839506172839,30.80246913580247,0)" xlink:href="#T"/></g></defs></g></svg>