<svg xmlns="http://www.w3.org/2000/svg" xmlns:xlink="http://www.w3.org/1999/xlink" xmlns:lucid="lucid" width="528" height="335"><g transform="translate(0 0)" lucid:page-tab-id="NsofPJqf0Wm6"><path d="M40 46a6 6 0 0 1 6-6h441a6 6 0 0 1 6 6v248a6 6 0 0 1-6 6H46a6 6 0 0 1-6-6z" stroke="#d86613" stroke-width="2" fill="#fff" fill-opacity="0"/><path d="M40 40h56v56H40V40z" stroke="#fff" stroke-opacity="0" fill="#d86613"/><path d="M87.2 58.75v-1.58h-3.76v-4.6h-4.8V48.8h-1.62v3.76h-3.4V48.8h-1.63v3.76h-3.4V48.8H67v3.76h-3.42V48.8h-1.6v3.76h-3.43V48.8h-1.57v3.76h-4.42v4.57H48.8v1.62h3.76v3.4H48.8v1.63h3.76v3.4H48.8v1.63h3.76v3.42H48.8v1.62h3.76v3.4H48.8v1.63h3.76v4.57h4.42v3.76h1.57v-3.76h3.42v3.76h1.6v-3.76H67v3.76h1.6v-3.76H72v3.76h1.6v-3.76h3.42v3.76h1.62v-3.76h4.8v-4.57h3.76v-1.62h-3.76v-3.4h3.76V72.2h-3.76v-3.4h3.76v-1.63h-3.76v-3.42h3.76v-1.62h-3.76v-3.4zm-5.38 23.07H54.18V54.18h27.64z" stroke="#fff" stroke-opacity="0" fill="#fff"/><use xlink:href="#a" transform="matrix(1,0,0,1,111,60) translate(0 14.4)"/><use xlink:href="#b" transform="matrix(1,0,0,1,111,60) translate(65.25 14.4)"/><path d="M295.67 165.65h-76.64c-.88 0-1.68-.77-1.68-1.7v-47.9c0-.93.8-1.7 1.68-1.7h76.64c.88 0 1.68.77 1.68 1.7v47.9c0 .93-.8 1.7-1.68 1.7zm-74.88-3.4h73.1v-44.5h-73.1z" stroke="#fff" stroke-opacity="0" fill="#d86613"/><path d="M225.33 122.44h3.4v35.14h-3.4v-35.14zM234.9 122.44h3.4v35.14h-3.4v-35.14zM276.4 122.44h3.4v35.14h-3.4v-35.14zM285.96 122.44h3.4v35.14h-3.4v-35.14zM267.34 152.88h-19.98c-1.6 0-2.88-1.3-2.88-2.9v-19.97c0-1.6 1.3-2.88 2.88-2.88h19.98c1.6 0 2.88 1.3 2.88 2.9v19.97c0 1.6-1.3 2.88-2.88 2.88zm-19.46-3.4h18.94v-18.96h-18.94z" stroke="#fff" stroke-opacity="0" fill="#d86613"/><path d="M246.08 124.04h3.4v4.8h-3.4v-4.8zM252.46 124.04h3.4v4.8h-3.4v-4.8zM258.85 124.04h3.4v4.8h-3.4v-4.8zM265.23 124.04h3.4v4.8h-3.4v-4.8zM246.08 151.17h3.4v4.8h-3.4v-4.8zM252.46 151.17h3.4v4.8h-3.4v-4.8zM258.85 151.17h3.4v4.8h-3.4v-4.8zM265.23 151.17h3.4v4.8h-3.4v-4.8z" stroke="#fff" stroke-opacity="0" fill="#d86613"/><path d="M241.4 128.72h4.78v3.4h-4.78v-3.4zM241.4 135.1h4.78v3.42h-4.78v-3.4zM241.4 141.5h4.78v3.4h-4.78v-3.4zM241.4 147.9h4.78v3.4h-4.78v-3.4zM268.52 128.72h4.78v3.4h-4.78v-3.4zM268.52 135.1h4.78v3.42h-4.78v-3.4zM268.52 141.5h4.78v3.4h-4.78v-3.4zM268.52 147.9h4.78v3.4h-4.78v-3.4z" stroke="#fff" stroke-opacity="0" fill="#d86613"/><use xlink:href="#c" transform="matrix(1,0,0,1,187.3499999999999,174.64999999999998) translate(25 17.77777777777778)"/><use xlink:href="#d" transform="matrix(1,0,0,1,187.3499999999999,174.64999999999998) translate(37.407407407407405 44.44444444444444)"/><path d="M443.5 120.85h-76.65c-.88 0-1.68-.75-1.68-1.7V80.86c0-.96.8-1.7 1.68-1.7h76.64c.87 0 1.67.74 1.67 1.7v38.27c0 .96-.8 1.7-1.68 1.7zm-74.9-3.42h73.13V82.57H368.6zM412.3 75.38c-.7-2.62-2.58-4.5-5.2-5.2-3.95-1.07-8 1.26-9.05 5.2l-3.3-.9c1.53-5.76 7.42-9.2 13.18-7.67 3.85 1.03 6.64 3.8 7.66 7.68z" stroke="#fff" stroke-opacity="0" fill="#d86613"/><path d="M418 71.9c-1.48-3.4-3.9-5.8-7.28-7.26-7.04-3.05-15.23.2-18.3 7.25l-3.1-1.35c3.72-8.8 13.88-12.9 22.68-9.17 4.3 1.83 7.36 4.86 9.17 9.17zM405.17 133.5c-4.95.02-9.14-3.17-10.4-7.97l3.28-.86c.7 2.6 2.58 4.5 5.2 5.2 3.95 1.07 8-1.26 9.05-5.2l3.3.86c-1.28 4.8-5.47 8-10.43 7.97z" stroke="#fff" stroke-opacity="0" fill="#d86613"/><path d="M405.17 140c-7.12 0-13.16-4-15.93-10.54l3.15-1.34c1.45 3.4 3.84 5.8 7.24 7.25 7.03 3.05 15.23-.2 18.25-7.25l3.14 1.34c-2.77 6.54-8.78 10.52-15.87 10.54zM380.44 105.6c0 2.2-1.78 3.97-3.98 3.97s-3.98-1.78-3.98-3.98 1.78-4 3.98-4 3.98 1.8 3.98 4z" stroke="#fff" stroke-opacity="0" fill="#d86613"/><path d="M374.76 108h3.4v11.15h-3.4V108zM382.86 91.27c0 2.2-1.78 4-3.98 4s-4-1.8-4-4 1.8-3.98 4-3.98 3.98 1.78 3.98 3.97z" stroke="#fff" stroke-opacity="0" fill="#d86613"/><path d="M390.93 119.15h-3.4V102.3l-9.1-9.06 2.42-2.4 10.08 10.04v18.27zM438.8 101.7h-13V88.75h13zm-9.6-3.4h6.2v-6.16h-6.2zM419.52 95.22c0 2.2-1.78 3.98-3.98 3.98s-3.98-1.78-3.98-3.98 1.78-3.98 3.98-3.98 3.98 1.78 3.98 3.98z" stroke="#fff" stroke-opacity="0" fill="#d86613"/><path d="M416.34 93.52h11.17v3.4h-11.16v-3.4zM413.94 109.6c0 2.18-1.78 3.97-3.98 3.97s-4-1.8-4-3.98c0-2.2 1.8-4 4-4s3.98 1.8 3.98 4z" stroke="#fff" stroke-opacity="0" fill="#d86613"/><path d="M413.16 107.88h30.3v3.4h-30.3v-3.4zM405.17 99.2c0 2.2-1.78 4-3.98 4s-4-1.8-4-4 1.8-3.98 4-3.98 3.97 1.8 3.97 3.98z" stroke="#fff" stroke-opacity="0" fill="#d86613"/><path d="M399.22 99.65L389.16 89.6l-.05-8.72 3.4-.04.04 7.34 9.1 9.06-2.42 2.4z" stroke="#fff" stroke-opacity="0" fill="#d86613"/><path d="M405 112.34c8.26 0 14.96 5.85 14.96 13.07 0 7.23-6.7 13.08-14.97 13.08s-14.97-5.85-14.97-13.07c0-7.2 6.7-13.06 14.96-13.06zM405 61.66c8.26 0 14.96 5.86 14.96 13.07 0 7.22-6.7 13.08-14.97 13.08s-14.97-5.85-14.97-13.07c0-7.2 6.7-13.07 14.96-13.07z" stroke="#fff" stroke-opacity="0" stroke-width=".37" fill="#fff" fill-opacity="0"/><use xlink:href="#e" transform="matrix(1,0,0,1,335.17499999999995,149) translate(21.944444444444443 17.77777777777778)"/><path d="M298.35 140h26.9a6 6 0 0 0 6-6v-28a6 6 0 0 1 6-6h26.92" stroke="#d86613" stroke-width="2" fill="none"/><path d="M298.38 141h-1.03v-2h1.03zM365.18 101h-1.03v-2h1.03z" stroke="#d86613" stroke-width=".05" fill="#d86613"/><path d="M130 100c-13.67 0-27.35 3.44-27.35 9.76v60.48c0 6.4 13.78 9.76 27.35 9.76 13.57 0 27.35-3.36 27.35-9.76v-60.48c0-6.4-13.67-9.76-27.35-9.76zm0 3.44c14.44 0 23.96 3.84 23.96 6.32 0 2.48-9.57 6.32-23.96 6.32-14.33 0-23.9-3.84-23.9-6.32 0-2.56 9.46-6.32 23.9-6.32zm0 73.12c-14.44 0-23.9-3.84-23.9-6.32v-15.2c4.92 3.2 14.5 4.8 23.9 4.8 9.46 0 19.04-1.68 23.96-4.8v15.2c0 2.48-9.52 6.32-23.96 6.32zm0-20.16c-14.44 0-23.9-3.76-23.9-6.32v-15.2c4.92 3.12 14.5 4.8 23.9 4.8 9.46 0 19.04-1.76 23.96-4.8v15.2c0 2.56-9.52 6.32-23.96 6.32zm0-20.16c-15.75 0-23.9-4.08-23.9-6.32v-15.2c4.92 3.2 14.5 4.8 23.9 4.8 9.46 0 19.04-1.6 23.96-4.8v15.2c0 2.24-8.2 6.32-23.96 6.32z" stroke="#fff" stroke-opacity="0" fill="#d86613"/><path d="M110.5 124.3h4.06v3.42h-4.05v-3.43zM110.5 144.45h4.06v3.43h-4.05v-3.43zM110.5 164.6h4.06v3.45h-4.05v-3.44zM116.53 124.3h7.15v3.42h-7.15v-3.43zM116.53 144.45h7.15v3.43h-7.15v-3.43zM116.53 164.6h7.15v3.45h-7.15v-3.44z" stroke="#fff" stroke-opacity="0" fill="#d86613"/><use xlink:href="#f" transform="matrix(1,0,0,1,72.65,189) translate(18.641975308641975 17.77777777777778)"/><path d="M216.35 140h-58" stroke="#d86613" stroke-width="2" stroke-linejoin="round" fill="none"/><path d="M217.35 141h-1.03v-2h1.03zM158.38 141h-1.03v-2h1.03z" stroke="#d86613" stroke-width=".05" fill="#d86613"/><path d="M410.8 239.07l-22.7-22.7-12.48 12.5-2.17-2.2L387 213.1c.64-.62 1.6-.62 2.22 0l23.75 23.8z" stroke="#fff" stroke-opacity="0" fill="#d86613"/><path d="M435.16 226.22l-17.56-17.57-17.17 17.23-2.2-2.18 18.3-18.32c.6-.6 1.58-.6 2.16 0l18.65 18.66zM399.47 210.54c-3.98 0-7.22-3.23-7.23-7.22-.02-4 3.22-7.23 7.2-7.24 4 0 7.22 3.22 7.24 7.2v.04c-.02 3.98-3.24 7.2-7.2 7.22zm0-11.35c-2.3 0-4.14 1.84-4.14 4.12 0 2.3 1.85 4.14 4.13 4.14s4.13-1.85 4.13-4.14c0-2.28-1.84-4.13-4.13-4.13z" stroke="#fff" stroke-opacity="0" fill="#d86613"/><path d="M435.73 244.35h-61.2c-.82 0-1.53-.7-1.53-1.54v-61.26c0-.83.7-1.54 1.54-1.54h61.2c.83 0 1.53.7 1.53 1.54v61.27c0 .84-.7 1.55-1.54 1.55zm-59.64-3.1h58.1V183.1h-58.1z" stroke="#fff" stroke-opacity="0" fill="#d86613"/><use xlink:href="#g" transform="matrix(1,0,0,1,343,253.3499999999999) translate(10.185185185185176 17.77777777777778)"/><path d="M298.35 140H327a6 6 0 0 1 6 6v63.65a6 6 0 0 0 6 6h33" stroke="#d86613" stroke-width="2" fill="none"/><path d="M298.38 141h-1.03v-2h1.03zM373 216.65h-1.03v-2H373z" stroke="#d86613" stroke-width=".05" fill="#d86613"/><defs><path fill="#d86613" d="M266 0h-40l-56-210L115 0H75L2-248h35L96-30l15-64 43-154h32l59 218 59-218h35" id="h"/><path fill="#d86613" d="M141-36C126-15 110 5 73 4 37 3 15-17 15-53c-1-64 63-63 125-63 3-35-9-54-41-54-24 1-41 7-42 31l-33-3c5-37 33-52 76-52 45 0 72 20 72 64v82c-1 20 7 32 28 27v20c-31 9-61-2-59-35zM48-53c0 20 12 33 32 33 41-3 63-29 60-74-43 2-92-5-92 41" id="i"/><path fill="#d86613" d="M177-190C167-65 218 103 67 71c-23-6-38-20-44-43l32-5c15 47 100 32 89-28v-30C133-14 115 1 83 1 29 1 15-40 15-95c0-56 16-97 71-98 29-1 48 16 59 35 1-10 0-23 2-32h30zM94-22c36 0 50-32 50-73 0-42-14-75-50-75-39 0-46 34-46 75s6 73 46 73" id="j"/><path fill="#d86613" d="M24 0v-261h32V0H24" id="k"/><path fill="#d86613" d="M100-194c63 0 86 42 84 106H49c0 40 14 67 53 68 26 1 43-12 49-29l28 8c-11 28-37 45-77 45C44 4 14-33 15-96c1-61 26-98 85-98zm52 81c6-60-76-77-97-28-3 7-6 17-6 28h103" id="l"/><g id="a"><use transform="matrix(0.05,0,0,0.05,0,0)" xlink:href="#h"/><use transform="matrix(0.05,0,0,0.05,16.3,0)" xlink:href="#i"/><use transform="matrix(0.05,0,0,0.05,26.3,0)" xlink:href="#j"/><use transform="matrix(0.05,0,0,0.05,36.3,0)" xlink:href="#j"/><use transform="matrix(0.05,0,0,0.05,46.3,0)" xlink:href="#k"/><use transform="matrix(0.05,0,0,0.05,50.25,0)" xlink:href="#l"/></g><path fill="#d86613" d="M190 0L58-211 59 0H30v-248h39L202-35l-2-213h31V0h-41" id="m"/><path fill="#d86613" d="M100-194c62-1 85 37 85 99 1 63-27 99-86 99S16-35 15-95c0-66 28-99 85-99zM99-20c44 1 53-31 53-75 0-43-8-75-51-75s-53 32-53 75 10 74 51 75" id="n"/><path fill="#d86613" d="M85-194c31 0 48 13 60 33l-1-100h32l1 261h-30c-2-10 0-23-3-31C134-8 116 4 85 4 32 4 16-35 15-94c0-66 23-100 70-100zm9 24c-40 0-46 34-46 75 0 40 6 74 45 74 42 0 51-32 51-76 0-42-9-74-50-73" id="o"/><g id="b"><use transform="matrix(0.05,0,0,0.05,0,0)" xlink:href="#m"/><use transform="matrix(0.05,0,0,0.05,12.950000000000001,0)" xlink:href="#n"/><use transform="matrix(0.05,0,0,0.05,22.950000000000003,0)" xlink:href="#o"/><use transform="matrix(0.05,0,0,0.05,32.95,0)" xlink:href="#l"/></g><path fill="#3a414a" d="M212-179c-10-28-35-45-73-45-59 0-87 40-87 99 0 60 29 101 89 101 43 0 62-24 78-52l27 14C228-24 195 4 139 4 59 4 22-46 18-125c-6-104 99-153 187-111 19 9 31 26 39 46" id="p"/><path fill="#3a414a" d="M100-194c62-1 85 37 85 99 1 63-27 99-86 99S16-35 15-95c0-66 28-99 85-99zM99-20c44 1 53-31 53-75 0-43-8-75-51-75s-53 32-53 75 10 74 51 75" id="q"/><path fill="#3a414a" d="M210-169c-67 3-38 105-44 169h-31v-121c0-29-5-50-35-48C34-165 62-65 56 0H25l-1-190h30c1 10-1 24 2 32 10-44 99-50 107 0 11-21 27-35 58-36 85-2 47 119 55 194h-31v-121c0-29-5-49-35-48" id="r"/><path fill="#3a414a" d="M115-194c55 1 70 41 70 98S169 2 115 4C84 4 66-9 55-30l1 105H24l-1-265h31l2 30c10-21 28-34 59-34zm-8 174c40 0 45-34 45-75s-6-73-45-74c-42 0-51 32-51 76 0 43 10 73 51 73" id="s"/><path fill="#3a414a" d="M84 4C-5 8 30-112 23-190h32v120c0 31 7 50 39 49 72-2 45-101 50-169h31l1 190h-30c-1-10 1-25-2-33-11 22-28 36-60 37" id="t"/><path fill="#3a414a" d="M59-47c-2 24 18 29 38 22v24C64 9 27 4 27-40v-127H5v-23h24l9-43h21v43h35v23H59v120" id="u"/><path fill="#3a414a" d="M100-194c63 0 86 42 84 106H49c0 40 14 67 53 68 26 1 43-12 49-29l28 8c-11 28-37 45-77 45C44 4 14-33 15-96c1-61 26-98 85-98zm52 81c6-60-76-77-97-28-3 7-6 17-6 28h103" id="v"/><g id="c"><use transform="matrix(0.06172839506172839,0,0,0.06172839506172839,0,0)" xlink:href="#p"/><use transform="matrix(0.06172839506172839,0,0,0.06172839506172839,15.987654320987653,0)" xlink:href="#q"/><use transform="matrix(0.06172839506172839,0,0,0.06172839506172839,28.333333333333332,0)" xlink:href="#r"/><use transform="matrix(0.06172839506172839,0,0,0.06172839506172839,46.79012345679012,0)" xlink:href="#s"/><use transform="matrix(0.06172839506172839,0,0,0.06172839506172839,59.1358024691358,0)" xlink:href="#t"/><use transform="matrix(0.06172839506172839,0,0,0.06172839506172839,71.48148148148148,0)" xlink:href="#u"/><use transform="matrix(0.06172839506172839,0,0,0.06172839506172839,77.65432098765432,0)" xlink:href="#v"/></g><path fill="#3a414a" d="M232-93c-1 65-40 97-104 97C67 4 28-28 28-90v-158h33c8 89-33 224 67 224 102 0 64-133 71-224h33v155" id="w"/><path fill="#3a414a" d="M117-194c89-4 53 116 60 194h-32v-121c0-31-8-49-39-48C34-167 62-67 57 0H25l-1-190h30c1 10-1 24 2 32 11-22 29-35 61-36" id="x"/><path fill="#3a414a" d="M24-231v-30h32v30H24zM24 0v-190h32V0H24" id="y"/><path fill="#3a414a" d="M87 75C49 33 22-17 22-94c0-76 28-126 65-167h31c-38 41-64 92-64 168S80 34 118 75H87" id="z"/><path fill="#3a414a" d="M135-143c-3-34-86-38-87 0 15 53 115 12 119 90S17 21 10-45l28-5c4 36 97 45 98 0-10-56-113-15-118-90-4-57 82-63 122-42 12 7 21 19 24 35" id="A"/><path fill="#3a414a" d="M33-261c38 41 65 92 65 168S71 34 33 75H2C39 34 66-17 66-93S39-220 2-261h31" id="B"/><g id="d"><use transform="matrix(0.06172839506172839,0,0,0.06172839506172839,0,0)" xlink:href="#w"/><use transform="matrix(0.06172839506172839,0,0,0.06172839506172839,15.987654320987653,0)" xlink:href="#x"/><use transform="matrix(0.06172839506172839,0,0,0.06172839506172839,28.333333333333332,0)" xlink:href="#y"/><use transform="matrix(0.06172839506172839,0,0,0.06172839506172839,33.20987654320987,0)" xlink:href="#u"/><use transform="matrix(0.06172839506172839,0,0,0.06172839506172839,39.382716049382715,0)" xlink:href="#z"/><use transform="matrix(0.06172839506172839,0,0,0.06172839506172839,46.72839506172839,0)" xlink:href="#A"/><use transform="matrix(0.06172839506172839,0,0,0.06172839506172839,57.839506172839506,0)" xlink:href="#B"/></g><path fill="#3a414a" d="M185-189c-5-48-123-54-124 2 14 75 158 14 163 119 3 78-121 87-175 55-17-10-28-26-33-46l33-7c5 56 141 63 141-1 0-78-155-14-162-118-5-82 145-84 179-34 5 7 8 16 11 25" id="C"/><path fill="#3a414a" d="M114-163C36-179 61-72 57 0H25l-1-190h30c1 12-1 29 2 39 6-27 23-49 58-41v29" id="D"/><g id="e"><use transform="matrix(0.06172839506172839,0,0,0.06172839506172839,0,0)" xlink:href="#C"/><use transform="matrix(0.06172839506172839,0,0,0.06172839506172839,14.814814814814813,0)" xlink:href="#v"/><use transform="matrix(0.06172839506172839,0,0,0.06172839506172839,27.160493827160494,0)" xlink:href="#x"/><use transform="matrix(0.06172839506172839,0,0,0.06172839506172839,39.50617283950617,0)" xlink:href="#A"/><use transform="matrix(0.06172839506172839,0,0,0.06172839506172839,50.61728395061728,0)" xlink:href="#q"/><use transform="matrix(0.06172839506172839,0,0,0.06172839506172839,62.962962962962955,0)" xlink:href="#D"/><use transform="matrix(0.06172839506172839,0,0,0.06172839506172839,70.30864197530863,0)" xlink:href="#z"/><use transform="matrix(0.06172839506172839,0,0,0.06172839506172839,77.65432098765432,0)" xlink:href="#A"/><use transform="matrix(0.06172839506172839,0,0,0.06172839506172839,88.76543209876543,0)" xlink:href="#B"/></g><path fill="#3a414a" d="M141-36C126-15 110 5 73 4 37 3 15-17 15-53c-1-64 63-63 125-63 3-35-9-54-41-54-24 1-41 7-42 31l-33-3c5-37 33-52 76-52 45 0 72 20 72 64v82c-1 20 7 32 28 27v20c-31 9-61-2-59-35zM48-53c0 20 12 33 32 33 41-3 63-29 60-74-43 2-92-5-92 41" id="E"/><path fill="#3a414a" d="M177-190C167-65 218 103 67 71c-23-6-38-20-44-43l32-5c15 47 100 32 89-28v-30C133-14 115 1 83 1 29 1 15-40 15-95c0-56 16-97 71-98 29-1 48 16 59 35 1-10 0-23 2-32h30zM94-22c36 0 50-32 50-73 0-42-14-75-50-75-39 0-46 34-46 75s6 73 46 73" id="F"/><g id="f"><use transform="matrix(0.06172839506172839,0,0,0.06172839506172839,0,0)" xlink:href="#C"/><use transform="matrix(0.06172839506172839,0,0,0.06172839506172839,14.814814814814813,0)" xlink:href="#u"/><use transform="matrix(0.06172839506172839,0,0,0.06172839506172839,20.98765432098765,0)" xlink:href="#q"/><use transform="matrix(0.06172839506172839,0,0,0.06172839506172839,33.33333333333333,0)" xlink:href="#D"/><use transform="matrix(0.06172839506172839,0,0,0.06172839506172839,40.679012345679006,0)" xlink:href="#E"/><use transform="matrix(0.06172839506172839,0,0,0.06172839506172839,53.02469135802468,0)" xlink:href="#F"/><use transform="matrix(0.06172839506172839,0,0,0.06172839506172839,65.37037037037037,0)" xlink:href="#v"/></g><g id="g"><use transform="matrix(0.06172839506172839,0,0,0.06172839506172839,0,0)" xlink:href="#p"/><use transform="matrix(0.06172839506172839,0,0,0.06172839506172839,15.987654320987653,0)" xlink:href="#E"/><use transform="matrix(0.06172839506172839,0,0,0.06172839506172839,28.333333333333332,0)" xlink:href="#r"/><use transform="matrix(0.06172839506172839,0,0,0.06172839506172839,46.79012345679012,0)" xlink:href="#v"/><use transform="matrix(0.06172839506172839,0,0,0.06172839506172839,59.1358024691358,0)" xlink:href="#D"/><use transform="matrix(0.06172839506172839,0,0,0.06172839506172839,66.48148148148148,0)" xlink:href="#E"/><use transform="matrix(0.06172839506172839,0,0,0.06172839506172839,78.82716049382717,0)" xlink:href="#z"/><use transform="matrix(0.06172839506172839,0,0,0.06172839506172839,86.17283950617285,0)" xlink:href="#A"/><use transform="matrix(0.06172839506172839,0,0,0.06172839506172839,97.28395061728396,0)" xlink:href="#B"/></g></defs></g></svg>