<svg xmlns="http://www.w3.org/2000/svg" xmlns:xlink="http://www.w3.org/1999/xlink" xmlns:lucid="lucid" width="515" height="401"><g transform="translate(0 0)" lucid:page-tab-id="tochHpVTgu.R"><path d="M40 46a6 6 0 0 1 6-6h428a6 6 0 0 1 6 6v308a6 6 0 0 1-6 6H46a6 6 0 0 1-6-6z" stroke="#d86613" stroke-width="2" fill="#fff" fill-opacity="0"/><path d="M40 40h56v56H40V40z" stroke="#fff" stroke-opacity="0" fill="#d86613"/><path d="M87.2 58.75v-1.58h-3.76v-4.6h-4.8V48.8h-1.62v3.76h-3.4V48.8h-1.63v3.76h-3.4V48.8H67v3.76h-3.42V48.8h-1.6v3.76h-3.43V48.8h-1.57v3.76h-4.42v4.57H48.8v1.62h3.76v3.4H48.8v1.63h3.76v3.4H48.8v1.63h3.76v3.42H48.8v1.62h3.76v3.4H48.8v1.63h3.76v4.57h4.42v3.76h1.57v-3.76h3.42v3.76h1.6v-3.76H67v3.76h1.6v-3.76H72v3.76h1.6v-3.76h3.42v3.76h1.62v-3.76h4.8v-4.57h3.76v-1.62h-3.76v-3.4h3.76V72.2h-3.76v-3.4h3.76v-1.63h-3.76v-3.42h3.76v-1.62h-3.76v-3.4zm-5.38 23.07H54.18V54.18h27.64z" stroke="#fff" stroke-opacity="0" fill="#fff"/><use xlink:href="#a" transform="matrix(1,0,0,1,111,60) translate(0 14.4)"/><use xlink:href="#b" transform="matrix(1,0,0,1,111,60) translate(39.849999999999994 14.4)"/><use xlink:href="#c" transform="matrix(1,0,0,1,111,60) translate(105.1 14.4)"/><path d="M293.02 165.65h-76.64c-.88 0-1.68-.77-1.68-1.7v-47.9c0-.93.8-1.7 1.68-1.7h76.64c.88 0 1.68.77 1.68 1.7v47.9c0 .93-.8 1.7-1.68 1.7zm-74.88-3.4h73.12v-44.5h-73.12z" stroke="#fff" stroke-opacity="0" fill="#d86613"/><path d="M222.68 122.44h3.4v35.14h-3.4v-35.14zM232.25 122.44h3.4v35.14h-3.4v-35.14zM273.75 122.44h3.4v35.14h-3.4v-35.14zM283.3 122.44h3.42v35.14h-3.4v-35.14zM264.7 152.88h-20c-1.58 0-2.87-1.3-2.87-2.9v-19.97c0-1.6 1.3-2.88 2.88-2.88h20c1.58 0 2.87 1.3 2.87 2.9v19.97c0 1.6-1.3 2.88-2.88 2.88zm-19.47-3.4h18.94v-18.96h-18.94z" stroke="#fff" stroke-opacity="0" fill="#d86613"/><path d="M243.43 124.04h3.4v4.8h-3.4v-4.8zM249.8 124.04h3.42v4.8h-3.4v-4.8zM256.2 124.04h3.4v4.8h-3.4v-4.8zM262.58 124.04h3.4v4.8h-3.4v-4.8zM243.43 151.17h3.4v4.8h-3.4v-4.8zM249.8 151.17h3.42v4.8h-3.4v-4.8zM256.2 151.17h3.4v4.8h-3.4v-4.8zM262.58 151.17h3.4v4.8h-3.4v-4.8z" stroke="#fff" stroke-opacity="0" fill="#d86613"/><path d="M238.75 128.72h4.78v3.4h-4.78v-3.4zM238.75 135.1h4.78v3.42h-4.78v-3.4zM238.75 141.5h4.78v3.4h-4.78v-3.4zM238.75 147.9h4.78v3.4h-4.78v-3.4zM265.87 128.72h4.78v3.4h-4.78v-3.4zM265.87 135.1h4.78v3.42h-4.78v-3.4zM265.87 141.5h4.78v3.4h-4.78v-3.4zM265.87 147.9h4.78v3.4h-4.78v-3.4z" stroke="#fff" stroke-opacity="0" fill="#d86613"/><use xlink:href="#d" transform="matrix(1,0,0,1,184.69999999999993,174.64999999999998) translate(19.104938271604944 17.77777777777778)"/><use xlink:href="#e" transform="matrix(1,0,0,1,184.69999999999993,174.64999999999998) translate(90.09259259259258 17.77777777777778)"/><path d="M295.7 140H359" stroke="#d86613" stroke-width="2" stroke-linejoin="round" fill="none"/><path d="M295.73 141h-1.03v-2h1.03zM360 141h-1.03v-2H360z" stroke="#d86613" stroke-width=".05" fill="#d86613"/><path d="M127.35 100c-13.67 0-27.35 3.44-27.35 9.76v60.48c0 6.4 13.78 9.76 27.35 9.76 13.57 0 27.35-3.36 27.35-9.76v-60.48c0-6.4-13.67-9.76-27.35-9.76zm0 3.44c14.44 0 23.96 3.84 23.96 6.32 0 2.48-9.56 6.32-23.95 6.32-14.33 0-23.9-3.84-23.9-6.32 0-2.56 9.46-6.32 23.9-6.32zm0 73.12c-14.44 0-23.9-3.84-23.9-6.32v-15.2c4.92 3.2 14.5 4.8 23.9 4.8 9.46 0 19.04-1.68 23.96-4.8v15.2c0 2.48-9.5 6.32-23.95 6.32zm0-20.16c-14.44 0-23.9-3.76-23.9-6.32v-15.2c4.92 3.12 14.5 4.8 23.9 4.8 9.46 0 19.04-1.76 23.96-4.8v15.2c0 2.56-9.5 6.32-23.95 6.32zm0-20.16c-15.75 0-23.9-4.08-23.9-6.32v-15.2c4.92 3.2 14.5 4.8 23.9 4.8 9.46 0 19.04-1.6 23.96-4.8v15.2c0 2.24-8.2 6.32-23.95 6.32z" stroke="#fff" stroke-opacity="0" fill="#d86613"/><path d="M107.86 124.3h4.05v3.42h-4.04v-3.43zM107.86 144.45h4.05v3.43h-4.04v-3.43zM107.86 164.6h4.05v3.45h-4.04v-3.44zM113.88 124.3h7.15v3.42h-7.15v-3.43zM113.88 144.45h7.15v3.43h-7.15v-3.43zM113.88 164.6h7.15v3.45h-7.15v-3.44z" stroke="#fff" stroke-opacity="0" fill="#d86613"/><use xlink:href="#f" transform="matrix(1,0,0,1,70.00000000000003,189) translate(18.641975308641975 17.77777777777778)"/><path d="M155.7 140h58" stroke="#d86613" stroke-width="2" stroke-linejoin="round" fill="none"/><path d="M155.73 141h-1.03v-2h1.03zM214.7 141h-1.03v-2h1.03z" stroke="#d86613" stroke-width=".05" fill="#d86613"/><path d="M438.32 160.85h-76.64c-.88 0-1.68-.75-1.68-1.7v-38.28c0-.96.8-1.7 1.68-1.7h76.64c.88 0 1.68.74 1.68 1.7v38.27c0 .96-.8 1.7-1.68 1.7zm-74.88-3.42h73.12v-34.86h-73.12zM407.13 115.38c-.7-2.62-2.6-4.5-5.2-5.2-3.95-1.07-8 1.26-9.06 5.2l-3.3-.9c1.53-5.76 7.43-9.2 13.18-7.67 3.85 1.03 6.65 3.8 7.67 7.68z" stroke="#fff" stroke-opacity="0" fill="#d86613"/><path d="M412.8 111.9c-1.45-3.4-3.87-5.8-7.25-7.26-7.04-3.05-15.23.2-18.3 7.25l-3.1-1.35c3.7-8.8 13.88-12.9 22.67-9.17 4.3 1.83 7.36 4.86 9.18 9.17zM400 173.5c-4.96.02-9.15-3.17-10.42-7.97l3.3-.86c.7 2.6 2.58 4.5 5.2 5.2 3.94 1.07 7.98-1.26 9.05-5.2l3.3.86c-1.28 4.8-5.47 8-10.43 7.97z" stroke="#fff" stroke-opacity="0" fill="#d86613"/><path d="M400 180c-7.12 0-13.17-4-15.93-10.54l3.15-1.34c1.46 3.4 3.84 5.8 7.25 7.25 7.02 3.05 15.23-.2 18.25-7.25l3.14 1.34C413.1 176 407.1 179.98 400 180zM375.27 145.6c0 2.2-1.8 3.97-3.98 3.97-2.2 0-4-1.78-4-3.98s1.8-4 4-4c2.18 0 3.97 1.8 3.97 4z" stroke="#fff" stroke-opacity="0" fill="#d86613"/><path d="M369.58 148h3.4v11.15h-3.4V148zM377.7 131.27c0 2.2-1.8 4-4 4s-3.98-1.8-3.98-4 1.78-3.98 3.98-3.98 4 1.78 4 3.97z" stroke="#fff" stroke-opacity="0" fill="#d86613"/><path d="M385.75 159.15h-3.4V142.3l-9.1-9.06 2.42-2.4 10.08 10.04v18.27zM433.62 141.7h-13v-12.96h13zm-9.6-3.4h6.2v-6.16H424zM414.35 135.22c0 2.2-1.8 3.98-3.98 3.98-2.2 0-4-1.78-4-3.98s1.8-3.98 4-3.98 3.98 1.78 3.98 3.98z" stroke="#fff" stroke-opacity="0" fill="#d86613"/><path d="M411.17 133.52h11.16v3.4h-11.16v-3.4zM408.77 149.6c0 2.18-1.8 3.97-4 3.97s-3.97-1.8-3.97-3.98c0-2.2 1.78-4 3.98-4s4 1.8 4 4z" stroke="#fff" stroke-opacity="0" fill="#d86613"/><path d="M407.98 147.88h30.32v3.4h-30.32v-3.4zM400 139.2c0 2.2-1.78 4-3.98 4s-4-1.8-4-4 1.8-3.98 4-3.98 3.98 1.8 3.98 3.98z" stroke="#fff" stroke-opacity="0" fill="#d86613"/><path d="M394.04 139.65l-10.06-10.06-.05-8.72 3.4-.04.03 7.34 9.1 9.06-2.42 2.4z" stroke="#fff" stroke-opacity="0" fill="#d86613"/><path d="M399.82 152.34c8.26 0 14.97 5.85 14.97 13.07 0 7.23-6.72 13.08-14.98 13.08-8.26 0-14.97-5.85-14.97-13.07 0-7.2 6.7-13.06 14.97-13.06zM399.82 101.66c8.26 0 14.97 5.86 14.97 13.07 0 7.22-6.72 13.08-14.98 13.08-8.26 0-14.97-5.85-14.97-13.07 0-7.2 6.7-13.07 14.97-13.07z" stroke="#fff" stroke-opacity="0" stroke-width=".37" fill="#fff" fill-opacity="0"/><use xlink:href="#g" transform="matrix(1,0,0,1,330,189) translate(21.944444444444443 17.77777777777778)"/><path d="M293.02 291.3h-76.64c-.88 0-1.68-.77-1.68-1.7v-47.9c0-.93.8-1.7 1.68-1.7h76.64c.88 0 1.68.77 1.68 1.7v47.9c0 .93-.8 1.7-1.68 1.7zm-74.88-3.4h73.12v-44.5h-73.12z" stroke="#fff" stroke-opacity="0" fill="#d86613"/><path d="M222.68 248.1h3.4v35.13h-3.4V248.1zM232.25 248.1h3.4v35.13h-3.4V248.1zM273.75 248.1h3.4v35.13h-3.4V248.1zM283.3 248.1h3.42v35.13h-3.4V248.1zM264.7 278.53h-20c-1.58 0-2.87-1.3-2.87-2.9v-19.97c0-1.6 1.3-2.9 2.88-2.9h20c1.58 0 2.87 1.3 2.87 2.9v19.98c0 1.6-1.3 2.9-2.88 2.9zm-19.47-3.4h18.94v-18.96h-18.94z" stroke="#fff" stroke-opacity="0" fill="#d86613"/><path d="M243.43 249.7h3.4v4.78h-3.4v-4.8zM249.8 249.7h3.42v4.78h-3.4v-4.8zM256.2 249.7h3.4v4.78h-3.4v-4.8zM262.58 249.7h3.4v4.78h-3.4v-4.8zM243.43 276.82h3.4v4.8h-3.4v-4.8zM249.8 276.82h3.42v4.8h-3.4v-4.8zM256.2 276.82h3.4v4.8h-3.4v-4.8zM262.58 276.82h3.4v4.8h-3.4v-4.8z" stroke="#fff" stroke-opacity="0" fill="#d86613"/><path d="M238.75 254.37h4.78v3.4h-4.78v-3.4zM238.75 260.76h4.78v3.4h-4.78v-3.4zM238.75 267.15h4.78v3.4h-4.78v-3.4zM238.75 273.54h4.78v3.4h-4.78v-3.4zM265.87 254.37h4.78v3.4h-4.78v-3.4zM265.87 260.76h4.78v3.4h-4.78v-3.4zM265.87 267.15h4.78v3.4h-4.78v-3.4zM265.87 273.54h4.78v3.4h-4.78v-3.4z" stroke="#fff" stroke-opacity="0" fill="#d86613"/><use xlink:href="#d" transform="matrix(1,0,0,1,184.69999999999993,300.29999999999995) translate(19.104938271604944 17.77777777777778)"/><use xlink:href="#h" transform="matrix(1,0,0,1,184.69999999999993,300.29999999999995) translate(90.09259259259258 17.77777777777778)"/><use xlink:href="#i" transform="matrix(1,0,0,1,184.69999999999993,300.29999999999995) translate(34.876543209876544 44.44444444444444)"/><path d="M165.67 291.3H89.03c-.88 0-1.68-.77-1.68-1.7v-47.9c0-.93.8-1.7 1.68-1.7h76.64c.88 0 1.68.77 1.68 1.7v47.9c0 .93-.8 1.7-1.68 1.7zm-74.88-3.4h73.1v-44.5H90.8z" stroke="#fff" stroke-opacity="0" fill="#d86613"/><path d="M95.33 248.1h3.4v35.13h-3.4V248.1zM104.9 248.1h3.4v35.13h-3.4V248.1zM146.4 248.1h3.4v35.13h-3.4V248.1zM155.96 248.1h3.4v35.13h-3.4V248.1zM137.34 278.53h-19.98c-1.6 0-2.88-1.3-2.88-2.9v-19.97c0-1.6 1.3-2.9 2.88-2.9h19.98c1.6 0 2.88 1.3 2.88 2.9v19.98c0 1.6-1.3 2.9-2.88 2.9zm-19.46-3.4h18.94v-18.96h-18.94z" stroke="#fff" stroke-opacity="0" fill="#d86613"/><path d="M116.08 249.7h3.4v4.78h-3.4v-4.8zM122.46 249.7h3.4v4.78h-3.4v-4.8zM128.85 249.7h3.4v4.78h-3.4v-4.8zM135.23 249.7h3.4v4.78h-3.4v-4.8zM116.08 276.82h3.4v4.8h-3.4v-4.8zM122.46 276.82h3.4v4.8h-3.4v-4.8zM128.85 276.82h3.4v4.8h-3.4v-4.8zM135.23 276.82h3.4v4.8h-3.4v-4.8z" stroke="#fff" stroke-opacity="0" fill="#d86613"/><path d="M111.4 254.37h4.78v3.4h-4.78v-3.4zM111.4 260.76h4.78v3.4h-4.78v-3.4zM111.4 267.15h4.78v3.4h-4.78v-3.4zM111.4 273.54h4.78v3.4h-4.78v-3.4zM138.52 254.37h4.78v3.4h-4.78v-3.4zM138.52 260.76h4.78v3.4h-4.78v-3.4zM138.52 267.15h4.78v3.4h-4.78v-3.4zM138.52 273.54h4.78v3.4h-4.78v-3.4z" stroke="#fff" stroke-opacity="0" fill="#d86613"/><use xlink:href="#j" transform="matrix(1,0,0,1,57.35000000000002,300.29999999999995) translate(42.901234567901234 17.77777777777778)"/><use xlink:href="#k" transform="matrix(1,0,0,1,57.35000000000002,300.29999999999995) translate(84.75308641975309 17.77777777777778)"/><path d="M213.7 140h-16.68a6 6 0 0 0-6 6v113.65a6 6 0 0 1-6 6h-16.67" stroke="#d86613" stroke-width="2" fill="none"/><path d="M214.7 141h-1.03v-2h1.03zM168.38 266.65h-1.03v-2h1.03z" stroke="#d86613" stroke-width=".05" fill="#d86613"/><path d="M168.35 265.65h45.35" stroke="#d86613" stroke-width="2" fill="none"/><path d="M168.38 266.65h-1.03v-2h1.03zM214.7 266.65h-1.03v-2h1.03z" stroke="#d86613" stroke-width=".05" fill="#d86613"/><path d="M405.62 299.07l-22.68-22.7-12.5 12.5-2.17-2.2 13.56-13.58c.63-.62 1.58-.62 2.2 0l23.77 23.8z" stroke="#fff" stroke-opacity="0" fill="#d86613"/><path d="M429.98 286.22l-17.56-17.57-17.16 17.23-2.2-2.18 18.3-18.32c.6-.6 1.57-.6 2.16 0l18.65 18.66zM394.3 270.54c-4 0-7.22-3.23-7.24-7.22 0-4 3.22-7.23 7.2-7.24 4 0 7.23 3.22 7.24 7.2v.04c0 3.98-3.23 7.2-7.2 7.22zm0-11.35h-.02c-2.28 0-4.13 1.84-4.13 4.12 0 2.3 1.85 4.14 4.13 4.14 2.3 0 4.13-1.85 4.13-4.14 0-2.28-1.82-4.13-4.1-4.13z" stroke="#fff" stroke-opacity="0" fill="#d86613"/><path d="M430.56 304.35h-61.2c-.83 0-1.53-.7-1.53-1.54v-61.26c0-.83.7-1.54 1.54-1.54h61.2c.82 0 1.53.7 1.53 1.54v61.27c0 .84-.7 1.55-1.54 1.55zm-59.65-3.1H429V243.1h-58.1z" stroke="#fff" stroke-opacity="0" fill="#d86613"/><g><use xlink:href="#l" transform="matrix(1,0,0,1,337.82500000000005,313.3499999999999) translate(10.185185185185176 17.77777777777778)"/></g><path d="M295.7 140h29.56a6 6 0 0 1 6 6v120.17a6 6 0 0 0 6 6h29.57" stroke="#d86613" stroke-width="2" fill="none"/><path d="M295.73 141h-1.03v-2h1.03zM367.82 273.18h-1.02v-2h1.02z" stroke="#d86613" stroke-width=".05" fill="#d86613"/><defs><path fill="#d86613" d="M266 0h-40l-56-210L115 0H75L2-248h35L96-30l15-64 43-154h32l59 218 59-218h35" id="m"/><path fill="#d86613" d="M24-231v-30h32v30H24zM24 0v-190h32V0H24" id="n"/><path fill="#d86613" d="M24 0v-261h32V0H24" id="o"/><path fill="#d86613" d="M85-194c31 0 48 13 60 33l-1-100h32l1 261h-30c-2-10 0-23-3-31C134-8 116 4 85 4 32 4 16-35 15-94c0-66 23-100 70-100zm9 24c-40 0-46 34-46 75 0 40 6 74 45 74 42 0 51-32 51-76 0-42-9-74-50-73" id="p"/><g id="a"><use transform="matrix(0.05,0,0,0.05,0,0)" xlink:href="#m"/><use transform="matrix(0.05,0,0,0.05,16.95,0)" xlink:href="#n"/><use transform="matrix(0.05,0,0,0.05,20.9,0)" xlink:href="#o"/><use transform="matrix(0.05,0,0,0.05,24.849999999999998,0)" xlink:href="#p"/></g><path fill="#d86613" d="M141-36C126-15 110 5 73 4 37 3 15-17 15-53c-1-64 63-63 125-63 3-35-9-54-41-54-24 1-41 7-42 31l-33-3c5-37 33-52 76-52 45 0 72 20 72 64v82c-1 20 7 32 28 27v20c-31 9-61-2-59-35zM48-53c0 20 12 33 32 33 41-3 63-29 60-74-43 2-92-5-92 41" id="q"/><path fill="#d86613" d="M177-190C167-65 218 103 67 71c-23-6-38-20-44-43l32-5c15 47 100 32 89-28v-30C133-14 115 1 83 1 29 1 15-40 15-95c0-56 16-97 71-98 29-1 48 16 59 35 1-10 0-23 2-32h30zM94-22c36 0 50-32 50-73 0-42-14-75-50-75-39 0-46 34-46 75s6 73 46 73" id="r"/><path fill="#d86613" d="M100-194c63 0 86 42 84 106H49c0 40 14 67 53 68 26 1 43-12 49-29l28 8c-11 28-37 45-77 45C44 4 14-33 15-96c1-61 26-98 85-98zm52 81c6-60-76-77-97-28-3 7-6 17-6 28h103" id="s"/><g id="b"><use transform="matrix(0.05,0,0,0.05,0,0)" xlink:href="#m"/><use transform="matrix(0.05,0,0,0.05,16.3,0)" xlink:href="#q"/><use transform="matrix(0.05,0,0,0.05,26.3,0)" xlink:href="#r"/><use transform="matrix(0.05,0,0,0.05,36.3,0)" xlink:href="#r"/><use transform="matrix(0.05,0,0,0.05,46.3,0)" xlink:href="#o"/><use transform="matrix(0.05,0,0,0.05,50.25,0)" xlink:href="#s"/></g><path fill="#d86613" d="M190 0L58-211 59 0H30v-248h39L202-35l-2-213h31V0h-41" id="t"/><path fill="#d86613" d="M100-194c62-1 85 37 85 99 1 63-27 99-86 99S16-35 15-95c0-66 28-99 85-99zM99-20c44 1 53-31 53-75 0-43-8-75-51-75s-53 32-53 75 10 74 51 75" id="u"/><g id="c"><use transform="matrix(0.05,0,0,0.05,0,0)" xlink:href="#t"/><use transform="matrix(0.05,0,0,0.05,12.950000000000001,0)" xlink:href="#u"/><use transform="matrix(0.05,0,0,0.05,22.950000000000003,0)" xlink:href="#p"/><use transform="matrix(0.05,0,0,0.05,32.95,0)" xlink:href="#s"/></g><path fill="#3a414a" d="M190 0L58-211 59 0H30v-248h39L202-35l-2-213h31V0h-41" id="v"/><path fill="#3a414a" d="M137 0h-34L2-248h35l83 218 83-218h36" id="w"/><path fill="#3a414a" d="M24-231v-30h32v30H24zM24 0v-190h32V0H24" id="x"/><path fill="#3a414a" d="M85-194c31 0 48 13 60 33l-1-100h32l1 261h-30c-2-10 0-23-3-31C134-8 116 4 85 4 32 4 16-35 15-94c0-66 23-100 70-100zm9 24c-40 0-46 34-46 75 0 40 6 74 45 74 42 0 51-32 51-76 0-42-9-74-50-73" id="y"/><path fill="#3a414a" d="M141-36C126-15 110 5 73 4 37 3 15-17 15-53c-1-64 63-63 125-63 3-35-9-54-41-54-24 1-41 7-42 31l-33-3c5-37 33-52 76-52 45 0 72 20 72 64v82c-1 20 7 32 28 27v20c-31 9-61-2-59-35zM48-53c0 20 12 33 32 33 41-3 63-29 60-74-43 2-92-5-92 41" id="z"/><g id="d"><use transform="matrix(0.06172839506172839,0,0,0.06172839506172839,0,0)" xlink:href="#v"/><use transform="matrix(0.06172839506172839,0,0,0.06172839506172839,15.987654320987653,0)" xlink:href="#w"/><use transform="matrix(0.06172839506172839,0,0,0.06172839506172839,30.370370370370367,0)" xlink:href="#x"/><use transform="matrix(0.06172839506172839,0,0,0.06172839506172839,35.24691358024691,0)" xlink:href="#y"/><use transform="matrix(0.06172839506172839,0,0,0.06172839506172839,47.59259259259259,0)" xlink:href="#x"/><use transform="matrix(0.06172839506172839,0,0,0.06172839506172839,52.46913580246913,0)" xlink:href="#z"/></g><path fill="#3a414a" d="M195 0l-74-108L45 0H8l94-129-87-119h37l69 98 67-98h37l-84 118L233 0h-38" id="A"/><g id="e"><use transform="matrix(0.06172839506172839,0,0,0.06172839506172839,0,0)" xlink:href="#v"/><use transform="matrix(0.06172839506172839,0,0,0.06172839506172839,15.987654320987653,0)" xlink:href="#A"/></g><path fill="#3a414a" d="M185-189c-5-48-123-54-124 2 14 75 158 14 163 119 3 78-121 87-175 55-17-10-28-26-33-46l33-7c5 56 141 63 141-1 0-78-155-14-162-118-5-82 145-84 179-34 5 7 8 16 11 25" id="B"/><path fill="#3a414a" d="M59-47c-2 24 18 29 38 22v24C64 9 27 4 27-40v-127H5v-23h24l9-43h21v43h35v23H59v120" id="C"/><path fill="#3a414a" d="M100-194c62-1 85 37 85 99 1 63-27 99-86 99S16-35 15-95c0-66 28-99 85-99zM99-20c44 1 53-31 53-75 0-43-8-75-51-75s-53 32-53 75 10 74 51 75" id="D"/><path fill="#3a414a" d="M114-163C36-179 61-72 57 0H25l-1-190h30c1 12-1 29 2 39 6-27 23-49 58-41v29" id="E"/><path fill="#3a414a" d="M177-190C167-65 218 103 67 71c-23-6-38-20-44-43l32-5c15 47 100 32 89-28v-30C133-14 115 1 83 1 29 1 15-40 15-95c0-56 16-97 71-98 29-1 48 16 59 35 1-10 0-23 2-32h30zM94-22c36 0 50-32 50-73 0-42-14-75-50-75-39 0-46 34-46 75s6 73 46 73" id="F"/><path fill="#3a414a" d="M100-194c63 0 86 42 84 106H49c0 40 14 67 53 68 26 1 43-12 49-29l28 8c-11 28-37 45-77 45C44 4 14-33 15-96c1-61 26-98 85-98zm52 81c6-60-76-77-97-28-3 7-6 17-6 28h103" id="G"/><g id="f"><use transform="matrix(0.06172839506172839,0,0,0.06172839506172839,0,0)" xlink:href="#B"/><use transform="matrix(0.06172839506172839,0,0,0.06172839506172839,14.814814814814813,0)" xlink:href="#C"/><use transform="matrix(0.06172839506172839,0,0,0.06172839506172839,20.98765432098765,0)" xlink:href="#D"/><use transform="matrix(0.06172839506172839,0,0,0.06172839506172839,33.33333333333333,0)" xlink:href="#E"/><use transform="matrix(0.06172839506172839,0,0,0.06172839506172839,40.679012345679006,0)" xlink:href="#z"/><use transform="matrix(0.06172839506172839,0,0,0.06172839506172839,53.02469135802468,0)" xlink:href="#F"/><use transform="matrix(0.06172839506172839,0,0,0.06172839506172839,65.37037037037037,0)" xlink:href="#G"/></g><path fill="#3a414a" d="M117-194c89-4 53 116 60 194h-32v-121c0-31-8-49-39-48C34-167 62-67 57 0H25l-1-190h30c1 10-1 24 2 32 11-22 29-35 61-36" id="H"/><path fill="#3a414a" d="M135-143c-3-34-86-38-87 0 15 53 115 12 119 90S17 21 10-45l28-5c4 36 97 45 98 0-10-56-113-15-118-90-4-57 82-63 122-42 12 7 21 19 24 35" id="I"/><path fill="#3a414a" d="M87 75C49 33 22-17 22-94c0-76 28-126 65-167h31c-38 41-64 92-64 168S80 34 118 75H87" id="J"/><path fill="#3a414a" d="M33-261c38 41 65 92 65 168S71 34 33 75H2C39 34 66-17 66-93S39-220 2-261h31" id="K"/><g id="g"><use transform="matrix(0.06172839506172839,0,0,0.06172839506172839,0,0)" xlink:href="#B"/><use transform="matrix(0.06172839506172839,0,0,0.06172839506172839,14.814814814814813,0)" xlink:href="#G"/><use transform="matrix(0.06172839506172839,0,0,0.06172839506172839,27.160493827160494,0)" xlink:href="#H"/><use transform="matrix(0.06172839506172839,0,0,0.06172839506172839,39.50617283950617,0)" xlink:href="#I"/><use transform="matrix(0.06172839506172839,0,0,0.06172839506172839,50.61728395061728,0)" xlink:href="#D"/><use transform="matrix(0.06172839506172839,0,0,0.06172839506172839,62.962962962962955,0)" xlink:href="#E"/><use transform="matrix(0.06172839506172839,0,0,0.06172839506172839,70.30864197530863,0)" xlink:href="#J"/><use transform="matrix(0.06172839506172839,0,0,0.06172839506172839,77.65432098765432,0)" xlink:href="#I"/><use transform="matrix(0.06172839506172839,0,0,0.06172839506172839,88.76543209876543,0)" xlink:href="#K"/></g><g id="h"><use transform="matrix(0.06172839506172839,0,0,0.06172839506172839,0,0)" xlink:href="#v"/><use transform="matrix(0.06172839506172839,0,0,0.06172839506172839,15.987654320987653,0)" xlink:href="#A"/></g><g id="i"><use transform="matrix(0.06172839506172839,0,0,0.06172839506172839,0,0)" xlink:href="#J"/><use transform="matrix(0.06172839506172839,0,0,0.06172839506172839,7.345679012345679,0)" xlink:href="#z"/><use transform="matrix(0.06172839506172839,0,0,0.06172839506172839,19.691358024691358,0)" xlink:href="#F"/><use transform="matrix(0.06172839506172839,0,0,0.06172839506172839,32.03703703703704,0)" xlink:href="#G"/><use transform="matrix(0.06172839506172839,0,0,0.06172839506172839,44.382716049382715,0)" xlink:href="#H"/><use transform="matrix(0.06172839506172839,0,0,0.06172839506172839,56.72839506172839,0)" xlink:href="#C"/><use transform="matrix(0.06172839506172839,0,0,0.06172839506172839,62.901234567901234,0)" xlink:href="#K"/></g><path fill="#3a414a" d="M233-177c-1 41-23 64-60 70L243 0h-38l-65-103H63V0H30v-248c88 3 205-21 203 71zM63-129c60-2 137 13 137-47 0-61-80-42-137-45v92" id="L"/><path fill="#3a414a" d="M30-248c87 1 191-15 191 75 0 78-77 80-158 76V0H30v-248zm33 125c57 0 124 11 124-50 0-59-68-47-124-48v98" id="M"/><g id="j"><use transform="matrix(0.06172839506172839,0,0,0.06172839506172839,0,0)" xlink:href="#L"/><use transform="matrix(0.06172839506172839,0,0,0.06172839506172839,15.987654320987653,0)" xlink:href="#M"/><use transform="matrix(0.06172839506172839,0,0,0.06172839506172839,30.80246913580247,0)" xlink:href="#x"/></g><path fill="#3a414a" d="M155-56V0h-30v-56H8v-25l114-167h33v167h35v25h-35zm-30-156c-27 46-58 90-88 131h88v-131" id="N"/><use transform="matrix(0.06172839506172839,0,0,0.06172839506172839,0,0)" xlink:href="#N" id="k"/><path fill="#3a414a" d="M212-179c-10-28-35-45-73-45-59 0-87 40-87 99 0 60 29 101 89 101 43 0 62-24 78-52l27 14C228-24 195 4 139 4 59 4 22-46 18-125c-6-104 99-153 187-111 19 9 31 26 39 46" id="O"/><path fill="#3a414a" d="M210-169c-67 3-38 105-44 169h-31v-121c0-29-5-50-35-48C34-165 62-65 56 0H25l-1-190h30c1 10-1 24 2 32 10-44 99-50 107 0 11-21 27-35 58-36 85-2 47 119 55 194h-31v-121c0-29-5-49-35-48" id="P"/><g id="l"><use transform="matrix(0.06172839506172839,0,0,0.06172839506172839,0,0)" xlink:href="#O"/><use transform="matrix(0.06172839506172839,0,0,0.06172839506172839,15.987654320987653,0)" xlink:href="#z"/><use transform="matrix(0.06172839506172839,0,0,0.06172839506172839,28.333333333333332,0)" xlink:href="#P"/><use transform="matrix(0.06172839506172839,0,0,0.06172839506172839,46.79012345679012,0)" xlink:href="#G"/><use transform="matrix(0.06172839506172839,0,0,0.06172839506172839,59.1358024691358,0)" xlink:href="#E"/><use transform="matrix(0.06172839506172839,0,0,0.06172839506172839,66.48148148148148,0)" xlink:href="#z"/><use transform="matrix(0.06172839506172839,0,0,0.06172839506172839,78.82716049382717,0)" xlink:href="#J"/><use transform="matrix(0.06172839506172839,0,0,0.06172839506172839,86.17283950617285,0)" xlink:href="#I"/><use transform="matrix(0.06172839506172839,0,0,0.06172839506172839,97.28395061728396,0)" xlink:href="#K"/></g></defs></g></svg>