<svg xmlns="http://www.w3.org/2000/svg" xmlns:xlink="http://www.w3.org/1999/xlink" xmlns:lucid="lucid" width="636" height="539"><g transform="translate(0 0)" lucid:page-tab-id="ATGf8f0VX9Lx"><path d="M42 106a6 6 0 0 1 6-6h536.87a6 6 0 0 1 6 6v208a6 6 0 0 1-6 6H48a6 6 0 0 1-6-6z" fill="#fff" fill-opacity="0"/><path d="M45.08 100.78l.2-.13.87-.36.9-.23h2.02m4 0h4.03m4 0h4.02m4.02 0h4m4.02 0h4.02m4 0h4.02m4.02 0h4m4.02 0h4.02m4 0h4.02m4.02 0h4m4.02 0h4.02m4 0h4.02m4.02 0h4m4.02 0h4.02m4 0h4.03m4 0h4.02m4.02 0h4m4 0l4.03-.02m4 0h4.02m4.02 0h4m4.02 0h4m4.02 0h4m4.03 0h4m4.02 0h4.02m4 0h4m4.03 0h4m4.03 0h4m4.02 0h4.02m4 0h4.02m4.02 0h4m4.02 0h4.02m4 0h4.02m4.02 0h4m4.02 0h4.02m4 0H322m4.02 0h4m4.02-.02h4.02m4 0h4.03m4 0h4.02m4 0h4.02m4 0h4.03m4 0h4.02m4.02 0h4m4 0h4.03m4 0h4.02m4.02 0h4m4.02 0h4m4.02 0h4m4.03 0h4m4.02 0h4.02m4 0h4.02m4 0h4.02m4.02 0h4m4.02 0h4.02m4-.02h4.02m4.02 0h4m4.02 0h4.02m4 0h4.02m4.02 0h4m4.02 0h4.02m4 0h4.02m4.02 0h4m4.03 0h4m4.02 0h4.02m4 0h4.02m4 0h4.02m4 0h4.03m4 0h2.02l.94.07.92.22.22.08m3.15 2.7l.1.2.37.87.22.9v2.02m0 4.02v4m0 4.02v4.02m0 4.02v4.02m0 4.02v4m0 4.03v4.02m0 4.02v4.02m0 4v4.02m0 4.02l.02 4.02m0 4.02v4.02m0 4v4.03m0 4.02v4.02m0 4.02v4m0 4.02v4.02m0 4.02v4.02m0 4l.02 4.03m0 4.03v4.02m0 4.02v4m0 4.03v4.02m0 4.02v4.02m0 4v4.03m0 4v4.03m0 4.02l.02 4m0 4.03v4.02m0 4.02v4.02m0 4v4.03m0 4.02v2l-.07.94-.23.9-.1.23m-2.68 3.15l-.2.13-.88.36-.9.23h-2.02m-4 0h-4.03m-4 0h-4.03m-4 0h-4.02m-4.02 0h-4m-4.02 0h-4.02m-4 0h-4.02m-4.02 0h-4m-4.02 0h-4.02m-4 0h-4.02m-4.02 0h-4m-4.02 0h-4.02m-4 0h-4.02m-4.02 0h-4m-4.03 0h-4m-4.02 0h-4m-4.02 0h-4m-4.03 0l-4 .02m-4.02 0h-4.02m-4 0h-4m-4.03 0h-4m-4.02 0h-4.02m-4 0h-4.02m-4 0h-4.02m-4 0h-4.03m-4 0h-4.03m-4 0h-4.02m-4.02 0h-4m-4.02 0h-4.02m-4 0H351m-4.02 0h-4m-4.02 0h-4.02m-4 0h-4.02m-4.02 0h-4m-4.02 0h-4.02m-4 0h-4.02m-4.02.02h-4m-4.02 0h-4.02m-4 0h-4.03m-4 0h-4.02m-4.02 0h-4m-4.02 0h-4m-4.02 0h-4m-4.03 0h-4m-4.02 0h-4.02m-4 0h-4m-4.03 0h-4m-4.02 0h-4.02m-4 0h-4.02m-4 0h-4.02m-4.02 0h-4m-4.02 0h-4.02m-4 0h-4.02m-4.02 0h-4m-4.02.02h-4.02m-4 0h-4.02m-4.02 0h-4m-4.02 0h-4.02m-4 0h-4.02m-4.02 0h-4m-4.02 0h-4.02m-4 0h-4.03m-4 0h-4.02m-4.02 0h-4m-4 0h-4.03m-4 0h-4.02m-4.02 0h-4M50 320h-2l-.94-.07-.9-.22-.23-.08m-3.15-2.7l-.13-.2-.36-.87-.23-.9v-2.02m0-4.02v-4m0-4.02v-4.02m0-4.02v-4.02m0-4.02v-4m0-4.03v-4.02m0-4.02v-4.02m-.02-4v-4.02m0-4.02v-4.02m0-4.02v-4.02m0-4v-4.03m0-4.02v-4.02m0-4.02v-4m0-4.02v-4.02m-.02-4.02v-4.02m0-4v-4.03m0-4.03v-4.02m0-4.02v-4m0-4.03v-4.02m0-4.02v-4.02m0-4v-4.03m-.02-4v-4.03m0-4.02v-4m0-4.03v-4.02m0-4.02v-4.02m0-4v-4.03m0-4.02v-2l.07-.94.22-.9.08-.23" stroke="#d86613" fill="none"/><use xlink:href="#a" transform="matrix(1,0,0,1,41.99999999999977,120) translate(0 14.4)"/><use xlink:href="#b" transform="matrix(1,0,0,1,41.99999999999977,120) translate(10 14.4)"/><use xlink:href="#c" transform="matrix(1,0,0,1,41.99999999999977,120) translate(106.95 14.4)"/><path d="M42 326a6 6 0 0 1 6-6h536.87a6 6 0 0 1 6 6v168a6 6 0 0 1-6 6H48a6 6 0 0 1-6-6z" fill="#fff" fill-opacity="0"/><path d="M45.08 320.78l.2-.13.87-.36.9-.23h2.02m4 0h4.03m4 0h4.02m4.02 0h4m4.02 0h4.02m4 0h4.02m4.02 0h4m4.02 0h4.02m4 0h4.02m4.02 0h4m4.02 0h4.02m4 0h4.02m4.02 0h4m4.02 0h4.02m4 0h4.03m4 0h4.02m4.02 0h4m4 0l4.03-.02m4 0h4.02m4.02 0h4m4.02 0h4m4.02 0h4m4.03 0h4m4.02 0h4.02m4 0h4m4.03 0h4m4.03 0h4m4.02 0h4.02m4 0h4.02m4.02 0h4m4.02 0h4.02m4 0h4.02m4.02 0h4m4.02 0h4.02m4 0H322m4.02 0h4m4.02-.02h4.02m4 0h4.03m4 0h4.02m4 0h4.02m4 0h4.03m4 0h4.02m4.02 0h4m4 0h4.03m4 0h4.02m4.02 0h4m4.02 0h4m4.02 0h4m4.03 0h4m4.02 0h4.02m4 0h4.02m4 0h4.02m4.02 0h4m4.02 0h4.02m4-.02h4.02m4.02 0h4m4.02 0h4.02m4 0h4.02m4.02 0h4m4.02 0h4.02m4 0h4.02m4.02 0h4m4.03 0h4m4.02 0h4.02m4 0h4.02m4 0h4.02m4 0h4.03m4 0h2.02l.94.07.92.22.22.08m3.15 2.7l.1.2.37.87.22.9v2.02m0 4.02v4.02m0 4.02v4.02m0 4.02v4.03m0 4.03v4.02m0 4.02v4.03m0 4.02v4.02m.02 4.02v4.03m0 4v4.03m0 4.02v4.02m0 4.03v4.02m0 4.02v4.02m0 4.03l.02 4m0 4.03v4.02m0 4.03v4.02m0 4.02v4.02m0 4.03v4.02m0 4v4.03m.02 4.02v4.03m0 4.02v4.02m0 4.02v4.03m0 4.02v2l-.07.94-.23.9-.1.23m-2.68 3.15l-.2.13-.88.36-.9.23h-2.02m-4 0h-4.03m-4 0h-4.03m-4 0h-4.02m-4.02 0h-4m-4.02 0h-4.02m-4 0h-4.02m-4.02 0h-4m-4.02 0h-4.02m-4 0h-4.02m-4.02 0h-4m-4.02 0h-4.02m-4 0h-4.02m-4.02 0h-4m-4.03 0h-4m-4.02 0h-4m-4.02 0h-4m-4.03 0l-4 .02m-4.02 0h-4.02m-4 0h-4m-4.03 0h-4m-4.02 0h-4.02m-4 0h-4.02m-4 0h-4.02m-4 0h-4.03m-4 0h-4.03m-4 0h-4.02m-4.02 0h-4m-4.02 0h-4.02m-4 0H351m-4.02 0h-4m-4.02 0h-4.02m-4 0h-4.02m-4.02 0h-4m-4.02 0h-4.02m-4 0h-4.02m-4.02.02h-4m-4.02 0h-4.02m-4 0h-4.03m-4 0h-4.02m-4.02 0h-4m-4.02 0h-4m-4.02 0h-4m-4.03 0h-4m-4.02 0h-4.02m-4 0h-4m-4.03 0h-4m-4.02 0h-4.02m-4 0h-4.02m-4 0h-4.02m-4.02 0h-4m-4.02 0h-4.02m-4 0h-4.02m-4.02 0h-4m-4.02.02h-4.02m-4 0h-4.02m-4.02 0h-4m-4.02 0h-4.02m-4 0h-4.02m-4.02 0h-4m-4.02 0h-4.02m-4 0h-4.03m-4 0h-4.02m-4.02 0h-4m-4 0h-4.03m-4 0h-4.02m-4.02 0h-4M50 500h-2l-.94-.07-.9-.22-.23-.08m-3.15-2.7l-.13-.2-.36-.87-.23-.9v-2.02m0-4.02v-4.02m0-4.02v-4.02m0-4.02v-4.03m0-4.03v-4.02m0-4.02v-4.03m-.02-4.02v-4.02m0-4.02v-4.03m0-4v-4.03m0-4.02v-4.02m0-4.03v-4.02m0-4.02l-.02-4.02m0-4.03v-4m0-4.03v-4.02m0-4.03v-4.02m0-4.02v-4.02m0-4.03v-4.02m-.02-4v-4.03m0-4.02v-4.03m0-4.02v-4.02m0-4.02v-4.03m0-4.02v-2l.07-.94.22-.9.08-.23" stroke="#d86613" fill="none"/><use xlink:href="#a" transform="matrix(1,0,0,1,41.99999999999977,340) translate(0 14.4)"/><use xlink:href="#d" transform="matrix(1,0,0,1,41.99999999999977,340) translate(10 14.4)"/><path d="M269.2 435.65h-76.65c-.88 0-1.68-.77-1.68-1.7v-47.9c0-.93.8-1.7 1.68-1.7h76.64c.87 0 1.67.77 1.67 1.7v47.9c0 .93-.8 1.7-1.68 1.7zm-74.9-3.4h73.13v-44.5H194.3z" stroke="#fff" stroke-opacity="0" fill="#d86613"/><path d="M198.85 392.44h3.4v35.14h-3.4v-35.14zM208.42 392.44h3.4v35.14h-3.4v-35.14zM249.9 392.44h3.42v35.14h-3.4v-35.14zM259.48 392.44h3.4v35.14h-3.4v-35.14zM240.85 422.88h-19.97c-1.6 0-2.88-1.3-2.88-2.9v-19.97c0-1.6 1.3-2.88 2.88-2.88h19.97c1.6 0 2.88 1.3 2.88 2.9v19.97c0 1.6-1.28 2.88-2.88 2.88zm-19.45-3.4h18.94v-18.96H221.4z" stroke="#fff" stroke-opacity="0" fill="#d86613"/><path d="M219.6 394.04h3.4v4.8h-3.4v-4.8zM225.98 394.04h3.4v4.8H226v-4.8zM232.36 394.04h3.4v4.8h-3.4v-4.8zM238.75 394.04h3.4v4.8h-3.4v-4.8zM219.6 421.17h3.4v4.8h-3.4v-4.8zM225.98 421.17h3.4v4.8H226v-4.8zM232.36 421.17h3.4v4.8h-3.4v-4.8zM238.75 421.17h3.4v4.8h-3.4v-4.8z" stroke="#fff" stroke-opacity="0" fill="#d86613"/><path d="M214.92 398.72h4.78v3.4h-4.78v-3.4zM214.92 405.1h4.78v3.42h-4.78v-3.4zM214.92 411.5h4.78v3.4h-4.78v-3.4zM214.92 417.9h4.78v3.4h-4.78v-3.4zM242.03 398.72h4.8v3.4h-4.8v-3.4zM242.03 405.1h4.8v3.42h-4.8v-3.4zM242.03 411.5h4.8v3.4h-4.8v-3.4zM242.03 417.9h4.8v3.4h-4.8v-3.4z" stroke="#fff" stroke-opacity="0" fill="#d86613"/><use xlink:href="#e" transform="matrix(1,0,0,1,160.8666666666662,444.65000000000003) translate(25 17.77777777777778)"/><use xlink:href="#f" transform="matrix(1,0,0,1,160.8666666666662,444.65000000000003) translate(37.407407407407405 44.44444444444444)"/><path d="M409.2 430.85h-76.65c-.88 0-1.68-.75-1.68-1.7v-38.28c0-.96.8-1.7 1.68-1.7h76.64c.87 0 1.67.74 1.67 1.7v38.27c0 .96-.8 1.7-1.68 1.7zm-74.9-3.42h73.13v-34.86H334.3zM378 385.38c-.72-2.62-2.6-4.5-5.22-5.2-3.93-1.07-7.98 1.26-9.04 5.2l-3.3-.9c1.53-5.76 7.43-9.2 13.18-7.67 3.85 1.03 6.64 3.8 7.66 7.68z" stroke="#fff" stroke-opacity="0" fill="#d86613"/><path d="M383.68 381.9c-1.47-3.4-3.9-5.8-7.26-7.26-7.05-3.05-15.24.2-18.3 7.25l-3.12-1.35c3.73-8.8 13.9-12.9 22.7-9.17 4.3 1.83 7.35 4.86 9.17 9.17zM370.87 443.5c-4.96.02-9.15-3.17-10.42-7.97l3.3-.86c.7 2.6 2.57 4.5 5.2 5.2 3.94 1.07 7.98-1.26 9.04-5.2l3.28.86c-1.27 4.8-5.45 8-10.4 7.97z" stroke="#fff" stroke-opacity="0" fill="#d86613"/><path d="M370.86 450c-7.12 0-13.16-4-15.93-10.54l3.15-1.34c1.47 3.4 3.85 5.8 7.25 7.25 7.03 3.05 15.23-.2 18.25-7.25l3.15 1.34c-2.77 6.54-8.78 10.52-15.87 10.54zM346.13 415.6c0 2.2-1.78 3.97-3.98 3.97s-3.98-1.78-3.98-3.98 1.78-4 3.98-4 3.98 1.8 3.98 4z" stroke="#fff" stroke-opacity="0" fill="#d86613"/><path d="M340.45 418h3.4v11.15h-3.4V418zM348.55 401.27c0 2.2-1.78 4-3.98 4s-3.98-1.8-3.98-4 1.77-3.98 3.97-3.98 3.98 1.78 3.98 3.97z" stroke="#fff" stroke-opacity="0" fill="#d86613"/><path d="M356.62 429.15h-3.4V412.3l-9.1-9.06 2.42-2.4 10.08 10.04v18.27zM404.48 411.7H391.5v-12.96h12.98zm-9.58-3.4h6.18v-6.16h-6.18zM385.22 405.22c0 2.2-1.8 3.98-4 3.98s-3.97-1.78-3.97-3.98 1.78-3.98 3.98-3.98 4 1.78 4 3.98z" stroke="#fff" stroke-opacity="0" fill="#d86613"/><path d="M382.03 403.52h11.17v3.4h-11.17v-3.4zM379.63 419.6c0 2.18-1.78 3.97-3.98 3.97s-3.98-1.8-3.98-3.98c0-2.2 1.78-4 3.98-4s3.98 1.8 3.98 4z" stroke="#fff" stroke-opacity="0" fill="#d86613"/><path d="M378.85 417.88h30.3v3.4h-30.3v-3.4zM370.87 409.2c0 2.2-1.8 4-4 4-2.18 0-3.97-1.8-3.97-4s1.8-3.98 3.98-3.98c2.2 0 4 1.8 4 3.98z" stroke="#fff" stroke-opacity="0" fill="#d86613"/><path d="M364.9 409.65l-10.05-10.06-.05-8.72 3.4-.04.03 7.34 9.1 9.06-2.42 2.4z" stroke="#fff" stroke-opacity="0" fill="#d86613"/><path d="M370.7 422.34c8.25 0 14.95 5.85 14.95 13.07 0 7.23-6.7 13.08-14.96 13.08-8.27 0-14.98-5.85-14.98-13.07 0-7.2 6.7-13.06 14.97-13.06zM370.7 371.66c8.25 0 14.95 5.86 14.95 13.07 0 7.22-6.7 13.08-14.96 13.08-8.27 0-14.98-5.85-14.98-13.07 0-7.2 6.7-13.07 14.97-13.07z" stroke="#fff" stroke-opacity="0" stroke-width=".37" fill="#fff" fill-opacity="0"/><use xlink:href="#g" transform="matrix(1,0,0,1,300.8666666666662,459) translate(21.944444444444443 17.77777777777778)"/><path d="M103.52 370c-13.68 0-27.35 3.44-27.35 9.76v60.48c0 6.4 13.78 9.76 27.35 9.76 13.56 0 27.35-3.36 27.35-9.76v-60.48c0-6.4-13.68-9.76-27.35-9.76zm0 3.44c14.44 0 23.96 3.84 23.96 6.32 0 2.48-9.58 6.32-23.96 6.32-14.33 0-23.9-3.84-23.9-6.32 0-2.56 9.46-6.32 23.9-6.32zm0 73.12c-14.44 0-23.9-3.84-23.9-6.32v-15.2c4.92 3.2 14.5 4.8 23.9 4.8 9.46 0 19.03-1.68 23.96-4.8v15.2c0 2.48-9.52 6.32-23.96 6.32zm0-20.16c-14.44 0-23.9-3.76-23.9-6.32v-15.2c4.92 3.12 14.5 4.8 23.9 4.8 9.46 0 19.03-1.76 23.96-4.8v15.2c0 2.56-9.52 6.32-23.96 6.32zm0-20.16c-15.76 0-23.9-4.08-23.9-6.32v-15.2c4.92 3.2 14.5 4.8 23.9 4.8 9.46 0 19.03-1.6 23.96-4.8v15.2c0 2.24-8.2 6.32-23.96 6.32z" stroke="#fff" stroke-opacity="0" fill="#d86613"/><path d="M84.03 394.3h4.05v3.42h-4.05v-3.43zM84.03 414.45h4.05v3.43h-4.05v-3.43zM84.03 434.6h4.05v3.45h-4.05v-3.44zM90.05 394.3h7.14v3.42h-7.15v-3.43zM90.05 414.45h7.14v3.43h-7.15v-3.43zM90.05 434.6h7.14v3.45h-7.15v-3.44z" stroke="#fff" stroke-opacity="0" fill="#d86613"/><use xlink:href="#h" transform="matrix(1,0,0,1,46.166666666666316,459) translate(18.641975308641975 17.77777777777778)"/><path d="M189.87 410h-58" stroke="#d86613" stroke-width="2" stroke-linejoin="round" fill="none"/><path d="M190.87 411h-1.03v-2h1.03zM131.9 411h-1.03v-2h1.02z" stroke="#d86613" stroke-width=".05" fill="#d86613"/><path d="M508.67 436.9l-22.7-22.7-12.48 12.5-2.2-2.2 13.57-13.6c.63-.6 1.58-.6 2.22 0l23.74 23.83z" stroke="#fff" stroke-opacity="0" fill="#d86613"/><path d="M533.03 424.04l-17.56-17.56-17.17 17.22-2.2-2.17 18.3-18.33c.6-.6 1.57-.6 2.16 0l18.66 18.67zM497.34 408.36c-4 .02-7.22-3.22-7.23-7.2 0-4 3.23-7.24 7.2-7.26 4 0 7.23 3.23 7.25 7.22v.03c-.02 3.97-3.24 7.2-7.2 7.2zm0-11.35c-2.3 0-4.14 1.86-4.14 4.15 0 2.28 1.84 4.13 4.13 4.13 2.28 0 4.13-1.85 4.13-4.13 0-2.3-1.84-4.14-4.12-4.14z" stroke="#fff" stroke-opacity="0" fill="#d86613"/><path d="M533.6 442.17h-61.2c-.83 0-1.53-.7-1.53-1.54v-61.26c0-.84.7-1.54 1.54-1.54h61.2c.83 0 1.54.7 1.54 1.54v61.26c0 .84-.7 1.54-1.54 1.54zm-59.65-3.08h58.1v-58.2h-58.1z" stroke="#fff" stroke-opacity="0" fill="#d86613"/><use xlink:href="#i" transform="matrix(1,0,0,1,440.86666666666605,451.17499999999995) translate(10.185185185185176 17.77777777777778)"/><path d="M230.87 383.35V356a6 6 0 0 1 6-6h128a6 6 0 0 1 6 6v13.1" stroke="#d86613" stroke-width="2" fill="none"/><path d="M231.87 384.35h-2v-1.03h2zM371.87 370.13l-2-.1v-.97h2z" stroke="#d86613" stroke-width=".05" fill="#d86613"/><path d="M503.04 376.83V356a6 6 0 0 0-6-6H236.87a6 6 0 0 0-6 6v27.35" stroke="#d86613" stroke-width="2" fill="none"/><path d="M504.04 377.82h-2v-1.02h2zM231.87 384.35h-2v-1.03h2z" stroke="#d86613" stroke-width=".05" fill="#d86613"/><path d="M42 46a6 6 0 0 1 6-6h536.87a6 6 0 0 1 6 6v448a6 6 0 0 1-6 6H48a6 6 0 0 1-6-6z" stroke="#d86613" stroke-width="2" fill="#fff" fill-opacity="0"/><path d="M42 40h56v56H42V40z" stroke="#fff" stroke-opacity="0" fill="#d86613"/><path d="M89.2 58.75v-1.58h-3.76v-4.6h-4.8V48.8h-1.62v3.76h-3.4V48.8h-1.63v3.76h-3.4V48.8H69v3.76h-3.42V48.8h-1.6v3.76h-3.43V48.8h-1.57v3.76h-4.42v4.57H50.8v1.62h3.76v3.4H50.8v1.63h3.76v3.4H50.8v1.63h3.76v3.42H50.8v1.62h3.76v3.4H50.8v1.63h3.76v4.57h4.42v3.76h1.57v-3.76h3.42v3.76h1.6v-3.76H69v3.76h1.6v-3.76H74v3.76h1.6v-3.76h3.42v3.76h1.62v-3.76h4.8v-4.57h3.76v-1.62h-3.76v-3.4h3.76V72.2h-3.76v-3.4h3.76v-1.63h-3.76v-3.42h3.76v-1.62h-3.76v-3.4zm-5.38 23.07H56.18V54.18h27.64z" stroke="#fff" stroke-opacity="0" fill="#fff"/><use xlink:href="#j" transform="matrix(1,0,0,1,112.99999999999983,60) translate(0 14.4)"/><use xlink:href="#k" transform="matrix(1,0,0,1,112.99999999999983,60) translate(65.25 14.4)"/><path d="M161.73 281v12.77a6 6 0 0 0 6 6h142.7a6 6 0 0 1 6 6v12.77" stroke="#d86613" stroke-width="2" fill="none"/><path d="M162.73 281.03h-2V280h2zM317.43 319.54h-2v-1.03h2z" stroke="#d86613" stroke-width=".05" fill="#d86613"/><path d="M316.43 281v68" stroke="#d86613" stroke-width="2" fill="none"/><path d="M317.43 281.03h-2V280h2z" stroke="#d86613" stroke-width=".05" fill="#d86613"/><path d="M316.43 348.97V350M477.73 281v12.77a6 6 0 0 1-6 6h-149.3a6 6 0 0 0-6 6v12.77" stroke="#d86613" stroke-width="2" fill="none"/><path d="M478.73 281.03h-2V280h2zM317.43 319.54h-2v-1.03h2z" stroke="#d86613" stroke-width=".05" fill="#d86613"/><path d="M347.4 280h-46.08c-.94 0-1.68-.78-1.68-1.68V217c0-.9.74-1.68 1.68-1.68h46.08c.94 0 1.68.78 1.68 1.68v61.32c0 .9-.74 1.68-1.68 1.68zm-44.35-3.43h42.62v-57.82h-42.62z" stroke="#fff" stroke-opacity="0" fill="#d86613"/><path d="M315.4 234.04h-7.68c-.94 0-1.7-.76-1.7-1.7v-7.66c0-.94.76-1.7 1.7-1.7h7.67c.93 0 1.7.76 1.7 1.7v7.66c0 .94-.77 1.7-1.7 1.7zm-5.97-3.4h4.25v-4.25h-4.25zM315.4 251.9h-7.68c-.94 0-1.7-.75-1.7-1.7v-7.65c0-.94.76-1.7 1.7-1.7h7.67c.93 0 1.7.76 1.7 1.7v7.66c0 .95-.77 1.7-1.7 1.7zm-5.97-3.4h4.25v-4.24h-4.25zM315.4 269.8h-7.68c-.94 0-1.7-.76-1.7-1.7v-7.67c0-.94.76-1.7 1.7-1.7h7.67c.93 0 1.7.76 1.7 1.7v7.67c0 .94-.77 1.7-1.7 1.7zm-5.97-3.4h4.25v-4.27h-4.25zM319.25 226.8h23.03v3.4h-23.03v-3.4zM319.25 244.66h23.03v3.4h-23.03v-3.4zM319.25 262.55h23.03v3.4h-23.03v-3.4z" stroke="#fff" stroke-opacity="0" fill="#d86613"/><path d="M301.36 272.34h-7.7c-.95 0-1.7-.78-1.7-1.68v-61.32c0-.9.75-1.68 1.7-1.68h46.07c.94 0 1.68.78 1.68 1.68v7.7H338v-5.95h-42.62v57.8h5.98z" stroke="#fff" stroke-opacity="0" fill="#d86613"/><path d="M293.18 264.7h-7.72c-.94 0-1.68-.78-1.68-1.68v-61.34c0-.9.74-1.68 1.68-1.68h46.1c.93 0 1.67.78 1.67 1.68v7.7h-3.4v-5.95h-42.64v57.84h5.98z" stroke="#fff" stroke-opacity="0" fill="#d86613"/><path d="M301.36 272.34h-7.7c-.95 0-1.7-.78-1.7-1.68v-61.32c0-.9.75-1.68 1.7-1.68h46.07c.94 0 1.68.78 1.68 1.68v63z" stroke="#fff" stroke-opacity="0" fill="#fff" fill-opacity="0"/><path d="M293.18 264.7h-7.72c-.94 0-1.68-.78-1.68-1.68v-61.34c0-.9.74-1.68 1.68-1.68h46.1c.93 0 1.67.78 1.67 1.68v63.02z" stroke="#fff" stroke-opacity="0" fill="#fff" fill-opacity="0"/><path d="M238.43 166a6 6 0 0 1 6-6h148a6 6 0 0 1 6 6v28a6 6 0 0 1-6 6h-148a6 6 0 0 1-6-6z" stroke="#000" stroke-opacity="0" fill="#fff" fill-opacity="0"/><use xlink:href="#l" transform="matrix(1,0,0,1,243.4333333333327,165) translate(49.72222222222223 19.65277777777778)"/><path d="M189.03 277.6H134.5c-5.63.08-10.3-4.5-10.37-10.23v-54.59c-.07-5.64 4.52-10.3 10.23-10.38h54.75c5.72.07 10.3 4.74 10.23 10.38v54.6c-.07 5.63-4.66 10.22-10.3 10.22zm-54.52-71.97h-.06c-4 0-7.15 3.24-7.07 7.15v54.6c0 3.9 3.23 7.06 7.14 7h54.6c3.92 0 7.08-3.17 7.15-7.08v-54.52-.08c-.07-3.98-3.3-7.14-7.22-7.07z" stroke="#fff" stroke-opacity="0" fill="#008573"/><path d="M188.74 235.6h-54c-.87 0-1.6-.72-1.6-1.6v-18c0-.88.73-1.6 1.6-1.6h54c.86 0 1.6.72 1.6 1.6v18c0 .88-.74 1.6-1.6 1.6zm-52.4-3.2h50.8v-14.8h-50.8zM188.74 267.1h-54c-.87 0-1.6-.72-1.6-1.6V243c0-.87.73-1.6 1.6-1.6h54c.86 0 1.6.73 1.6 1.6v22.5c0 .88-.74 1.6-1.6 1.6zm-52.4-3.2h50.8V244.6h-50.8z" stroke="#fff" stroke-opacity="0" fill="#008573"/><path d="M151.14 216h3.2v18h-3.2v-18zM169.14 216h3.2v18h-3.2v-18zM151.14 243h3.2v22.5h-3.2V243zM169.14 243h3.2v22.5h-3.2V243z" stroke="#fff" stroke-opacity="0" fill="#008573"/><path d="M121.73 200h80v80h-80v-80z" stroke="#fff" stroke-opacity="0" fill="#fff" fill-opacity="0"/><path d="M82 146a6 6 0 0 1 6-6h148a6 6 0 0 1 6 6v51.33a6 6 0 0 1-6 6H88a6 6 0 0 1-6-6z" stroke="#000" stroke-opacity="0" fill="#fff" fill-opacity="0"/><use xlink:href="#m" transform="matrix(1,0,0,1,86.99999999999989,144.99999999999997) translate(8.456790123456798 17.77777777777778)"/><use xlink:href="#n" transform="matrix(1,0,0,1,86.99999999999989,144.99999999999997) translate(61.41975308641976 17.77777777777778)"/><use xlink:href="#o" transform="matrix(1,0,0,1,86.99999999999989,144.99999999999997) translate(129.19753086419752 17.77777777777778)"/><use xlink:href="#p" transform="matrix(1,0,0,1,86.99999999999989,144.99999999999997) translate(12.746913580246904 44.44444444444444)"/><path d="M505.03 277.6H450.5c-5.63.08-10.3-4.5-10.37-10.23v-54.59c-.07-5.64 4.52-10.3 10.23-10.38h54.75c5.72.07 10.3 4.74 10.23 10.38v54.6c-.07 5.63-4.66 10.22-10.3 10.22zm-54.52-71.97h-.06c-4 0-7.15 3.24-7.07 7.15v54.6c0 3.9 3.23 7.06 7.14 7h54.6c3.92 0 7.08-3.17 7.15-7.08v-54.52-.08c-.07-3.98-3.3-7.14-7.22-7.07z" stroke="#fff" stroke-opacity="0" fill="#ba23f6"/><path d="M504.74 235.6h-54c-.87 0-1.6-.72-1.6-1.6v-18c0-.88.73-1.6 1.6-1.6h54c.86 0 1.6.72 1.6 1.6v18c0 .88-.74 1.6-1.6 1.6zm-52.4-3.2h50.8v-14.8h-50.8zM504.74 267.1h-54c-.87 0-1.6-.72-1.6-1.6V243c0-.87.73-1.6 1.6-1.6h54c.86 0 1.6.73 1.6 1.6v22.5c0 .88-.74 1.6-1.6 1.6zm-52.4-3.2h50.8V244.6h-50.8z" stroke="#fff" stroke-opacity="0" fill="#ba23f6"/><path d="M467.14 216h3.2v18h-3.2v-18zM485.14 216h3.2v18h-3.2v-18zM467.14 243h3.2v22.5h-3.2V243zM485.14 243h3.2v22.5h-3.2V243z" stroke="#fff" stroke-opacity="0" fill="#ba23f6"/><path d="M437.73 200h80v80h-80v-80z" stroke="#fff" stroke-opacity="0" fill="#fff" fill-opacity="0"/><path d="M401.73 146a6 6 0 0 1 6-6h148a6 6 0 0 1 6 6v51.33a6 6 0 0 1-6 6h-148a6 6 0 0 1-6-6z" stroke="#000" stroke-opacity="0" fill="#fff" fill-opacity="0"/><g><use xlink:href="#m" transform="matrix(1,0,0,1,406.7333333333331,144.99999999999997) translate(8.456790123456798 17.77777777777778)"/><use xlink:href="#n" transform="matrix(1,0,0,1,406.7333333333331,144.99999999999997) translate(61.41975308641976 17.77777777777778)"/><use xlink:href="#q" transform="matrix(1,0,0,1,406.7333333333331,144.99999999999997) translate(129.19753086419752 17.77777777777778)"/><use xlink:href="#r" transform="matrix(1,0,0,1,406.7333333333331,144.99999999999997) translate(5.987654320987659 44.44444444444444)"/></g><defs><path fill="#d86613" d="M194 0L95-120 63-95V0H30v-248h33v124l119-124h40L117-140 236 0h-42" id="s"/><path fill="#d86613" d="M84 4C-5 8 30-112 23-190h32v120c0 31 7 50 39 49 72-2 45-101 50-169h31l1 190h-30c-1-10 1-25-2-33-11 22-28 36-60 37" id="t"/><path fill="#d86613" d="M115-194c53 0 69 39 70 98 0 66-23 100-70 100C84 3 66-7 56-30L54 0H23l1-261h32v101c10-23 28-34 59-34zm-8 174c40 0 45-34 45-75 0-40-5-75-45-74-42 0-51 32-51 76 0 43 10 73 51 73" id="u"/><path fill="#d86613" d="M100-194c63 0 86 42 84 106H49c0 40 14 67 53 68 26 1 43-12 49-29l28 8c-11 28-37 45-77 45C44 4 14-33 15-96c1-61 26-98 85-98zm52 81c6-60-76-77-97-28-3 7-6 17-6 28h103" id="v"/><path fill="#d86613" d="M114-163C36-179 61-72 57 0H25l-1-190h30c1 12-1 29 2 39 6-27 23-49 58-41v29" id="w"/><path fill="#d86613" d="M117-194c89-4 53 116 60 194h-32v-121c0-31-8-49-39-48C34-167 62-67 57 0H25l-1-190h30c1 10-1 24 2 32 11-22 29-35 61-36" id="x"/><path fill="#d86613" d="M59-47c-2 24 18 29 38 22v24C64 9 27 4 27-40v-127H5v-23h24l9-43h21v43h35v23H59v120" id="y"/><path fill="#d86613" d="M135-143c-3-34-86-38-87 0 15 53 115 12 119 90S17 21 10-45l28-5c4 36 97 45 98 0-10-56-113-15-118-90-4-57 82-63 122-42 12 7 21 19 24 35" id="z"/><g id="b"><use transform="matrix(0.05,0,0,0.05,0,0)" xlink:href="#s"/><use transform="matrix(0.05,0,0,0.05,12,0)" xlink:href="#t"/><use transform="matrix(0.05,0,0,0.05,22,0)" xlink:href="#u"/><use transform="matrix(0.05,0,0,0.05,32,0)" xlink:href="#v"/><use transform="matrix(0.05,0,0,0.05,42,0)" xlink:href="#w"/><use transform="matrix(0.05,0,0,0.05,47.95,0)" xlink:href="#x"/><use transform="matrix(0.05,0,0,0.05,57.95,0)" xlink:href="#v"/><use transform="matrix(0.05,0,0,0.05,67.95,0)" xlink:href="#y"/><use transform="matrix(0.05,0,0,0.05,72.95,0)" xlink:href="#v"/><use transform="matrix(0.05,0,0,0.05,82.95,0)" xlink:href="#z"/></g><path fill="#d86613" d="M87 75C49 33 22-17 22-94c0-76 28-126 65-167h31c-38 41-64 92-64 168S80 34 118 75H87" id="A"/><path fill="#d86613" d="M143 0L79-87 56-68V0H24v-261h32v163l83-92h37l-77 82L181 0h-38" id="B"/><path fill="#d86613" d="M126-127c33 6 58 20 58 59 0 88-139 92-164 29-3-8-5-16-6-25l32-3c6 27 21 44 54 44 32 0 52-15 52-46 0-38-36-46-79-43v-28c39 1 72-4 72-42 0-27-17-43-46-43-28 0-47 15-49 41l-32-3c6-42 35-63 81-64 48-1 79 21 79 65 0 36-21 52-52 59" id="C"/><path fill="#d86613" d="M33-261c38 41 65 92 65 168S71 34 33 75H2C39 34 66-17 66-93S39-220 2-261h31" id="D"/><g id="c"><use transform="matrix(0.05,0,0,0.05,0,0)" xlink:href="#A"/><use transform="matrix(0.05,0,0,0.05,5.95,0)" xlink:href="#B"/><use transform="matrix(0.05,0,0,0.05,14.949999999999998,0)" xlink:href="#C"/><use transform="matrix(0.05,0,0,0.05,24.95,0)" xlink:href="#z"/><use transform="matrix(0.05,0,0,0.05,33.95,0)" xlink:href="#D"/></g><path fill="#d86613" d="M197 0v-115H63V0H30v-248h33v105h134v-105h34V0h-34" id="E"/><path fill="#d86613" d="M141-36C126-15 110 5 73 4 37 3 15-17 15-53c-1-64 63-63 125-63 3-35-9-54-41-54-24 1-41 7-42 31l-33-3c5-37 33-52 76-52 45 0 72 20 72 64v82c-1 20 7 32 28 27v20c-31 9-61-2-59-35zM48-53c0 20 12 33 32 33 41-3 63-29 60-74-43 2-92-5-92 41" id="F"/><path fill="#d86613" d="M85-194c31 0 48 13 60 33l-1-100h32l1 261h-30c-2-10 0-23-3-31C134-8 116 4 85 4 32 4 16-35 15-94c0-66 23-100 70-100zm9 24c-40 0-46 34-46 75 0 40 6 74 45 74 42 0 51-32 51-76 0-42-9-74-50-73" id="G"/><path fill="#d86613" d="M206 0h-36l-40-164L89 0H53L-1-190h32L70-26l43-164h34l41 164 42-164h31" id="H"/><g id="d"><use transform="matrix(0.05,0,0,0.05,0,0)" xlink:href="#E"/><use transform="matrix(0.05,0,0,0.05,12.950000000000001,0)" xlink:href="#F"/><use transform="matrix(0.05,0,0,0.05,22.950000000000003,0)" xlink:href="#w"/><use transform="matrix(0.05,0,0,0.05,28.900000000000002,0)" xlink:href="#G"/><use transform="matrix(0.05,0,0,0.05,38.900000000000006,0)" xlink:href="#H"/><use transform="matrix(0.05,0,0,0.05,51.85,0)" xlink:href="#F"/><use transform="matrix(0.05,0,0,0.05,61.85,0)" xlink:href="#w"/><use transform="matrix(0.05,0,0,0.05,67.80000000000001,0)" xlink:href="#v"/></g><path fill="#3a414a" d="M212-179c-10-28-35-45-73-45-59 0-87 40-87 99 0 60 29 101 89 101 43 0 62-24 78-52l27 14C228-24 195 4 139 4 59 4 22-46 18-125c-6-104 99-153 187-111 19 9 31 26 39 46" id="I"/><path fill="#3a414a" d="M100-194c62-1 85 37 85 99 1 63-27 99-86 99S16-35 15-95c0-66 28-99 85-99zM99-20c44 1 53-31 53-75 0-43-8-75-51-75s-53 32-53 75 10 74 51 75" id="J"/><path fill="#3a414a" d="M210-169c-67 3-38 105-44 169h-31v-121c0-29-5-50-35-48C34-165 62-65 56 0H25l-1-190h30c1 10-1 24 2 32 10-44 99-50 107 0 11-21 27-35 58-36 85-2 47 119 55 194h-31v-121c0-29-5-49-35-48" id="K"/><path fill="#3a414a" d="M115-194c55 1 70 41 70 98S169 2 115 4C84 4 66-9 55-30l1 105H24l-1-265h31l2 30c10-21 28-34 59-34zm-8 174c40 0 45-34 45-75s-6-73-45-74c-42 0-51 32-51 76 0 43 10 73 51 73" id="L"/><path fill="#3a414a" d="M84 4C-5 8 30-112 23-190h32v120c0 31 7 50 39 49 72-2 45-101 50-169h31l1 190h-30c-1-10 1-25-2-33-11 22-28 36-60 37" id="M"/><path fill="#3a414a" d="M59-47c-2 24 18 29 38 22v24C64 9 27 4 27-40v-127H5v-23h24l9-43h21v43h35v23H59v120" id="N"/><path fill="#3a414a" d="M100-194c63 0 86 42 84 106H49c0 40 14 67 53 68 26 1 43-12 49-29l28 8c-11 28-37 45-77 45C44 4 14-33 15-96c1-61 26-98 85-98zm52 81c6-60-76-77-97-28-3 7-6 17-6 28h103" id="O"/><g id="e"><use transform="matrix(0.06172839506172839,0,0,0.06172839506172839,0,0)" xlink:href="#I"/><use transform="matrix(0.06172839506172839,0,0,0.06172839506172839,15.987654320987653,0)" xlink:href="#J"/><use transform="matrix(0.06172839506172839,0,0,0.06172839506172839,28.333333333333332,0)" xlink:href="#K"/><use transform="matrix(0.06172839506172839,0,0,0.06172839506172839,46.79012345679012,0)" xlink:href="#L"/><use transform="matrix(0.06172839506172839,0,0,0.06172839506172839,59.1358024691358,0)" xlink:href="#M"/><use transform="matrix(0.06172839506172839,0,0,0.06172839506172839,71.48148148148148,0)" xlink:href="#N"/><use transform="matrix(0.06172839506172839,0,0,0.06172839506172839,77.65432098765432,0)" xlink:href="#O"/></g><path fill="#3a414a" d="M232-93c-1 65-40 97-104 97C67 4 28-28 28-90v-158h33c8 89-33 224 67 224 102 0 64-133 71-224h33v155" id="P"/><path fill="#3a414a" d="M117-194c89-4 53 116 60 194h-32v-121c0-31-8-49-39-48C34-167 62-67 57 0H25l-1-190h30c1 10-1 24 2 32 11-22 29-35 61-36" id="Q"/><path fill="#3a414a" d="M24-231v-30h32v30H24zM24 0v-190h32V0H24" id="R"/><path fill="#3a414a" d="M87 75C49 33 22-17 22-94c0-76 28-126 65-167h31c-38 41-64 92-64 168S80 34 118 75H87" id="S"/><path fill="#3a414a" d="M135-143c-3-34-86-38-87 0 15 53 115 12 119 90S17 21 10-45l28-5c4 36 97 45 98 0-10-56-113-15-118-90-4-57 82-63 122-42 12 7 21 19 24 35" id="T"/><path fill="#3a414a" d="M33-261c38 41 65 92 65 168S71 34 33 75H2C39 34 66-17 66-93S39-220 2-261h31" id="U"/><g id="f"><use transform="matrix(0.06172839506172839,0,0,0.06172839506172839,0,0)" xlink:href="#P"/><use transform="matrix(0.06172839506172839,0,0,0.06172839506172839,15.987654320987653,0)" xlink:href="#Q"/><use transform="matrix(0.06172839506172839,0,0,0.06172839506172839,28.333333333333332,0)" xlink:href="#R"/><use transform="matrix(0.06172839506172839,0,0,0.06172839506172839,33.20987654320987,0)" xlink:href="#N"/><use transform="matrix(0.06172839506172839,0,0,0.06172839506172839,39.382716049382715,0)" xlink:href="#S"/><use transform="matrix(0.06172839506172839,0,0,0.06172839506172839,46.72839506172839,0)" xlink:href="#T"/><use transform="matrix(0.06172839506172839,0,0,0.06172839506172839,57.839506172839506,0)" xlink:href="#U"/></g><path fill="#3a414a" d="M185-189c-5-48-123-54-124 2 14 75 158 14 163 119 3 78-121 87-175 55-17-10-28-26-33-46l33-7c5 56 141 63 141-1 0-78-155-14-162-118-5-82 145-84 179-34 5 7 8 16 11 25" id="V"/><path fill="#3a414a" d="M114-163C36-179 61-72 57 0H25l-1-190h30c1 12-1 29 2 39 6-27 23-49 58-41v29" id="W"/><g id="g"><use transform="matrix(0.06172839506172839,0,0,0.06172839506172839,0,0)" xlink:href="#V"/><use transform="matrix(0.06172839506172839,0,0,0.06172839506172839,14.814814814814813,0)" xlink:href="#O"/><use transform="matrix(0.06172839506172839,0,0,0.06172839506172839,27.160493827160494,0)" xlink:href="#Q"/><use transform="matrix(0.06172839506172839,0,0,0.06172839506172839,39.50617283950617,0)" xlink:href="#T"/><use transform="matrix(0.06172839506172839,0,0,0.06172839506172839,50.61728395061728,0)" xlink:href="#J"/><use transform="matrix(0.06172839506172839,0,0,0.06172839506172839,62.962962962962955,0)" xlink:href="#W"/><use transform="matrix(0.06172839506172839,0,0,0.06172839506172839,70.30864197530863,0)" xlink:href="#S"/><use transform="matrix(0.06172839506172839,0,0,0.06172839506172839,77.65432098765432,0)" xlink:href="#T"/><use transform="matrix(0.06172839506172839,0,0,0.06172839506172839,88.76543209876543,0)" xlink:href="#U"/></g><path fill="#3a414a" d="M141-36C126-15 110 5 73 4 37 3 15-17 15-53c-1-64 63-63 125-63 3-35-9-54-41-54-24 1-41 7-42 31l-33-3c5-37 33-52 76-52 45 0 72 20 72 64v82c-1 20 7 32 28 27v20c-31 9-61-2-59-35zM48-53c0 20 12 33 32 33 41-3 63-29 60-74-43 2-92-5-92 41" id="X"/><path fill="#3a414a" d="M177-190C167-65 218 103 67 71c-23-6-38-20-44-43l32-5c15 47 100 32 89-28v-30C133-14 115 1 83 1 29 1 15-40 15-95c0-56 16-97 71-98 29-1 48 16 59 35 1-10 0-23 2-32h30zM94-22c36 0 50-32 50-73 0-42-14-75-50-75-39 0-46 34-46 75s6 73 46 73" id="Y"/><g id="h"><use transform="matrix(0.06172839506172839,0,0,0.06172839506172839,0,0)" xlink:href="#V"/><use transform="matrix(0.06172839506172839,0,0,0.06172839506172839,14.814814814814813,0)" xlink:href="#N"/><use transform="matrix(0.06172839506172839,0,0,0.06172839506172839,20.98765432098765,0)" xlink:href="#J"/><use transform="matrix(0.06172839506172839,0,0,0.06172839506172839,33.33333333333333,0)" xlink:href="#W"/><use transform="matrix(0.06172839506172839,0,0,0.06172839506172839,40.679012345679006,0)" xlink:href="#X"/><use transform="matrix(0.06172839506172839,0,0,0.06172839506172839,53.02469135802468,0)" xlink:href="#Y"/><use transform="matrix(0.06172839506172839,0,0,0.06172839506172839,65.37037037037037,0)" xlink:href="#O"/></g><g id="i"><use transform="matrix(0.06172839506172839,0,0,0.06172839506172839,0,0)" xlink:href="#I"/><use transform="matrix(0.06172839506172839,0,0,0.06172839506172839,15.987654320987653,0)" xlink:href="#X"/><use transform="matrix(0.06172839506172839,0,0,0.06172839506172839,28.333333333333332,0)" xlink:href="#K"/><use transform="matrix(0.06172839506172839,0,0,0.06172839506172839,46.79012345679012,0)" xlink:href="#O"/><use transform="matrix(0.06172839506172839,0,0,0.06172839506172839,59.1358024691358,0)" xlink:href="#W"/><use transform="matrix(0.06172839506172839,0,0,0.06172839506172839,66.48148148148148,0)" xlink:href="#X"/><use transform="matrix(0.06172839506172839,0,0,0.06172839506172839,78.82716049382717,0)" xlink:href="#S"/><use transform="matrix(0.06172839506172839,0,0,0.06172839506172839,86.17283950617285,0)" xlink:href="#T"/><use transform="matrix(0.06172839506172839,0,0,0.06172839506172839,97.28395061728396,0)" xlink:href="#U"/></g><path fill="#d86613" d="M266 0h-40l-56-210L115 0H75L2-248h35L96-30l15-64 43-154h32l59 218 59-218h35" id="Z"/><path fill="#d86613" d="M177-190C167-65 218 103 67 71c-23-6-38-20-44-43l32-5c15 47 100 32 89-28v-30C133-14 115 1 83 1 29 1 15-40 15-95c0-56 16-97 71-98 29-1 48 16 59 35 1-10 0-23 2-32h30zM94-22c36 0 50-32 50-73 0-42-14-75-50-75-39 0-46 34-46 75s6 73 46 73" id="aa"/><path fill="#d86613" d="M24 0v-261h32V0H24" id="ab"/><g id="j"><use transform="matrix(0.05,0,0,0.05,0,0)" xlink:href="#Z"/><use transform="matrix(0.05,0,0,0.05,16.3,0)" xlink:href="#F"/><use transform="matrix(0.05,0,0,0.05,26.3,0)" xlink:href="#aa"/><use transform="matrix(0.05,0,0,0.05,36.3,0)" xlink:href="#aa"/><use transform="matrix(0.05,0,0,0.05,46.3,0)" xlink:href="#ab"/><use transform="matrix(0.05,0,0,0.05,50.25,0)" xlink:href="#v"/></g><path fill="#d86613" d="M190 0L58-211 59 0H30v-248h39L202-35l-2-213h31V0h-41" id="ac"/><path fill="#d86613" d="M100-194c62-1 85 37 85 99 1 63-27 99-86 99S16-35 15-95c0-66 28-99 85-99zM99-20c44 1 53-31 53-75 0-43-8-75-51-75s-53 32-53 75 10 74 51 75" id="ad"/><g id="k"><use transform="matrix(0.05,0,0,0.05,0,0)" xlink:href="#ac"/><use transform="matrix(0.05,0,0,0.05,12.950000000000001,0)" xlink:href="#ad"/><use transform="matrix(0.05,0,0,0.05,22.950000000000003,0)" xlink:href="#G"/><use transform="matrix(0.05,0,0,0.05,32.95,0)" xlink:href="#v"/></g><path fill="#3a414a" d="M266 0h-40l-56-210L115 0H75L2-248h35L96-30l15-64 43-154h32l59 218 59-218h35" id="ae"/><path fill="#3a414a" d="M30 0v-248h187v28H63v79h144v27H63v87h162V0H30" id="af"/><g id="l"><use transform="matrix(0.06172839506172839,0,0,0.06172839506172839,0,0)" xlink:href="#ae"/><use transform="matrix(0.06172839506172839,0,0,0.06172839506172839,20.925925925925924,0)" xlink:href="#af"/><use transform="matrix(0.06172839506172839,0,0,0.06172839506172839,35.74074074074073,0)" xlink:href="#V"/></g><g id="m"><use transform="matrix(0.06172839506172839,0,0,0.06172839506172839,0,0)" xlink:href="#P"/><use transform="matrix(0.06172839506172839,0,0,0.06172839506172839,15.987654320987653,0)" xlink:href="#T"/><use transform="matrix(0.06172839506172839,0,0,0.06172839506172839,27.098765432098766,0)" xlink:href="#O"/><use transform="matrix(0.06172839506172839,0,0,0.06172839506172839,39.44444444444444,0)" xlink:href="#W"/></g><path fill="#3a414a" d="M30-248c87 1 191-15 191 75 0 78-77 80-158 76V0H30v-248zm33 125c57 0 124 11 124-50 0-59-68-47-124-48v98" id="ag"/><path fill="#3a414a" d="M24 0v-261h32V0H24" id="ah"/><g id="n"><use transform="matrix(0.06172839506172839,0,0,0.06172839506172839,0,0)" xlink:href="#ag"/><use transform="matrix(0.06172839506172839,0,0,0.06172839506172839,14.814814814814813,0)" xlink:href="#ah"/><use transform="matrix(0.06172839506172839,0,0,0.06172839506172839,19.691358024691354,0)" xlink:href="#M"/><use transform="matrix(0.06172839506172839,0,0,0.06172839506172839,32.03703703703703,0)" xlink:href="#Y"/><use transform="matrix(0.06172839506172839,0,0,0.06172839506172839,44.38271604938271,0)" xlink:href="#R"/><use transform="matrix(0.06172839506172839,0,0,0.06172839506172839,49.25925925925925,0)" xlink:href="#Q"/></g><path fill="#3a414a" d="M27 0v-27h64v-190l-56 39v-29l58-41h29v221h61V0H27" id="ai"/><use transform="matrix(0.06172839506172839,0,0,0.06172839506172839,0,0)" xlink:href="#ai" id="o"/><path fill="#3a414a" d="M16-82v-28h88v28H16" id="aj"/><path fill="#3a414a" d="M143 0L79-87 56-68V0H24v-261h32v163l83-92h37l-77 82L181 0h-38" id="ak"/><path fill="#3a414a" d="M101-234c-31-9-42 10-38 44h38v23H63V0H32v-167H5v-23h27c-7-52 17-82 69-68v24" id="al"/><g id="p"><use transform="matrix(0.06172839506172839,0,0,0.06172839506172839,0,0)" xlink:href="#S"/><use transform="matrix(0.06172839506172839,0,0,0.06172839506172839,7.345679012345679,0)" xlink:href="#Q"/><use transform="matrix(0.06172839506172839,0,0,0.06172839506172839,19.691358024691358,0)" xlink:href="#O"/><use transform="matrix(0.06172839506172839,0,0,0.06172839506172839,32.03703703703704,0)" xlink:href="#J"/><use transform="matrix(0.06172839506172839,0,0,0.06172839506172839,44.382716049382715,0)" xlink:href="#Q"/><use transform="matrix(0.06172839506172839,0,0,0.06172839506172839,56.72839506172839,0)" xlink:href="#aj"/><use transform="matrix(0.06172839506172839,0,0,0.06172839506172839,64.07407407407408,0)" xlink:href="#ak"/><use transform="matrix(0.06172839506172839,0,0,0.06172839506172839,75.18518518518519,0)" xlink:href="#X"/><use transform="matrix(0.06172839506172839,0,0,0.06172839506172839,87.53086419753087,0)" xlink:href="#al"/><use transform="matrix(0.06172839506172839,0,0,0.06172839506172839,93.70370370370371,0)" xlink:href="#ak"/><use transform="matrix(0.06172839506172839,0,0,0.06172839506172839,104.81481481481482,0)" xlink:href="#X"/><use transform="matrix(0.06172839506172839,0,0,0.06172839506172839,117.16049382716051,0)" xlink:href="#U"/></g><path fill="#3a414a" d="M101-251c82-7 93 87 43 132L82-64C71-53 59-42 53-27h129V0H18c2-99 128-94 128-182 0-28-16-43-45-43s-46 15-49 41l-32-3c6-41 34-60 81-64" id="am"/><use transform="matrix(0.06172839506172839,0,0,0.06172839506172839,0,0)" xlink:href="#am" id="q"/><path fill="#3a414a" d="M85-194c31 0 48 13 60 33l-1-100h32l1 261h-30c-2-10 0-23-3-31C134-8 116 4 85 4 32 4 16-35 15-94c0-66 23-100 70-100zm9 24c-40 0-46 34-46 75 0 40 6 74 45 74 42 0 51-32 51-76 0-42-9-74-50-73" id="an"/><path fill="#3a414a" d="M106-169C34-169 62-67 57 0H25v-261h32l-1 103c12-21 28-36 61-36 89 0 53 116 60 194h-32v-121c2-32-8-49-39-48" id="ao"/><g id="r"><use transform="matrix(0.06172839506172839,0,0,0.06172839506172839,0,0)" xlink:href="#S"/><use transform="matrix(0.06172839506172839,0,0,0.06172839506172839,7.345679012345679,0)" xlink:href="#an"/><use transform="matrix(0.06172839506172839,0,0,0.06172839506172839,19.691358024691358,0)" xlink:href="#X"/><use transform="matrix(0.06172839506172839,0,0,0.06172839506172839,32.03703703703704,0)" xlink:href="#N"/><use transform="matrix(0.06172839506172839,0,0,0.06172839506172839,38.20987654320988,0)" xlink:href="#X"/><use transform="matrix(0.06172839506172839,0,0,0.06172839506172839,50.55555555555556,0)" xlink:href="#aj"/><use transform="matrix(0.06172839506172839,0,0,0.06172839506172839,57.901234567901234,0)" xlink:href="#T"/><use transform="matrix(0.06172839506172839,0,0,0.06172839506172839,69.01234567901234,0)" xlink:href="#K"/><use transform="matrix(0.06172839506172839,0,0,0.06172839506172839,87.46913580246913,0)" xlink:href="#J"/><use transform="matrix(0.06172839506172839,0,0,0.06172839506172839,99.81481481481481,0)" xlink:href="#J"/><use transform="matrix(0.06172839506172839,0,0,0.06172839506172839,112.1604938271605,0)" xlink:href="#N"/><use transform="matrix(0.06172839506172839,0,0,0.06172839506172839,118.33333333333333,0)" xlink:href="#ao"/><use transform="matrix(0.06172839506172839,0,0,0.06172839506172839,130.679012345679,0)" xlink:href="#U"/></g></defs></g></svg>