<svg xmlns="http://www.w3.org/2000/svg" xmlns:xlink="http://www.w3.org/1999/xlink" xmlns:lucid="lucid" width="600" height="210"><g transform="translate(-560 -360)" lucid:page-tab-id="VD02umr5l-Hr"><path d="M820 406c0-3.3 2.7-6 6-6h88c3.3 0 6 2.7 6 6v88c0 3.3-2.7 6-6 6h-88c-3.3 0-6-2.7-6-6z" stroke="#5e5e5e" stroke-width="3" fill="#ffeca9"/><use xlink:href="#a" transform="matrix(1,0,0,1,825,405) translate(27.277777777777786 24.437499999999993)"/><use xlink:href="#b" transform="matrix(1,0,0,1,825,405) translate(9.500000000000014 48.437499999999986)"/><use xlink:href="#c" transform="matrix(1,0,0,1,825,405) translate(17.27777777777779 72.43749999999999)"/><path d="M1040 406c0-3.3 2.7-6 6-6h88c3.3 0 6 2.7 6 6v88c0 3.3-2.7 6-6 6h-88c-3.3 0-6-2.7-6-6z" stroke="#5e5e5e" stroke-width="3" fill="#c1e4f7"/><use xlink:href="#d" transform="matrix(1,0,0,1,1045,405) translate(8.916666666666686 49.74999999999999)"/><path d="M922.5 450h97.5" stroke="#5e5e5e" stroke-width="2" fill="none"/><path d="M922.53 451h-1.03v-2h1.03z" fill="#5e5e5e"/><path d="M1035.26 450l-14.26 4.64v-9.28z" stroke="#5e5e5e" stroke-width="2" fill="#5e5e5e"/><path d="M580 406c0-3.3 2.7-6 6-6h108c3.3 0 6 2.7 6 6v88c0 3.3-2.7 6-6 6H586c-3.3 0-6-2.7-6-6z" stroke="#5e5e5e" stroke-width="3" fill="#c7e8ac"/><path d="M676.32 426.64l-14.08 11.76v-5.92c0-4.88-4-8.88-8.88-8.88h-44.48c-4.88 0-8.88 4-8.88 8.88V468c0 4.96 4 8.96 8.88 8.96h44.48c4.88 0 8.88-4 8.88-8.96v-5.92l14.08 11.84c1.52 1.2 3.68.16 3.68-1.76v-43.84c0-1.84-2.16-2.88-3.68-1.68m-32.56 24.96l-17.52 15.6c-1.04.96-2.56.16-2.56-1.2l.08-31.44c.08-1.44 1.52-2.16 2.64-1.2l17.36 15.84c.72.64.72 1.76 0 2.4" fill="#dbf0c9"/><use xlink:href="#e" transform="matrix(1,0,0,1,585,405) translate(19.527777777777786 49)"/><path d="M702.5 450H800" stroke="#5e5e5e" stroke-width="2" fill="none"/><path d="M702.53 451h-1.03v-2h1.03z" fill="#5e5e5e"/><path d="M815.26 450L801 454.64v-9.28z" stroke="#5e5e5e" stroke-width="2" fill="#5e5e5e"/><path d="M730 386c0-3.3 2.7-6 6-6h42c3.3 0 6 2.7 6 6v42c0 3.3-2.7 6-6 6h-42c-3.3 0-6-2.7-6-6z" stroke="#5e5e5e" stroke-width="3" fill="#c7e8ac"/><path d="M736 392c0-3.3 2.7-6 6-6h42c3.3 0 6 2.7 6 6v42c0 3.3-2.7 6-6 6h-42c-3.3 0-6-2.7-6-6z" stroke="#5e5e5e" stroke-width="3" fill="#c7e8ac"/><path d="M754.8 421.16h16.36c2.1 0 3.8-1.67 3.8-3.77v-16.37c0-2.1-1.7-3.77-3.8-3.77H754.8c-2.07 0-3.77 1.66-3.77 3.77v16.36c0 2.1 1.7 3.76 3.78 3.76m6.13-16.22l3.74 5.37 2.38-2 4.1 5.3h-16.34l6.13-8.66z" fill="#dbf0c9"/><path d="M660 496c0-3.3 2.7-6 6-6h188c3.3 0 6 2.7 6 6v48c0 3.3-2.7 6-6 6H666c-3.3 0-6-2.7-6-6z" stroke="#000" stroke-opacity="0" stroke-width="3" fill="#fff" fill-opacity="0"/><use xlink:href="#f" transform="matrix(1,0,0,1,665,495) translate(40.209876543209916 28.069444444444436)"/><use xlink:href="#g" transform="matrix(1,0,0,1,665,495) translate(99.75308641975309 28.069444444444436)"/><path d="M880 496c0-3.3 2.7-6 6-6h188c3.3 0 6 2.7 6 6v48c0 3.3-2.7 6-6 6H886c-3.3 0-6-2.7-6-6z" stroke="#000" stroke-opacity="0" stroke-width="3" fill="#fff" fill-opacity="0"/><use xlink:href="#h" transform="matrix(1,0,0,1,885,495) translate(33.29629629629634 28.069444444444436)"/><use xlink:href="#i" transform="matrix(1,0,0,1,885,495) translate(88.51851851851853 28.069444444444436)"/><use xlink:href="#j" transform="matrix(1,0,0,1,885,495) translate(118.67901234567898 28.069444444444436)"/><path d="M950 386c0-3.3 2.7-6 6-6h42c3.3 0 6 2.7 6 6v42c0 3.3-2.7 6-6 6h-42c-3.3 0-6-2.7-6-6z" stroke="#5e5e5e" stroke-width="3" fill="#c1e4f7"/><path d="M956 392c0-3.3 2.7-6 6-6h42c3.3 0 6 2.7 6 6v42c0 3.3-2.7 6-6 6h-42c-3.3 0-6-2.7-6-6z" stroke="#5e5e5e" stroke-width="3" fill="#c1e4f7"/><path d="M967.3 418.24h31.4v3.5h-31.4v-3.5zm0 6.97h31.4v3.5h-31.4v-3.5zm29.64-27.43c-.5-.3-1.1-.48-1.73-.48h-24.44c-.6 0-1.2.16-1.7.47-1.05.58-1.77 1.7-1.77 3.02v9.28c0 1.93 1.56 3.5 3.46 3.5h24.45c1.94 0 3.5-1.57 3.5-3.5v-9.3c0-1.3-.7-2.43-1.76-3m-23.3 12.77l6.98-9.9 4.28 6.13 2.72-2.28 4.7 6.05h-18.67z" fill="#d7edfa"/><defs><path fill="#333" d="M160-131c35 5 61 23 61 61C221 17 115-2 30 0v-248c76 3 177-17 177 60 0 33-19 50-47 57zm-97-11c50-1 110 9 110-42 0-47-63-36-110-37v79zm0 115c55-2 124 14 124-45 0-56-70-42-124-44v89" id="k"/><path fill="#333" d="M24-231v-30h32v30H24zM24 0v-190h32V0H24" id="l"/><path fill="#333" d="M114-163C36-179 61-72 57 0H25l-1-190h30c1 12-1 29 2 39 6-27 23-49 58-41v29" id="m"/><path fill="#333" d="M85-194c31 0 48 13 60 33l-1-100h32l1 261h-30c-2-10 0-23-3-31C134-8 116 4 85 4 32 4 16-35 15-94c0-66 23-100 70-100zm9 24c-40 0-46 34-46 75 0 40 6 74 45 74 42 0 51-32 51-76 0-42-9-74-50-73" id="n"/><g id="a"><use transform="matrix(0.05555555555555554,0,0,0.05555555555555554,0,0)" xlink:href="#k"/><use transform="matrix(0.05555555555555554,0,0,0.05555555555555554,13.333333333333329,0)" xlink:href="#l"/><use transform="matrix(0.05555555555555554,0,0,0.05555555555555554,17.722222222222214,0)" xlink:href="#m"/><use transform="matrix(0.05555555555555554,0,0,0.05555555555555554,24.33333333333332,0)" xlink:href="#n"/></g><path fill="#333" d="M212-179c-10-28-35-45-73-45-59 0-87 40-87 99 0 60 29 101 89 101 43 0 62-24 78-52l27 14C228-24 195 4 139 4 59 4 22-46 18-125c-6-104 99-153 187-111 19 9 31 26 39 46" id="o"/><path fill="#333" d="M100-194c62-1 85 37 85 99 1 63-27 99-86 99S16-35 15-95c0-66 28-99 85-99zM99-20c44 1 53-31 53-75 0-43-8-75-51-75s-53 32-53 75 10 74 51 75" id="p"/><path fill="#333" d="M84 4C-5 8 30-112 23-190h32v120c0 31 7 50 39 49 72-2 45-101 50-169h31l1 190h-30c-1-10 1-25-2-33-11 22-28 36-60 37" id="q"/><path fill="#333" d="M117-194c89-4 53 116 60 194h-32v-121c0-31-8-49-39-48C34-167 62-67 57 0H25l-1-190h30c1 10-1 24 2 32 11-22 29-35 61-36" id="r"/><path fill="#333" d="M59-47c-2 24 18 29 38 22v24C64 9 27 4 27-40v-127H5v-23h24l9-43h21v43h35v23H59v120" id="s"/><path fill="#333" d="M100-194c63 0 86 42 84 106H49c0 40 14 67 53 68 26 1 43-12 49-29l28 8c-11 28-37 45-77 45C44 4 14-33 15-96c1-61 26-98 85-98zm52 81c6-60-76-77-97-28-3 7-6 17-6 28h103" id="t"/><g id="b"><use transform="matrix(0.05555555555555554,0,0,0.05555555555555554,0,0)" xlink:href="#o"/><use transform="matrix(0.05555555555555554,0,0,0.05555555555555554,14.388888888888884,0)" xlink:href="#p"/><use transform="matrix(0.05555555555555554,0,0,0.05555555555555554,25.499999999999993,0)" xlink:href="#q"/><use transform="matrix(0.05555555555555554,0,0,0.05555555555555554,36.6111111111111,0)" xlink:href="#r"/><use transform="matrix(0.05555555555555554,0,0,0.05555555555555554,47.72222222222221,0)" xlink:href="#s"/><use transform="matrix(0.05555555555555554,0,0,0.05555555555555554,53.27777777777776,0)" xlink:href="#t"/><use transform="matrix(0.05555555555555554,0,0,0.05555555555555554,64.38888888888886,0)" xlink:href="#m"/></g><path fill="#333" d="M30-248c87 1 191-15 191 75 0 78-77 80-158 76V0H30v-248zm33 125c57 0 124 11 124-50 0-59-68-47-124-48v98" id="u"/><path fill="#333" d="M24 0v-261h32V0H24" id="v"/><path fill="#333" d="M177-190C167-65 218 103 67 71c-23-6-38-20-44-43l32-5c15 47 100 32 89-28v-30C133-14 115 1 83 1 29 1 15-40 15-95c0-56 16-97 71-98 29-1 48 16 59 35 1-10 0-23 2-32h30zM94-22c36 0 50-32 50-73 0-42-14-75-50-75-39 0-46 34-46 75s6 73 46 73" id="w"/><g id="c"><use transform="matrix(0.05555555555555554,0,0,0.05555555555555554,0,0)" xlink:href="#u"/><use transform="matrix(0.05555555555555554,0,0,0.05555555555555554,13.333333333333329,0)" xlink:href="#v"/><use transform="matrix(0.05555555555555554,0,0,0.05555555555555554,17.722222222222214,0)" xlink:href="#q"/><use transform="matrix(0.05555555555555554,0,0,0.05555555555555554,28.833333333333325,0)" xlink:href="#w"/><use transform="matrix(0.05555555555555554,0,0,0.05555555555555554,39.94444444444443,0)" xlink:href="#l"/><use transform="matrix(0.05555555555555554,0,0,0.05555555555555554,44.333333333333314,0)" xlink:href="#r"/></g><path fill="#333" d="M106-169C34-169 62-67 57 0H25v-261h32l-1 103c12-21 28-36 61-36 89 0 53 116 60 194h-32v-121c2-32-8-49-39-48" id="x"/><path fill="#333" d="M108 0H70L1-190h34L89-25l56-165h34" id="y"/><g id="d"><use transform="matrix(0.05555555555555554,0,0,0.05555555555555554,0,0)" xlink:href="#k"/><use transform="matrix(0.05555555555555554,0,0,0.05555555555555554,13.333333333333329,0)" xlink:href="#t"/><use transform="matrix(0.05555555555555554,0,0,0.05555555555555554,24.444444444444436,0)" xlink:href="#t"/><use transform="matrix(0.05555555555555554,0,0,0.05555555555555554,35.55555555555554,0)" xlink:href="#x"/><use transform="matrix(0.05555555555555554,0,0,0.05555555555555554,46.66666666666665,0)" xlink:href="#l"/><use transform="matrix(0.05555555555555554,0,0,0.05555555555555554,51.055555555555536,0)" xlink:href="#y"/><use transform="matrix(0.05555555555555554,0,0,0.05555555555555554,61.05555555555552,0)" xlink:href="#t"/></g><path fill="#333" d="M141-36C126-15 110 5 73 4 37 3 15-17 15-53c-1-64 63-63 125-63 3-35-9-54-41-54-24 1-41 7-42 31l-33-3c5-37 33-52 76-52 45 0 72 20 72 64v82c-1 20 7 32 28 27v20c-31 9-61-2-59-35zM48-53c0 20 12 33 32 33 41-3 63-29 60-74-43 2-92-5-92 41" id="z"/><path fill="#333" d="M210-169c-67 3-38 105-44 169h-31v-121c0-29-5-50-35-48C34-165 62-65 56 0H25l-1-190h30c1 10-1 24 2 32 10-44 99-50 107 0 11-21 27-35 58-36 85-2 47 119 55 194h-31v-121c0-29-5-49-35-48" id="A"/><g id="e"><use transform="matrix(0.055555555555555546,0,0,0.055555555555555546,0,0)" xlink:href="#o"/><use transform="matrix(0.055555555555555546,0,0,0.055555555555555546,14.388888888888886,0)" xlink:href="#z"/><use transform="matrix(0.055555555555555546,0,0,0.055555555555555546,25.499999999999993,0)" xlink:href="#A"/><use transform="matrix(0.055555555555555546,0,0,0.055555555555555546,42.1111111111111,0)" xlink:href="#t"/><use transform="matrix(0.055555555555555546,0,0,0.055555555555555546,53.22222222222221,0)" xlink:href="#m"/><use transform="matrix(0.055555555555555546,0,0,0.055555555555555546,59.83333333333331,0)" xlink:href="#z"/></g><path fill="#333" d="M115-194c55 1 70 41 70 98S169 2 115 4C84 4 66-9 55-30l1 105H24l-1-265h31l2 30c10-21 28-34 59-34zm-8 174c40 0 45-34 45-75s-6-73-45-74c-42 0-51 32-51 76 0 43 10 73 51 73" id="B"/><g id="f"><use transform="matrix(0.043209876543209846,0,0,0.043209876543209846,0,0)" xlink:href="#o"/><use transform="matrix(0.043209876543209846,0,0,0.043209876543209846,11.19135802469135,0)" xlink:href="#z"/><use transform="matrix(0.043209876543209846,0,0,0.043209876543209846,19.83333333333332,0)" xlink:href="#B"/><use transform="matrix(0.043209876543209846,0,0,0.043209876543209846,28.47530864197529,0)" xlink:href="#s"/><use transform="matrix(0.043209876543209846,0,0,0.043209876543209846,32.796296296296276,0)" xlink:href="#q"/><use transform="matrix(0.043209876543209846,0,0,0.043209876543209846,41.438271604938244,0)" xlink:href="#m"/><use transform="matrix(0.043209876543209846,0,0,0.043209876543209846,46.58024691358021,0)" xlink:href="#t"/></g><path fill="#333" d="M135-143c-3-34-86-38-87 0 15 53 115 12 119 90S17 21 10-45l28-5c4 36 97 45 98 0-10-56-113-15-118-90-4-57 82-63 122-42 12 7 21 19 24 35" id="C"/><g id="g"><use transform="matrix(0.043209876543209846,0,0,0.043209876543209846,0,0)" xlink:href="#l"/><use transform="matrix(0.043209876543209846,0,0,0.043209876543209846,3.413580246913578,0)" xlink:href="#A"/><use transform="matrix(0.043209876543209846,0,0,0.043209876543209846,16.33333333333332,0)" xlink:href="#z"/><use transform="matrix(0.043209876543209846,0,0,0.043209876543209846,24.975308641975293,0)" xlink:href="#w"/><use transform="matrix(0.043209876543209846,0,0,0.043209876543209846,33.61728395061726,0)" xlink:href="#t"/><use transform="matrix(0.043209876543209846,0,0,0.043209876543209846,42.259259259259224,0)" xlink:href="#C"/></g><path fill="#333" d="M115-194c53 0 69 39 70 98 0 66-23 100-70 100C84 3 66-7 56-30L54 0H23l1-261h32v101c10-23 28-34 59-34zm-8 174c40 0 45-34 45-75 0-40-5-75-45-74-42 0-51 32-51 76 0 43 10 73 51 73" id="D"/><g id="h"><use transform="matrix(0.043209876543209846,0,0,0.043209876543209846,0,0)" xlink:href="#u"/><use transform="matrix(0.043209876543209846,0,0,0.043209876543209846,10.370370370370363,0)" xlink:href="#q"/><use transform="matrix(0.043209876543209846,0,0,0.043209876543209846,19.012345679012334,0)" xlink:href="#D"/><use transform="matrix(0.043209876543209846,0,0,0.043209876543209846,27.6543209876543,0)" xlink:href="#v"/><use transform="matrix(0.043209876543209846,0,0,0.043209876543209846,31.06790123456788,0)" xlink:href="#l"/><use transform="matrix(0.043209876543209846,0,0,0.043209876543209846,34.48148148148146,0)" xlink:href="#C"/><use transform="matrix(0.043209876543209846,0,0,0.043209876543209846,42.25925925925923,0)" xlink:href="#x"/></g><g id="i"><use transform="matrix(0.043209876543209846,0,0,0.043209876543209846,0,0)" xlink:href="#D"/><use transform="matrix(0.043209876543209846,0,0,0.043209876543209846,8.64197530864197,0)" xlink:href="#l"/><use transform="matrix(0.043209876543209846,0,0,0.043209876543209846,12.055555555555546,0)" xlink:href="#m"/><use transform="matrix(0.043209876543209846,0,0,0.043209876543209846,17.197530864197518,0)" xlink:href="#n"/></g><path fill="#333" d="M96-169c-40 0-48 33-48 73s9 75 48 75c24 0 41-14 43-38l32 2c-6 37-31 61-74 61-59 0-76-41-82-99-10-93 101-131 147-64 4 7 5 14 7 22l-32 3c-4-21-16-35-41-35" id="E"/><g id="j"><use transform="matrix(0.043209876543209846,0,0,0.043209876543209846,0,0)" xlink:href="#E"/><use transform="matrix(0.043209876543209846,0,0,0.043209876543209846,7.777777777777772,0)" xlink:href="#p"/><use transform="matrix(0.043209876543209846,0,0,0.043209876543209846,16.419753086419743,0)" xlink:href="#q"/><use transform="matrix(0.043209876543209846,0,0,0.043209876543209846,25.061728395061717,0)" xlink:href="#r"/><use transform="matrix(0.043209876543209846,0,0,0.043209876543209846,33.70370370370368,0)" xlink:href="#s"/></g></defs></g></svg>