<svg xmlns="http://www.w3.org/2000/svg" xmlns:xlink="http://www.w3.org/1999/xlink" xmlns:lucid="lucid" width="1740" height="580"><g transform="translate(-20 -140)" lucid:page-tab-id="RQhmueoh5O7A"><path d="M380 166a6 6 0 0 1 6-6h668a6 6 0 0 1 6 6v528a6 6 0 0 1-6 6H386a6 6 0 0 1-6-6z" fill-opacity="0"/><path d="M382 166c0 1.1-.9 2-2 2s-2-.9-2-2 .9-2 2-2 2 .9 2 2zm5.06-5.93c0 1.1-.9 2-2 2s-2-.9-2-2 .9-2 2-2 2 .9 2 2zm7.96 0c0 1.1-.9 2-2 2s-2-.9-2-2 .9-2 2-2 2 .9 2 2zm7.97 0c0 1.1-.9 2-2 2-1.12 0-2-.9-2-2s.88-2 2-2c1.1 0 2 .9 2 2zm7.95 0c0 1.1-.9 2-2 2s-2-.9-2-2 .9-2 2-2 2 .9 2 2zm7.97 0c0 1.1-.9 2-2 2s-2-.9-2-2 .9-2 2-2 2 .9 2 2zm7.96 0c0 1.1-.9 2-2 2s-2-.9-2-2 .9-2 2-2 2 .9 2 2zm7.96 0c0 1.1-.9 2-2 2s-2-.9-2-2 .9-2 2-2 2 .9 2 2zm7.97 0c0 1.1-.9 2-2 2s-2-.9-2-2 .9-2 2-2 2 .9 2 2zm7.97 0c0 1.1-.9 2-2 2s-2-.9-2-2 .9-2 2-2 2 .9 2 2zm7.96 0c0 1.1-.9 2-2 2s-2-.9-2-2 .9-2 2-2 2 .9 2 2zm7.97 0c0 1.1-.9 2-2 2s-2-.9-2-2 .9-2 2-2 2 .9 2 2zm7.96 0c0 1.1-.9 2-2 2s-2-.9-2-2 .9-2 2-2 2 .9 2 2zm7.96 0c0 1.1-.9 2-2 2s-2-.9-2-2 .9-2 2-2 2 .9 2 2zm7.97 0c0 1.1-.9 2-2 2-1.12 0-2-.9-2-2s.88-2 2-2c1.1 0 2 .9 2 2zm7.95 0c0 1.1-.9 2-2 2s-2-.9-2-2 .9-2 2-2 2 .9 2 2zm7.96 0c0 1.1-.88 2-2 2-1.1 0-2-.9-2-2s.9-2 2-2c1.12 0 2 .9 2 2zm7.98 0c0 1.1-.9 2-2 2s-2-.9-2-2 .9-2 2-2 2 .9 2 2zm7.96 0c0 1.1-.9 2-2 2s-2-.9-2-2c0-1.12.9-2 2-2s2 .88 2 2zm7.97 0c0 1.1-.9 2-2 2s-2-.9-2-2c0-1.12.9-2 2-2s2 .88 2 2zm7.97 0c0 1.1-.9 2-2 2s-2-.9-2-2c0-1.12.9-2 2-2s2 .88 2 2zm7.96 0c0 1.1-.9 2-2 2s-2-.9-2-2c0-1.12.9-2 2-2s2 .88 2 2zm7.97 0c0 1.1-.9 2-2 2s-2-.9-2-2c0-1.12.9-2 2-2s2 .88 2 2zm7.96-.02c0 1.1-.9 2-2 2s-2-.9-2-2 .9-2 2-2 2 .9 2 2zm7.96 0c0 1.1-.9 2-2 2s-2-.9-2-2 .9-2 2-2 2 .9 2 2zm7.97 0c0 1.1-.9 2-2 2-1.12 0-2-.9-2-2s.88-2 2-2c1.1 0 2 .9 2 2zm7.95 0c0 1.1-.9 2-2 2s-2-.9-2-2 .9-2 2-2 2 .9 2 2zm7.96 0c0 1.1-.88 2-2 2-1.1 0-2-.9-2-2s.9-2 2-2c1.12 0 2 .9 2 2zm7.98 0c0 1.1-.9 2-2 2s-2-.9-2-2 .9-2 2-2 2 .9 2 2zm7.96 0c0 1.1-.9 2-2 2s-2-.9-2-2 .9-2 2-2 2 .9 2 2zm7.96 0c0 1.1-.9 2-2 2s-2-.9-2-2 .9-2 2-2 2 .9 2 2zm7.97 0c0 1.1-.9 2-2 2s-2-.9-2-2 .9-2 2-2 2 .9 2 2zm7.96 0c0 1.1-.9 2-2 2s-2-.9-2-2 .9-2 2-2 2 .9 2 2zm7.97 0c0 1.1-.9 2-2 2s-2-.9-2-2 .9-2 2-2 2 .9 2 2zm7.96 0c0 1.1-.9 2-2 2s-2-.9-2-2 .9-2 2-2 2 .9 2 2zm7.96 0c0 1.1-.9 2-2 2s-2-.9-2-2 .9-2 2-2 2 .9 2 2zm7.97 0c0 1.1-.9 2-2 2-1.12 0-2-.9-2-2s.88-2 2-2c1.1 0 2 .9 2 2zm7.95 0c0 1.1-.9 2-2 2s-2-.9-2-2 .9-2 2-2 2 .9 2 2zm7.96 0c0 1.1-.88 2-2 2-1.1 0-2-.9-2-2s.9-2 2-2c1.12 0 2 .9 2 2zm7.98 0c0 1.1-.9 2-2 2s-2-.9-2-2 .9-2 2-2 2 .9 2 2zm7.96 0c0 1.1-.9 2-2 2s-2-.9-2-2 .9-2 2-2 2 .9 2 2zm7.96 0c0 1.1-.9 2-2 2s-2-.9-2-2c0-1.12.9-2 2-2s2 .88 2 2zm7.97 0c0 1.1-.9 2-2 2s-2-.9-2-2c0-1.12.9-2 2-2s2 .88 2 2zm7.96 0c0 1.1-.9 2-2 2s-2-.9-2-2c0-1.12.9-2 2-2s2 .88 2 2zm7.96 0c0 1.1-.9 2-2 2s-2-.9-2-2c0-1.12.9-2 2-2s2 .88 2 2zm7.96 0c0 1.1-.9 2-2 2s-2-.9-2-2c0-1.12.9-2 2-2s2 .88 2 2zm7.96-.02c0 1.1-.9 2-2 2s-2-.9-2-2 .9-2 2-2 2 .9 2 2zm7.96 0c0 1.1-.9 2-2 2s-2-.9-2-2 .9-2 2-2 2 .9 2 2zm7.97 0c0 1.1-.9 2-2 2s-2-.9-2-2 .9-2 2-2 2 .9 2 2zm7.96 0c0 1.1-.88 2-2 2-1.1 0-2-.9-2-2s.9-2 2-2c1.12 0 2 .9 2 2zm7.98 0c0 1.1-.9 2-2 2s-2-.9-2-2 .9-2 2-2 2 .9 2 2zm7.96 0c0 1.1-.9 2-2 2s-2-.9-2-2 .9-2 2-2 2 .9 2 2zm7.96 0c0 1.1-.9 2-2 2s-2-.9-2-2 .9-2 2-2 2 .9 2 2zm7.97 0c0 1.1-.9 2-2 2s-2-.9-2-2 .9-2 2-2 2 .9 2 2zm7.96 0c0 1.1-.9 2-2 2s-2-.9-2-2 .9-2 2-2 2 .9 2 2zm7.96 0c0 1.1-.9 2-2 2s-2-.9-2-2 .9-2 2-2 2 .9 2 2zm7.96 0c0 1.1-.9 2-2 2s-2-.9-2-2 .9-2 2-2 2 .9 2 2zm7.96 0c0 1.1-.9 2-2 2s-2-.9-2-2 .9-2 2-2 2 .9 2 2zm7.96 0c0 1.1-.9 2-2 2s-2-.9-2-2 .9-2 2-2 2 .9 2 2zm7.97 0c0 1.1-.9 2-2 2s-2-.9-2-2 .9-2 2-2 2 .9 2 2zm7.96 0c0 1.1-.88 2-2 2-1.1 0-2-.9-2-2s.9-2 2-2c1.12 0 2 .9 2 2zm7.97 0c0 1.1-.9 2-2 2s-2-.9-2-2 .9-2 2-2 2 .9 2 2zm7.97 0c0 1.1-.9 2-2 2s-2-.9-2-2 .9-2 2-2 2 .9 2 2zm7.96 0c0 1.1-.9 2-2 2s-2-.9-2-2c0-1.12.9-2 2-2s2 .88 2 2zm7.97 0c0 1.1-.9 2-2 2s-2-.9-2-2c0-1.12.9-2 2-2s2 .88 2 2zm7.96 0c0 1.1-.9 2-2 2s-2-.9-2-2c0-1.12.9-2 2-2s2 .88 2 2zm7.96 0c0 1.1-.9 2-2 2s-2-.9-2-2c0-1.12.9-2 2-2s2 .88 2 2zm7.96 0c0 1.1-.9 2-2 2s-2-.9-2-2c0-1.12.9-2 2-2s2 .88 2 2zm7.96-.02c0 1.12-.9 2-2 2s-2-.88-2-2c0-1.1.9-2 2-2s2 .9 2 2zm7.96 0c0 1.12-.9 2-2 2s-2-.88-2-2c0-1.1.9-2 2-2s2 .9 2 2zm7.97 0c0 1.12-.9 2-2 2s-2-.88-2-2c0-1.1.9-2 2-2s2 .9 2 2zm7.96 0c0 1.12-.9 2-2 2s-2-.88-2-2c0-1.1.9-2 2-2s2 .9 2 2zm7.97 0c0 1.12-.9 2-2 2s-2-.88-2-2c0-1.1.9-2 2-2s2 .9 2 2zm7.97 0c0 1.12-.9 2-2 2s-2-.88-2-2c0-1.1.9-2 2-2s2 .9 2 2zm7.96 0c0 1.1-.9 2-2 2s-2-.9-2-2 .9-2 2-2 2 .9 2 2zm7.96 0c0 1.1-.9 2-2 2s-2-.9-2-2 .9-2 2-2 2 .9 2 2zm7.97 0c0 1.1-.9 2-2 2s-2-.9-2-2 .9-2 2-2 2 .9 2 2zm7.96 0c0 1.1-.9 2-2 2s-2-.9-2-2 .9-2 2-2 2 .9 2 2zm7.96 0c0 1.1-.9 2-2 2s-2-.9-2-2 .9-2 2-2 2 .9 2 2zm7.96 0c0 1.1-.9 2-2 2s-2-.9-2-2 .9-2 2-2 2 .9 2 2zm7.96 0c0 1.1-.9 2-2 2s-2-.9-2-2 .9-2 2-2 2 .9 2 2zm7.97 0c0 1.1-.9 2-2 2s-2-.9-2-2 .9-2 2-2 2 .9 2 2zm7.96 0c0 1.1-.9 2-2 2s-2-.9-2-2 .9-2 2-2 2 .9 2 2zm7.97 0c0 1.1-.9 2-2 2s-2-.9-2-2 .9-2 2-2 2 .9 2 2zm7.97 0c0 1.1-.9 2-2 2s-2-.9-2-2 .9-2 2-2 2 .9 2 2zm7.96 0c0 1.1-.9 2-2 2s-2-.9-2-2 .9-2 2-2 2 .9 2 2zm5.93 5.06c0 1.1-.9 2-2 2s-2-.9-2-2 .9-2 2-2 2 .9 2 2zm0 8.02c0 1.1-.9 2-2 2s-2-.9-2-2 .9-2 2-2 2 .9 2 2zm0 8c0 1.1-.9 2-2 2s-2-.9-2-2 .9-2 2-2 2 .9 2 2zm0 8.02c0 1.1-.9 2-2 2s-2-.9-2-2 .9-2 2-2 2 .9 2 2zm0 8.02c0 1.1-.9 2-2 2s-2-.9-2-2 .9-2 2-2 2 .9 2 2zm0 8c0 1.12-.9 2-2 2s-2-.88-2-2c0-1.1.9-2 2-2s2 .9 2 2zm0 8.03c0 1.1-.9 2-2 2s-2-.9-2-2 .9-2 2-2 2 .9 2 2zm0 8c0 1.12-.9 2-2 2s-2-.88-2-2c0-1.1.9-2 2-2s2 .9 2 2zm0 8.03c0 1.1-.9 2-2 2s-2-.9-2-2 .9-2 2-2 2 .9 2 2zm0 8c0 1.1-.9 2-2 2s-2-.9-2-2 .9-2 2-2 2 .9 2 2zm0 8.02c0 1.1-.9 2-2 2s-2-.9-2-2 .9-2 2-2 2 .9 2 2zm0 8.02c0 1.1-.9 2-2 2s-2-.9-2-2 .9-2 2-2 2 .9 2 2zm0 8c0 1.12-.9 2-2 2s-2-.88-2-2c0-1.1.9-2 2-2s2 .9 2 2zm0 8.03c0 1.1-.88 2-2 2-1.1 0-2-.9-2-2s.9-2 2-2c1.12 0 2 .9 2 2zm0 8c0 1.12-.88 2-2 2-1.1 0-2-.88-2-2 0-1.1.9-2 2-2 1.12 0 2 .9 2 2zm0 8.02c0 1.1-.88 2-2 2-1.1 0-2-.9-2-2s.9-2 2-2c1.12 0 2 .9 2 2zm0 8.02c0 1.1-.88 2-2 2-1.1 0-2-.9-2-2 0-1.12.9-2 2-2 1.12 0 2 .88 2 2zm.02 8c0 1.1-.9 2-2 2s-2-.9-2-2 .9-2 2-2 2 .9 2 2zm0 8.02c0 1.1-.9 2-2 2s-2-.9-2-2 .9-2 2-2 2 .9 2 2zm0 8c0 1.12-.9 2-2 2s-2-.88-2-2c0-1.1.9-2 2-2s2 .9 2 2zm0 8.03c0 1.1-.9 2-2 2s-2-.9-2-2 .9-2 2-2 2 .9 2 2zm0 8c0 1.1-.9 2-2 2s-2-.9-2-2 .9-2 2-2 2 .9 2 2zm0 8.02c0 1.1-.9 2-2 2s-2-.9-2-2 .9-2 2-2 2 .9 2 2zm0 8.02c0 1.1-.9 2-2 2s-2-.9-2-2c0-1.12.9-2 2-2s2 .88 2 2zm0 8c0 1.1-.9 2-2 2s-2-.9-2-2 .9-2 2-2 2 .9 2 2zm0 8.02c0 1.1-.9 2-2 2s-2-.9-2-2 .9-2 2-2 2 .9 2 2zm0 8c0 1.12-.9 2-2 2s-2-.88-2-2c0-1.1.9-2 2-2s2 .9 2 2zm0 8.03c0 1.1-.9 2-2 2s-2-.9-2-2 .9-2 2-2 2 .9 2 2zm0 8c0 1.1-.9 2-2 2s-2-.9-2-2 .9-2 2-2 2 .9 2 2zm0 8.02c0 1.1-.9 2-2 2s-2-.9-2-2 .9-2 2-2 2 .9 2 2zm0 8.02c0 1.1-.9 2-2 2s-2-.9-2-2c0-1.12.9-2 2-2s2 .88 2 2zm0 8c0 1.1-.88 2-2 2-1.1 0-2-.9-2-2s.9-2 2-2c1.12 0 2 .9 2 2zm0 8.02c0 1.1-.88 2-2 2-1.1 0-2-.9-2-2s.9-2 2-2c1.12 0 2 .9 2 2zm0 8c0 1.12-.88 2-2 2-1.1 0-2-.88-2-2 0-1.1.9-2 2-2 1.12 0 2 .9 2 2zm0 8.02c0 1.1-.88 2-2 2-1.1 0-2-.9-2-2s.9-2 2-2c1.12 0 2 .9 2 2zm.02 8.02c0 1.1-.9 2-2 2s-2-.9-2-2 .9-2 2-2 2 .9 2 2zm0 8c0 1.12-.9 2-2 2s-2-.88-2-2c0-1.1.9-2 2-2s2 .9 2 2zm0 8.03c0 1.1-.9 2-2 2s-2-.9-2-2c0-1.12.9-2 2-2s2 .88 2 2zm0 8c0 1.1-.9 2-2 2s-2-.9-2-2 .9-2 2-2 2 .9 2 2zm0 8.02c0 1.1-.9 2-2 2s-2-.9-2-2 .9-2 2-2 2 .9 2 2zm0 8c0 1.1-.9 2-2 2s-2-.9-2-2 .9-2 2-2 2 .9 2 2zm0 8.02c0 1.1-.9 2-2 2s-2-.9-2-2 .9-2 2-2 2 .9 2 2zm0 8.02c0 1.1-.9 2-2 2s-2-.9-2-2 .9-2 2-2 2 .9 2 2zm0 8c0 1.12-.9 2-2 2s-2-.88-2-2c0-1.1.9-2 2-2s2 .9 2 2zm0 8.03c0 1.1-.9 2-2 2s-2-.9-2-2c0-1.12.9-2 2-2s2 .88 2 2zm0 8c0 1.1-.9 2-2 2s-2-.9-2-2 .9-2 2-2 2 .9 2 2zm0 8.02c0 1.1-.9 2-2 2s-2-.9-2-2 .9-2 2-2 2 .9 2 2zm0 8c0 1.1-.9 2-2 2s-2-.9-2-2 .9-2 2-2 2 .9 2 2zm0 8.02c0 1.1-.9 2-2 2s-2-.9-2-2 .9-2 2-2 2 .9 2 2zm0 8.02c0 1.1-.88 2-2 2-1.1 0-2-.9-2-2s.9-2 2-2c1.12 0 2 .9 2 2zm0 8c0 1.12-.88 2-2 2-1.1 0-2-.88-2-2 0-1.1.9-2 2-2 1.12 0 2 .9 2 2zm0 8.03c0 1.1-.88 2-2 2-1.1 0-2-.9-2-2 0-1.12.9-2 2-2 1.12 0 2 .88 2 2zm0 8c0 1.1-.88 2-2 2-1.1 0-2-.9-2-2s.9-2 2-2c1.12 0 2 .9 2 2zm.02 8.02c0 1.1-.9 2-2 2-1.12 0-2-.9-2-2s.88-2 2-2c1.1 0 2 .9 2 2zm0 8c0 1.1-.9 2-2 2-1.12 0-2-.9-2-2s.88-2 2-2c1.1 0 2 .9 2 2zm0 8.02c0 1.1-.9 2-2 2-1.12 0-2-.9-2-2s.88-2 2-2c1.1 0 2 .9 2 2zm0 8.02c0 1.1-.9 2-2 2-1.12 0-2-.9-2-2s.88-2 2-2c1.1 0 2 .9 2 2zm0 8c0 1.12-.9 2-2 2s-2-.88-2-2c0-1.1.9-2 2-2s2 .9 2 2zm0 8.03c0 1.1-.9 2-2 2s-2-.9-2-2c0-1.12.9-2 2-2s2 .88 2 2zm0 8c0 1.1-.9 2-2 2s-2-.9-2-2 .9-2 2-2 2 .9 2 2zm0 8c0 1.12-.9 2-2 2s-2-.88-2-2c0-1.1.9-2 2-2s2 .9 2 2zm0 8.03c0 1.1-.9 2-2 2s-2-.9-2-2 .9-2 2-2 2 .9 2 2zm0 8c0 1.12-.9 2-2 2s-2-.88-2-2c0-1.1.9-2 2-2s2 .9 2 2zm0 8.03c0 1.1-.9 2-2 2s-2-.9-2-2 .9-2 2-2 2 .9 2 2zm0 8c0 1.12-.9 2-2 2s-2-.88-2-2c0-1.1.9-2 2-2s2 .9 2 2zm0 8.03c0 1.1-.9 2-2 2s-2-.9-2-2c0-1.12.9-2 2-2s2 .88 2 2zm0 8c0 1.1-.9 2-2 2s-2-.9-2-2 .9-2 2-2 2 .9 2 2zm-5.06 5.93c0 1.1-.9 2-2 2s-2-.9-2-2 .9-2 2-2 2 .9 2 2zm-7.96 0c0 1.1-.9 2-2 2s-2-.9-2-2 .9-2 2-2 2 .9 2 2zm-7.97 0c0 1.1-.88 2-2 2-1.1 0-2-.9-2-2s.9-2 2-2c1.12 0 2 .9 2 2zm-7.95 0c0 1.1-.9 2-2 2s-2-.9-2-2 .9-2 2-2 2 .9 2 2zm-7.97 0c0 1.1-.9 2-2 2s-2-.9-2-2 .9-2 2-2 2 .9 2 2zm-7.96 0c0 1.1-.9 2-2 2s-2-.9-2-2 .9-2 2-2 2 .9 2 2zm-7.96 0c0 1.1-.9 2-2 2s-2-.9-2-2 .9-2 2-2 2 .9 2 2zm-7.97 0c0 1.1-.9 2-2 2s-2-.9-2-2 .9-2 2-2 2 .9 2 2zm-7.97 0c0 1.1-.9 2-2 2s-2-.9-2-2 .9-2 2-2 2 .9 2 2zm-7.96 0c0 1.1-.9 2-2 2s-2-.9-2-2 .9-2 2-2 2 .9 2 2zm-7.97 0c0 1.1-.9 2-2 2s-2-.9-2-2 .9-2 2-2 2 .9 2 2zm-7.96 0c0 1.1-.9 2-2 2s-2-.9-2-2 .9-2 2-2 2 .9 2 2zm-7.96 0c0 1.1-.9 2-2 2s-2-.9-2-2 .9-2 2-2 2 .9 2 2zm-7.97 0c0 1.1-.88 2-2 2-1.1 0-2-.9-2-2s.9-2 2-2c1.12 0 2 .9 2 2zm-7.95 0c0 1.1-.9 2-2 2s-2-.9-2-2 .9-2 2-2 2 .9 2 2zm-7.96 0c0 1.1-.9 2-2 2-1.12 0-2-.9-2-2s.88-2 2-2c1.1 0 2 .9 2 2zm-7.98 0c0 1.1-.9 2-2 2s-2-.9-2-2 .9-2 2-2 2 .9 2 2zm-7.96 0c0 1.12-.9 2-2 2s-2-.88-2-2c0-1.1.9-2 2-2s2 .9 2 2zm-7.97 0c0 1.12-.9 2-2 2s-2-.88-2-2c0-1.1.9-2 2-2s2 .9 2 2zm-7.97 0c0 1.12-.9 2-2 2s-2-.88-2-2c0-1.1.9-2 2-2s2 .9 2 2zm-7.96 0c0 1.12-.9 2-2 2s-2-.88-2-2c0-1.1.9-2 2-2s2 .9 2 2zm-7.97 0c0 1.12-.9 2-2 2s-2-.88-2-2c0-1.1.9-2 2-2s2 .9 2 2zm-7.96.02c0 1.1-.9 2-2 2s-2-.9-2-2 .9-2 2-2 2 .9 2 2zm-7.96 0c0 1.1-.9 2-2 2s-2-.9-2-2 .9-2 2-2 2 .9 2 2zm-7.97 0c0 1.1-.88 2-2 2-1.1 0-2-.9-2-2s.9-2 2-2c1.12 0 2 .9 2 2zm-7.95 0c0 1.1-.9 2-2 2s-2-.9-2-2 .9-2 2-2 2 .9 2 2zm-7.96 0c0 1.1-.9 2-2 2-1.12 0-2-.9-2-2s.88-2 2-2c1.1 0 2 .9 2 2zm-7.98 0c0 1.1-.9 2-2 2s-2-.9-2-2 .9-2 2-2 2 .9 2 2zm-7.96 0c0 1.1-.9 2-2 2s-2-.9-2-2 .9-2 2-2 2 .9 2 2zm-7.96 0c0 1.1-.9 2-2 2s-2-.9-2-2 .9-2 2-2 2 .9 2 2zm-7.97 0c0 1.1-.9 2-2 2s-2-.9-2-2 .9-2 2-2 2 .9 2 2zm-7.96 0c0 1.1-.9 2-2 2s-2-.9-2-2 .9-2 2-2 2 .9 2 2zm-7.97 0c0 1.1-.9 2-2 2s-2-.9-2-2 .9-2 2-2 2 .9 2 2zm-7.96 0c0 1.1-.9 2-2 2s-2-.9-2-2 .9-2 2-2 2 .9 2 2zm-7.96 0c0 1.1-.9 2-2 2s-2-.9-2-2 .9-2 2-2 2 .9 2 2zm-7.97 0c0 1.1-.88 2-2 2-1.1 0-2-.9-2-2s.9-2 2-2c1.12 0 2 .9 2 2zm-7.95 0c0 1.1-.9 2-2 2s-2-.9-2-2 .9-2 2-2 2 .9 2 2zm-7.96 0c0 1.1-.9 2-2 2-1.12 0-2-.9-2-2s.88-2 2-2c1.1 0 2 .9 2 2zm-7.98 0c0 1.1-.9 2-2 2s-2-.9-2-2 .9-2 2-2 2 .9 2 2zm-7.96 0c0 1.1-.9 2-2 2s-2-.9-2-2 .9-2 2-2 2 .9 2 2zm-7.96 0c0 1.12-.9 2-2 2s-2-.88-2-2c0-1.1.9-2 2-2s2 .9 2 2zm-7.97 0c0 1.12-.9 2-2 2s-2-.88-2-2c0-1.1.9-2 2-2s2 .9 2 2zm-7.96 0c0 1.12-.9 2-2 2s-2-.88-2-2c0-1.1.9-2 2-2s2 .9 2 2zm-7.96 0c0 1.12-.9 2-2 2s-2-.88-2-2c0-1.1.9-2 2-2s2 .9 2 2zm-7.96 0c0 1.12-.9 2-2 2s-2-.88-2-2c0-1.1.9-2 2-2s2 .9 2 2zm-7.96.02c0 1.1-.9 2-2 2s-2-.9-2-2 .9-2 2-2 2 .9 2 2zm-7.96 0c0 1.1-.9 2-2 2s-2-.9-2-2 .9-2 2-2 2 .9 2 2zm-7.97 0c0 1.1-.9 2-2 2s-2-.9-2-2 .9-2 2-2 2 .9 2 2zm-7.96 0c0 1.1-.9 2-2 2-1.12 0-2-.9-2-2s.88-2 2-2c1.1 0 2 .9 2 2zm-7.98 0c0 1.1-.9 2-2 2s-2-.9-2-2 .9-2 2-2 2 .9 2 2zm-7.96 0c0 1.1-.9 2-2 2s-2-.9-2-2 .9-2 2-2 2 .9 2 2zm-7.96 0c0 1.1-.9 2-2 2s-2-.9-2-2 .9-2 2-2 2 .9 2 2zm-7.97 0c0 1.1-.9 2-2 2s-2-.9-2-2 .9-2 2-2 2 .9 2 2zm-7.96 0c0 1.1-.9 2-2 2s-2-.9-2-2 .9-2 2-2 2 .9 2 2zm-7.96 0c0 1.1-.9 2-2 2s-2-.9-2-2 .9-2 2-2 2 .9 2 2zm-7.96 0c0 1.1-.9 2-2 2s-2-.9-2-2 .9-2 2-2 2 .9 2 2zm-7.96 0c0 1.1-.9 2-2 2s-2-.9-2-2 .9-2 2-2 2 .9 2 2zm-7.96 0c0 1.1-.9 2-2 2s-2-.9-2-2 .9-2 2-2 2 .9 2 2zm-7.97 0c0 1.1-.9 2-2 2s-2-.9-2-2 .9-2 2-2 2 .9 2 2zm-7.96 0c0 1.1-.9 2-2 2-1.12 0-2-.9-2-2s.88-2 2-2c1.1 0 2 .9 2 2zm-7.97 0c0 1.1-.9 2-2 2s-2-.9-2-2 .9-2 2-2 2 .9 2 2zm-7.97 0c0 1.1-.9 2-2 2s-2-.9-2-2 .9-2 2-2 2 .9 2 2zm-7.96 0c0 1.12-.9 2-2 2s-2-.88-2-2c0-1.1.9-2 2-2s2 .9 2 2zm-7.97 0c0 1.12-.9 2-2 2s-2-.88-2-2c0-1.1.9-2 2-2s2 .9 2 2zm-7.96 0c0 1.12-.9 2-2 2s-2-.88-2-2c0-1.1.9-2 2-2s2 .9 2 2zm-7.96 0c0 1.12-.9 2-2 2s-2-.88-2-2c0-1.1.9-2 2-2s2 .9 2 2zm-7.96 0c0 1.12-.9 2-2 2s-2-.88-2-2c0-1.1.9-2 2-2s2 .9 2 2zm-7.96.02c0 1.1-.9 2-2 2s-2-.9-2-2c0-1.12.9-2 2-2s2 .88 2 2zm-7.96 0c0 1.1-.9 2-2 2s-2-.9-2-2c0-1.12.9-2 2-2s2 .88 2 2zm-7.97 0c0 1.1-.9 2-2 2s-2-.9-2-2c0-1.12.9-2 2-2s2 .88 2 2zm-7.96 0c0 1.1-.9 2-2 2s-2-.9-2-2c0-1.12.9-2 2-2s2 .88 2 2zm-7.97 0c0 1.1-.9 2-2 2s-2-.9-2-2c0-1.12.9-2 2-2s2 .88 2 2zm-7.97 0c0 1.1-.9 2-2 2s-2-.9-2-2c0-1.12.9-2 2-2s2 .88 2 2zm-7.96 0c0 1.1-.9 2-2 2s-2-.9-2-2 .9-2 2-2 2 .9 2 2zm-7.96 0c0 1.1-.9 2-2 2s-2-.9-2-2 .9-2 2-2 2 .9 2 2zm-7.97 0c0 1.1-.9 2-2 2s-2-.9-2-2 .9-2 2-2 2 .9 2 2zm-7.96 0c0 1.1-.9 2-2 2s-2-.9-2-2 .9-2 2-2 2 .9 2 2zm-7.96 0c0 1.1-.9 2-2 2s-2-.9-2-2 .9-2 2-2 2 .9 2 2zm-7.96 0c0 1.1-.9 2-2 2s-2-.9-2-2 .9-2 2-2 2 .9 2 2zm-7.96 0c0 1.1-.9 2-2 2s-2-.9-2-2 .9-2 2-2 2 .9 2 2zm-7.97 0c0 1.1-.9 2-2 2s-2-.9-2-2 .9-2 2-2 2 .9 2 2zm-7.96 0c0 1.1-.9 2-2 2s-2-.9-2-2 .9-2 2-2 2 .9 2 2zm-7.97 0c0 1.1-.9 2-2 2s-2-.9-2-2 .9-2 2-2 2 .9 2 2zm-7.97 0c0 1.1-.9 2-2 2s-2-.9-2-2 .9-2 2-2 2 .9 2 2zm-7.96 0c0 1.1-.9 2-2 2s-2-.9-2-2 .9-2 2-2 2 .9 2 2zm-5.93-5.06c0 1.1-.9 2-2 2s-2-.9-2-2 .9-2 2-2 2 .9 2 2zm0-8.02c0 1.1-.9 2-2 2s-2-.9-2-2 .9-2 2-2 2 .9 2 2zm0-8c0 1.1-.9 2-2 2s-2-.9-2-2 .9-2 2-2 2 .9 2 2zm0-8.02c0 1.1-.9 2-2 2s-2-.9-2-2 .9-2 2-2 2 .9 2 2zm0-8.02c0 1.1-.9 2-2 2s-2-.9-2-2 .9-2 2-2 2 .9 2 2zm0-8c0 1.1-.9 2-2 2s-2-.9-2-2c0-1.12.9-2 2-2s2 .88 2 2zm0-8.03c0 1.1-.9 2-2 2s-2-.9-2-2 .9-2 2-2 2 .9 2 2zm0-8c0 1.1-.9 2-2 2s-2-.9-2-2c0-1.12.9-2 2-2s2 .88 2 2zm0-8.03c0 1.1-.9 2-2 2s-2-.9-2-2 .9-2 2-2 2 .9 2 2zm0-8c0 1.1-.9 2-2 2s-2-.9-2-2 .9-2 2-2 2 .9 2 2zm0-8.02c0 1.1-.9 2-2 2s-2-.9-2-2 .9-2 2-2 2 .9 2 2zm0-8.02c0 1.1-.9 2-2 2s-2-.9-2-2 .9-2 2-2 2 .9 2 2zm0-8c0 1.1-.9 2-2 2s-2-.9-2-2c0-1.12.9-2 2-2s2 .88 2 2zm0-8.03c0 1.1-.9 2-2 2-1.12 0-2-.9-2-2s.88-2 2-2c1.1 0 2 .9 2 2zm0-8c0 1.1-.9 2-2 2-1.12 0-2-.9-2-2 0-1.12.88-2 2-2 1.1 0 2 .88 2 2zm0-8.02c0 1.1-.9 2-2 2-1.12 0-2-.9-2-2s.88-2 2-2c1.1 0 2 .9 2 2zm0-8.02c0 1.12-.9 2-2 2-1.12 0-2-.88-2-2 0-1.1.88-2 2-2 1.1 0 2 .9 2 2zm-.02-8c0 1.1-.9 2-2 2s-2-.9-2-2 .9-2 2-2 2 .9 2 2zm0-8.02c0 1.1-.9 2-2 2s-2-.9-2-2 .9-2 2-2 2 .9 2 2zm0-8c0 1.1-.9 2-2 2s-2-.9-2-2c0-1.12.9-2 2-2s2 .88 2 2zm0-8.03c0 1.1-.9 2-2 2s-2-.9-2-2 .9-2 2-2 2 .9 2 2zm0-8c0 1.1-.9 2-2 2s-2-.9-2-2 .9-2 2-2 2 .9 2 2zm0-8.02c0 1.1-.9 2-2 2s-2-.9-2-2 .9-2 2-2 2 .9 2 2zm0-8.02c0 1.12-.9 2-2 2s-2-.88-2-2c0-1.1.9-2 2-2s2 .9 2 2zm0-8c0 1.1-.9 2-2 2s-2-.9-2-2 .9-2 2-2 2 .9 2 2zm0-8.02c0 1.1-.9 2-2 2s-2-.9-2-2 .9-2 2-2 2 .9 2 2zm0-8c0 1.1-.9 2-2 2s-2-.9-2-2c0-1.12.9-2 2-2s2 .88 2 2zm0-8.03c0 1.1-.9 2-2 2s-2-.9-2-2 .9-2 2-2 2 .9 2 2zm0-8c0 1.1-.9 2-2 2s-2-.9-2-2 .9-2 2-2 2 .9 2 2zm0-8.02c0 1.1-.9 2-2 2s-2-.9-2-2 .9-2 2-2 2 .9 2 2zm0-8.02c0 1.12-.9 2-2 2s-2-.88-2-2c0-1.1.9-2 2-2s2 .9 2 2zm0-8c0 1.1-.9 2-2 2-1.12 0-2-.9-2-2s.88-2 2-2c1.1 0 2 .9 2 2zm0-8.02c0 1.1-.9 2-2 2-1.12 0-2-.9-2-2s.88-2 2-2c1.1 0 2 .9 2 2zm0-8c0 1.1-.9 2-2 2-1.12 0-2-.9-2-2 0-1.12.88-2 2-2 1.1 0 2 .88 2 2zm0-8.02c0 1.1-.9 2-2 2-1.12 0-2-.9-2-2s.88-2 2-2c1.1 0 2 .9 2 2zm-.02-8.02c0 1.1-.9 2-2 2s-2-.9-2-2 .9-2 2-2 2 .9 2 2zm0-8c0 1.1-.9 2-2 2s-2-.9-2-2c0-1.12.9-2 2-2s2 .88 2 2zm0-8.03c0 1.12-.9 2-2 2s-2-.88-2-2c0-1.1.9-2 2-2s2 .9 2 2zm0-8c0 1.1-.9 2-2 2s-2-.9-2-2 .9-2 2-2 2 .9 2 2zm0-8.02c0 1.1-.9 2-2 2s-2-.9-2-2 .9-2 2-2 2 .9 2 2zm0-8c0 1.1-.9 2-2 2s-2-.9-2-2 .9-2 2-2 2 .9 2 2zm0-8.02c0 1.1-.9 2-2 2s-2-.9-2-2 .9-2 2-2 2 .9 2 2zm0-8.02c0 1.1-.9 2-2 2s-2-.9-2-2 .9-2 2-2 2 .9 2 2zm0-8c0 1.1-.9 2-2 2s-2-.9-2-2c0-1.12.9-2 2-2s2 .88 2 2zm0-8.03c0 1.12-.9 2-2 2s-2-.88-2-2c0-1.1.9-2 2-2s2 .9 2 2zm0-8c0 1.1-.9 2-2 2s-2-.9-2-2 .9-2 2-2 2 .9 2 2zm0-8.02c0 1.1-.9 2-2 2s-2-.9-2-2 .9-2 2-2 2 .9 2 2zm0-8c0 1.1-.9 2-2 2s-2-.9-2-2 .9-2 2-2 2 .9 2 2zm0-8.02c0 1.1-.9 2-2 2s-2-.9-2-2 .9-2 2-2 2 .9 2 2zm0-8.02c0 1.1-.9 2-2 2-1.12 0-2-.9-2-2s.88-2 2-2c1.1 0 2 .9 2 2zm0-8c0 1.1-.9 2-2 2-1.12 0-2-.9-2-2 0-1.12.88-2 2-2 1.1 0 2 .88 2 2zm0-8.03c0 1.12-.9 2-2 2-1.12 0-2-.88-2-2 0-1.1.88-2 2-2 1.1 0 2 .9 2 2zm0-8c0 1.1-.9 2-2 2-1.12 0-2-.9-2-2s.88-2 2-2c1.1 0 2 .9 2 2zm-.02-8.02c0 1.1-.88 2-2 2-1.1 0-2-.9-2-2s.9-2 2-2c1.12 0 2 .9 2 2zm0-8c0 1.1-.88 2-2 2-1.1 0-2-.9-2-2s.9-2 2-2c1.12 0 2 .9 2 2zm0-8.02c0 1.1-.88 2-2 2-1.1 0-2-.9-2-2s.9-2 2-2c1.12 0 2 .9 2 2zm0-8.02c0 1.1-.88 2-2 2-1.1 0-2-.9-2-2s.9-2 2-2c1.12 0 2 .9 2 2zm0-8c0 1.1-.9 2-2 2s-2-.9-2-2c0-1.12.9-2 2-2s2 .88 2 2zm0-8.03c0 1.12-.9 2-2 2s-2-.88-2-2c0-1.1.9-2 2-2s2 .9 2 2zm0-8c0 1.1-.9 2-2 2s-2-.9-2-2 .9-2 2-2 2 .9 2 2zm0-8c0 1.1-.9 2-2 2s-2-.9-2-2c0-1.12.9-2 2-2s2 .88 2 2zm0-8.03c0 1.1-.9 2-2 2s-2-.9-2-2 .9-2 2-2 2 .9 2 2zm0-8c0 1.1-.9 2-2 2s-2-.9-2-2c0-1.12.9-2 2-2s2 .88 2 2zm0-8.03c0 1.1-.9 2-2 2s-2-.9-2-2 .9-2 2-2 2 .9 2 2zm0-8c0 1.1-.9 2-2 2s-2-.9-2-2c0-1.12.9-2 2-2s2 .88 2 2zm0-8.03c0 1.12-.9 2-2 2s-2-.88-2-2c0-1.1.9-2 2-2s2 .9 2 2zm0-8c0 1.1-.9 2-2 2s-2-.9-2-2 .9-2 2-2 2 .9 2 2z" fill="#3a414a"/><use xlink:href="#a" transform="matrix(1,0,0,1,385,165) translate(235.07407407407408 520.4419822933332)"/><use xlink:href="#b" transform="matrix(1,0,0,1,385,165) translate(340.1111111111111 520.4419822933332)"/><use xlink:href="#c" transform="matrix(1,0,0,1,385,165) translate(391.96296296296293 520.4419822933332)"/><path d="M1060 166a6 6 0 0 1 6-6h668a6 6 0 0 1 6 6v528a6 6 0 0 1-6 6h-668a6 6 0 0 1-6-6z" fill-opacity="0"/><path d="M1062 166c0 1.1-.9 2-2 2s-2-.9-2-2 .9-2 2-2 2 .9 2 2zm5.06-5.93c0 1.1-.9 2-2 2s-2-.9-2-2 .9-2 2-2 2 .9 2 2zm7.96 0c0 1.1-.9 2-2 2s-2-.9-2-2 .9-2 2-2 2 .9 2 2zm7.97 0c0 1.1-.9 2-2 2-1.12 0-2-.9-2-2s.88-2 2-2c1.1 0 2 .9 2 2zm7.95 0c0 1.1-.9 2-2 2s-2-.9-2-2 .9-2 2-2 2 .9 2 2zm7.97 0c0 1.1-.9 2-2 2s-2-.9-2-2 .9-2 2-2 2 .9 2 2zm7.96 0c0 1.1-.9 2-2 2s-2-.9-2-2 .9-2 2-2 2 .9 2 2zm7.96 0c0 1.1-.9 2-2 2s-2-.9-2-2 .9-2 2-2 2 .9 2 2zm7.97 0c0 1.1-.9 2-2 2s-2-.9-2-2 .9-2 2-2 2 .9 2 2zm7.97 0c0 1.1-.9 2-2 2s-2-.9-2-2 .9-2 2-2 2 .9 2 2zm7.96 0c0 1.1-.9 2-2 2s-2-.9-2-2 .9-2 2-2 2 .9 2 2zm7.97 0c0 1.1-.9 2-2 2s-2-.9-2-2 .9-2 2-2 2 .9 2 2zm7.96 0c0 1.1-.9 2-2 2s-2-.9-2-2 .9-2 2-2 2 .9 2 2zm7.96 0c0 1.1-.9 2-2 2s-2-.9-2-2 .9-2 2-2 2 .9 2 2zm7.97 0c0 1.1-.9 2-2 2-1.12 0-2-.9-2-2s.88-2 2-2c1.1 0 2 .9 2 2zm7.95 0c0 1.1-.9 2-2 2s-2-.9-2-2 .9-2 2-2 2 .9 2 2zm7.96 0c0 1.1-.88 2-2 2-1.1 0-2-.9-2-2s.9-2 2-2c1.12 0 2 .9 2 2zm7.98 0c0 1.1-.9 2-2 2s-2-.9-2-2 .9-2 2-2 2 .9 2 2zm7.96 0c0 1.1-.9 2-2 2s-2-.9-2-2c0-1.12.9-2 2-2s2 .88 2 2zm7.97 0c0 1.1-.9 2-2 2s-2-.9-2-2c0-1.12.9-2 2-2s2 .88 2 2zm7.97 0c0 1.1-.9 2-2 2s-2-.9-2-2c0-1.12.9-2 2-2s2 .88 2 2zm7.96 0c0 1.1-.9 2-2 2s-2-.9-2-2c0-1.12.9-2 2-2s2 .88 2 2zm7.97 0c0 1.1-.9 2-2 2s-2-.9-2-2c0-1.12.9-2 2-2s2 .88 2 2zm7.96-.02c0 1.1-.9 2-2 2s-2-.9-2-2 .9-2 2-2 2 .9 2 2zm7.96 0c0 1.1-.9 2-2 2s-2-.9-2-2 .9-2 2-2 2 .9 2 2zm7.97 0c0 1.1-.9 2-2 2-1.12 0-2-.9-2-2s.88-2 2-2c1.1 0 2 .9 2 2zm7.95 0c0 1.1-.9 2-2 2s-2-.9-2-2 .9-2 2-2 2 .9 2 2zm7.96 0c0 1.1-.88 2-2 2-1.1 0-2-.9-2-2s.9-2 2-2c1.12 0 2 .9 2 2zm7.98 0c0 1.1-.9 2-2 2s-2-.9-2-2 .9-2 2-2 2 .9 2 2zm7.96 0c0 1.1-.9 2-2 2s-2-.9-2-2 .9-2 2-2 2 .9 2 2zm7.96 0c0 1.1-.9 2-2 2s-2-.9-2-2 .9-2 2-2 2 .9 2 2zm7.97 0c0 1.1-.9 2-2 2s-2-.9-2-2 .9-2 2-2 2 .9 2 2zm7.96 0c0 1.1-.9 2-2 2s-2-.9-2-2 .9-2 2-2 2 .9 2 2zm7.97 0c0 1.1-.9 2-2 2s-2-.9-2-2 .9-2 2-2 2 .9 2 2zm7.96 0c0 1.1-.9 2-2 2s-2-.9-2-2 .9-2 2-2 2 .9 2 2zm7.96 0c0 1.1-.9 2-2 2s-2-.9-2-2 .9-2 2-2 2 .9 2 2zm7.97 0c0 1.1-.9 2-2 2-1.12 0-2-.9-2-2s.88-2 2-2c1.1 0 2 .9 2 2zm7.95 0c0 1.1-.9 2-2 2s-2-.9-2-2 .9-2 2-2 2 .9 2 2zm7.96 0c0 1.1-.88 2-2 2-1.1 0-2-.9-2-2s.9-2 2-2c1.12 0 2 .9 2 2zm7.98 0c0 1.1-.9 2-2 2s-2-.9-2-2 .9-2 2-2 2 .9 2 2zm7.96 0c0 1.1-.9 2-2 2s-2-.9-2-2 .9-2 2-2 2 .9 2 2zm7.96 0c0 1.1-.9 2-2 2s-2-.9-2-2c0-1.12.9-2 2-2s2 .88 2 2zm7.97 0c0 1.1-.9 2-2 2s-2-.9-2-2c0-1.12.9-2 2-2s2 .88 2 2zm7.96 0c0 1.1-.9 2-2 2s-2-.9-2-2c0-1.12.9-2 2-2s2 .88 2 2zm7.96 0c0 1.1-.9 2-2 2s-2-.9-2-2c0-1.12.9-2 2-2s2 .88 2 2zm7.96 0c0 1.1-.9 2-2 2s-2-.9-2-2c0-1.12.9-2 2-2s2 .88 2 2zm7.96-.02c0 1.1-.9 2-2 2s-2-.9-2-2 .9-2 2-2 2 .9 2 2zm7.96 0c0 1.1-.9 2-2 2s-2-.9-2-2 .9-2 2-2 2 .9 2 2zm7.97 0c0 1.1-.9 2-2 2s-2-.9-2-2 .9-2 2-2 2 .9 2 2zm7.96 0c0 1.1-.88 2-2 2-1.1 0-2-.9-2-2s.9-2 2-2c1.12 0 2 .9 2 2zm7.98 0c0 1.1-.9 2-2 2s-2-.9-2-2 .9-2 2-2 2 .9 2 2zm7.96 0c0 1.1-.9 2-2 2s-2-.9-2-2 .9-2 2-2 2 .9 2 2zm7.96 0c0 1.1-.9 2-2 2s-2-.9-2-2 .9-2 2-2 2 .9 2 2zm7.97 0c0 1.1-.9 2-2 2s-2-.9-2-2 .9-2 2-2 2 .9 2 2zm7.96 0c0 1.1-.9 2-2 2s-2-.9-2-2 .9-2 2-2 2 .9 2 2zm7.96 0c0 1.1-.9 2-2 2s-2-.9-2-2 .9-2 2-2 2 .9 2 2zm7.96 0c0 1.1-.9 2-2 2s-2-.9-2-2 .9-2 2-2 2 .9 2 2zm7.96 0c0 1.1-.9 2-2 2s-2-.9-2-2 .9-2 2-2 2 .9 2 2zm7.96 0c0 1.1-.9 2-2 2s-2-.9-2-2 .9-2 2-2 2 .9 2 2zm7.97 0c0 1.1-.9 2-2 2s-2-.9-2-2 .9-2 2-2 2 .9 2 2zm7.96 0c0 1.1-.88 2-2 2-1.1 0-2-.9-2-2s.9-2 2-2c1.12 0 2 .9 2 2zm7.97 0c0 1.1-.9 2-2 2s-2-.9-2-2 .9-2 2-2 2 .9 2 2zm7.97 0c0 1.1-.9 2-2 2s-2-.9-2-2 .9-2 2-2 2 .9 2 2zm7.96 0c0 1.1-.9 2-2 2s-2-.9-2-2c0-1.12.9-2 2-2s2 .88 2 2zm7.97 0c0 1.1-.9 2-2 2s-2-.9-2-2c0-1.12.9-2 2-2s2 .88 2 2zm7.96 0c0 1.1-.9 2-2 2s-2-.9-2-2c0-1.12.9-2 2-2s2 .88 2 2zm7.96 0c0 1.1-.9 2-2 2s-2-.9-2-2c0-1.12.9-2 2-2s2 .88 2 2zm7.96 0c0 1.1-.9 2-2 2s-2-.9-2-2c0-1.12.9-2 2-2s2 .88 2 2zm7.96-.02c0 1.12-.9 2-2 2s-2-.88-2-2c0-1.1.9-2 2-2s2 .9 2 2zm7.96 0c0 1.12-.9 2-2 2s-2-.88-2-2c0-1.1.9-2 2-2s2 .9 2 2zm7.97 0c0 1.12-.9 2-2 2s-2-.88-2-2c0-1.1.9-2 2-2s2 .9 2 2zm7.96 0c0 1.12-.9 2-2 2s-2-.88-2-2c0-1.1.9-2 2-2s2 .9 2 2zm7.97 0c0 1.12-.9 2-2 2s-2-.88-2-2c0-1.1.9-2 2-2s2 .9 2 2zm7.97 0c0 1.12-.9 2-2 2s-2-.88-2-2c0-1.1.9-2 2-2s2 .9 2 2zm7.96 0c0 1.1-.9 2-2 2s-2-.9-2-2 .9-2 2-2 2 .9 2 2zm7.96 0c0 1.1-.9 2-2 2s-2-.9-2-2 .9-2 2-2 2 .9 2 2zm7.97 0c0 1.1-.9 2-2 2s-2-.9-2-2 .9-2 2-2 2 .9 2 2zm7.96 0c0 1.1-.9 2-2 2s-2-.9-2-2 .9-2 2-2 2 .9 2 2zm7.96 0c0 1.1-.9 2-2 2s-2-.9-2-2 .9-2 2-2 2 .9 2 2zm7.96 0c0 1.1-.9 2-2 2s-2-.9-2-2 .9-2 2-2 2 .9 2 2zm7.96 0c0 1.1-.9 2-2 2s-2-.9-2-2 .9-2 2-2 2 .9 2 2zm7.97 0c0 1.1-.9 2-2 2s-2-.9-2-2 .9-2 2-2 2 .9 2 2zm7.96 0c0 1.1-.9 2-2 2s-2-.9-2-2 .9-2 2-2 2 .9 2 2zm7.97 0c0 1.1-.9 2-2 2s-2-.9-2-2 .9-2 2-2 2 .9 2 2zm7.97 0c0 1.1-.9 2-2 2s-2-.9-2-2 .9-2 2-2 2 .9 2 2zm7.96 0c0 1.1-.9 2-2 2s-2-.9-2-2 .9-2 2-2 2 .9 2 2zm5.93 5.06c0 1.1-.9 2-2 2s-2-.9-2-2 .9-2 2-2 2 .9 2 2zm0 8.02c0 1.1-.9 2-2 2s-2-.9-2-2 .9-2 2-2 2 .9 2 2zm0 8c0 1.1-.9 2-2 2s-2-.9-2-2 .9-2 2-2 2 .9 2 2zm0 8.02c0 1.1-.9 2-2 2s-2-.9-2-2 .9-2 2-2 2 .9 2 2zm0 8.02c0 1.1-.9 2-2 2s-2-.9-2-2 .9-2 2-2 2 .9 2 2zm0 8c0 1.12-.9 2-2 2s-2-.88-2-2c0-1.1.9-2 2-2s2 .9 2 2zm0 8.03c0 1.1-.9 2-2 2s-2-.9-2-2 .9-2 2-2 2 .9 2 2zm0 8c0 1.12-.9 2-2 2s-2-.88-2-2c0-1.1.9-2 2-2s2 .9 2 2zm0 8.03c0 1.1-.9 2-2 2s-2-.9-2-2 .9-2 2-2 2 .9 2 2zm0 8c0 1.1-.9 2-2 2s-2-.9-2-2 .9-2 2-2 2 .9 2 2zm0 8.02c0 1.1-.9 2-2 2s-2-.9-2-2 .9-2 2-2 2 .9 2 2zm0 8.02c0 1.1-.9 2-2 2s-2-.9-2-2 .9-2 2-2 2 .9 2 2zm0 8c0 1.12-.9 2-2 2s-2-.88-2-2c0-1.1.9-2 2-2s2 .9 2 2zm0 8.03c0 1.1-.88 2-2 2-1.1 0-2-.9-2-2s.9-2 2-2c1.12 0 2 .9 2 2zm0 8c0 1.12-.88 2-2 2-1.1 0-2-.88-2-2 0-1.1.9-2 2-2 1.12 0 2 .9 2 2zm0 8.02c0 1.1-.88 2-2 2-1.1 0-2-.9-2-2s.9-2 2-2c1.12 0 2 .9 2 2zm0 8.02c0 1.1-.88 2-2 2-1.1 0-2-.9-2-2 0-1.12.9-2 2-2 1.12 0 2 .88 2 2zm.02 8c0 1.1-.9 2-2 2s-2-.9-2-2 .9-2 2-2 2 .9 2 2zm0 8.02c0 1.1-.9 2-2 2s-2-.9-2-2 .9-2 2-2 2 .9 2 2zm0 8c0 1.12-.9 2-2 2s-2-.88-2-2c0-1.1.9-2 2-2s2 .9 2 2zm0 8.03c0 1.1-.9 2-2 2s-2-.9-2-2 .9-2 2-2 2 .9 2 2zm0 8c0 1.1-.9 2-2 2s-2-.9-2-2 .9-2 2-2 2 .9 2 2zm0 8.02c0 1.1-.9 2-2 2s-2-.9-2-2 .9-2 2-2 2 .9 2 2zm0 8.02c0 1.1-.9 2-2 2s-2-.9-2-2c0-1.12.9-2 2-2s2 .88 2 2zm0 8c0 1.1-.9 2-2 2s-2-.9-2-2 .9-2 2-2 2 .9 2 2zm0 8.02c0 1.1-.9 2-2 2s-2-.9-2-2 .9-2 2-2 2 .9 2 2zm0 8c0 1.12-.9 2-2 2s-2-.88-2-2c0-1.1.9-2 2-2s2 .9 2 2zm0 8.03c0 1.1-.9 2-2 2s-2-.9-2-2 .9-2 2-2 2 .9 2 2zm0 8c0 1.1-.9 2-2 2s-2-.9-2-2 .9-2 2-2 2 .9 2 2zm0 8.02c0 1.1-.9 2-2 2s-2-.9-2-2 .9-2 2-2 2 .9 2 2zm0 8.02c0 1.1-.9 2-2 2s-2-.9-2-2c0-1.12.9-2 2-2s2 .88 2 2zm0 8c0 1.1-.88 2-2 2-1.1 0-2-.9-2-2s.9-2 2-2c1.12 0 2 .9 2 2zm0 8.02c0 1.1-.88 2-2 2-1.1 0-2-.9-2-2s.9-2 2-2c1.12 0 2 .9 2 2zm0 8c0 1.12-.88 2-2 2-1.1 0-2-.88-2-2 0-1.1.9-2 2-2 1.12 0 2 .9 2 2zm0 8.02c0 1.1-.88 2-2 2-1.1 0-2-.9-2-2s.9-2 2-2c1.12 0 2 .9 2 2zm.02 8.02c0 1.1-.9 2-2 2s-2-.9-2-2 .9-2 2-2 2 .9 2 2zm0 8c0 1.12-.9 2-2 2s-2-.88-2-2c0-1.1.9-2 2-2s2 .9 2 2zm0 8.03c0 1.1-.9 2-2 2s-2-.9-2-2c0-1.12.9-2 2-2s2 .88 2 2zm0 8c0 1.1-.9 2-2 2s-2-.9-2-2 .9-2 2-2 2 .9 2 2zm0 8.02c0 1.1-.9 2-2 2s-2-.9-2-2 .9-2 2-2 2 .9 2 2zm0 8c0 1.1-.9 2-2 2s-2-.9-2-2 .9-2 2-2 2 .9 2 2zm0 8.02c0 1.1-.9 2-2 2s-2-.9-2-2 .9-2 2-2 2 .9 2 2zm0 8.02c0 1.1-.9 2-2 2s-2-.9-2-2 .9-2 2-2 2 .9 2 2zm0 8c0 1.12-.9 2-2 2s-2-.88-2-2c0-1.1.9-2 2-2s2 .9 2 2zm0 8.03c0 1.1-.9 2-2 2s-2-.9-2-2c0-1.12.9-2 2-2s2 .88 2 2zm0 8c0 1.1-.9 2-2 2s-2-.9-2-2 .9-2 2-2 2 .9 2 2zm0 8.02c0 1.1-.9 2-2 2s-2-.9-2-2 .9-2 2-2 2 .9 2 2zm0 8c0 1.1-.9 2-2 2s-2-.9-2-2 .9-2 2-2 2 .9 2 2zm0 8.02c0 1.1-.9 2-2 2s-2-.9-2-2 .9-2 2-2 2 .9 2 2zm0 8.02c0 1.1-.88 2-2 2-1.1 0-2-.9-2-2s.9-2 2-2c1.12 0 2 .9 2 2zm0 8c0 1.12-.88 2-2 2-1.1 0-2-.88-2-2 0-1.1.9-2 2-2 1.12 0 2 .9 2 2zm0 8.03c0 1.1-.88 2-2 2-1.1 0-2-.9-2-2 0-1.12.9-2 2-2 1.12 0 2 .88 2 2zm0 8c0 1.1-.88 2-2 2-1.1 0-2-.9-2-2s.9-2 2-2c1.12 0 2 .9 2 2zm.02 8.02c0 1.1-.9 2-2 2-1.12 0-2-.9-2-2s.88-2 2-2c1.1 0 2 .9 2 2zm0 8c0 1.1-.9 2-2 2-1.12 0-2-.9-2-2s.88-2 2-2c1.1 0 2 .9 2 2zm0 8.02c0 1.1-.9 2-2 2-1.12 0-2-.9-2-2s.88-2 2-2c1.1 0 2 .9 2 2zm0 8.02c0 1.1-.9 2-2 2-1.12 0-2-.9-2-2s.88-2 2-2c1.1 0 2 .9 2 2zm0 8c0 1.12-.9 2-2 2s-2-.88-2-2c0-1.1.9-2 2-2s2 .9 2 2zm0 8.03c0 1.1-.9 2-2 2s-2-.9-2-2c0-1.12.9-2 2-2s2 .88 2 2zm0 8c0 1.1-.9 2-2 2s-2-.9-2-2 .9-2 2-2 2 .9 2 2zm0 8c0 1.12-.9 2-2 2s-2-.88-2-2c0-1.1.9-2 2-2s2 .9 2 2zm0 8.03c0 1.1-.9 2-2 2s-2-.9-2-2 .9-2 2-2 2 .9 2 2zm0 8c0 1.12-.9 2-2 2s-2-.88-2-2c0-1.1.9-2 2-2s2 .9 2 2zm0 8.03c0 1.1-.9 2-2 2s-2-.9-2-2 .9-2 2-2 2 .9 2 2zm0 8c0 1.12-.9 2-2 2s-2-.88-2-2c0-1.1.9-2 2-2s2 .9 2 2zm0 8.03c0 1.1-.9 2-2 2s-2-.9-2-2c0-1.12.9-2 2-2s2 .88 2 2zm0 8c0 1.1-.9 2-2 2s-2-.9-2-2 .9-2 2-2 2 .9 2 2zm-5.06 5.93c0 1.1-.9 2-2 2s-2-.9-2-2 .9-2 2-2 2 .9 2 2zm-7.96 0c0 1.1-.9 2-2 2s-2-.9-2-2 .9-2 2-2 2 .9 2 2zm-7.97 0c0 1.1-.88 2-2 2-1.1 0-2-.9-2-2s.9-2 2-2c1.12 0 2 .9 2 2zm-7.95 0c0 1.1-.9 2-2 2s-2-.9-2-2 .9-2 2-2 2 .9 2 2zm-7.97 0c0 1.1-.9 2-2 2s-2-.9-2-2 .9-2 2-2 2 .9 2 2zm-7.96 0c0 1.1-.9 2-2 2s-2-.9-2-2 .9-2 2-2 2 .9 2 2zm-7.96 0c0 1.1-.9 2-2 2s-2-.9-2-2 .9-2 2-2 2 .9 2 2zm-7.97 0c0 1.1-.9 2-2 2s-2-.9-2-2 .9-2 2-2 2 .9 2 2zm-7.97 0c0 1.1-.9 2-2 2s-2-.9-2-2 .9-2 2-2 2 .9 2 2zm-7.96 0c0 1.1-.9 2-2 2s-2-.9-2-2 .9-2 2-2 2 .9 2 2zm-7.97 0c0 1.1-.9 2-2 2s-2-.9-2-2 .9-2 2-2 2 .9 2 2zm-7.96 0c0 1.1-.9 2-2 2s-2-.9-2-2 .9-2 2-2 2 .9 2 2zm-7.96 0c0 1.1-.9 2-2 2s-2-.9-2-2 .9-2 2-2 2 .9 2 2zm-7.97 0c0 1.1-.88 2-2 2-1.1 0-2-.9-2-2s.9-2 2-2c1.12 0 2 .9 2 2zm-7.95 0c0 1.1-.9 2-2 2s-2-.9-2-2 .9-2 2-2 2 .9 2 2zm-7.96 0c0 1.1-.9 2-2 2-1.12 0-2-.9-2-2s.88-2 2-2c1.1 0 2 .9 2 2zm-7.98 0c0 1.1-.9 2-2 2s-2-.9-2-2 .9-2 2-2 2 .9 2 2zm-7.96 0c0 1.12-.9 2-2 2s-2-.88-2-2c0-1.1.9-2 2-2s2 .9 2 2zm-7.97 0c0 1.12-.9 2-2 2s-2-.88-2-2c0-1.1.9-2 2-2s2 .9 2 2zm-7.97 0c0 1.12-.9 2-2 2s-2-.88-2-2c0-1.1.9-2 2-2s2 .9 2 2zm-7.96 0c0 1.12-.9 2-2 2s-2-.88-2-2c0-1.1.9-2 2-2s2 .9 2 2zm-7.97 0c0 1.12-.9 2-2 2s-2-.88-2-2c0-1.1.9-2 2-2s2 .9 2 2zm-7.96.02c0 1.1-.9 2-2 2s-2-.9-2-2 .9-2 2-2 2 .9 2 2zm-7.96 0c0 1.1-.9 2-2 2s-2-.9-2-2 .9-2 2-2 2 .9 2 2zm-7.97 0c0 1.1-.88 2-2 2-1.1 0-2-.9-2-2s.9-2 2-2c1.12 0 2 .9 2 2zm-7.95 0c0 1.1-.9 2-2 2s-2-.9-2-2 .9-2 2-2 2 .9 2 2zm-7.96 0c0 1.1-.9 2-2 2-1.12 0-2-.9-2-2s.88-2 2-2c1.1 0 2 .9 2 2zm-7.98 0c0 1.1-.9 2-2 2s-2-.9-2-2 .9-2 2-2 2 .9 2 2zm-7.96 0c0 1.1-.9 2-2 2s-2-.9-2-2 .9-2 2-2 2 .9 2 2zm-7.96 0c0 1.1-.9 2-2 2s-2-.9-2-2 .9-2 2-2 2 .9 2 2zm-7.97 0c0 1.1-.9 2-2 2s-2-.9-2-2 .9-2 2-2 2 .9 2 2zm-7.96 0c0 1.1-.9 2-2 2s-2-.9-2-2 .9-2 2-2 2 .9 2 2zm-7.97 0c0 1.1-.9 2-2 2s-2-.9-2-2 .9-2 2-2 2 .9 2 2zm-7.96 0c0 1.1-.9 2-2 2s-2-.9-2-2 .9-2 2-2 2 .9 2 2zm-7.96 0c0 1.1-.9 2-2 2s-2-.9-2-2 .9-2 2-2 2 .9 2 2zm-7.97 0c0 1.1-.88 2-2 2-1.1 0-2-.9-2-2s.9-2 2-2c1.12 0 2 .9 2 2zm-7.95 0c0 1.1-.9 2-2 2s-2-.9-2-2 .9-2 2-2 2 .9 2 2zm-7.96 0c0 1.1-.9 2-2 2-1.12 0-2-.9-2-2s.88-2 2-2c1.1 0 2 .9 2 2zm-7.98 0c0 1.1-.9 2-2 2s-2-.9-2-2 .9-2 2-2 2 .9 2 2zm-7.96 0c0 1.1-.9 2-2 2s-2-.9-2-2 .9-2 2-2 2 .9 2 2zm-7.96 0c0 1.12-.9 2-2 2s-2-.88-2-2c0-1.1.9-2 2-2s2 .9 2 2zm-7.97 0c0 1.12-.9 2-2 2s-2-.88-2-2c0-1.1.9-2 2-2s2 .9 2 2zm-7.96 0c0 1.12-.9 2-2 2s-2-.88-2-2c0-1.1.9-2 2-2s2 .9 2 2zm-7.96 0c0 1.12-.9 2-2 2s-2-.88-2-2c0-1.1.9-2 2-2s2 .9 2 2zm-7.96 0c0 1.12-.9 2-2 2s-2-.88-2-2c0-1.1.9-2 2-2s2 .9 2 2zm-7.96.02c0 1.1-.9 2-2 2s-2-.9-2-2 .9-2 2-2 2 .9 2 2zm-7.96 0c0 1.1-.9 2-2 2s-2-.9-2-2 .9-2 2-2 2 .9 2 2zm-7.97 0c0 1.1-.9 2-2 2s-2-.9-2-2 .9-2 2-2 2 .9 2 2zm-7.96 0c0 1.1-.9 2-2 2-1.12 0-2-.9-2-2s.88-2 2-2c1.1 0 2 .9 2 2zm-7.98 0c0 1.1-.9 2-2 2s-2-.9-2-2 .9-2 2-2 2 .9 2 2zm-7.96 0c0 1.1-.9 2-2 2s-2-.9-2-2 .9-2 2-2 2 .9 2 2zm-7.96 0c0 1.1-.9 2-2 2s-2-.9-2-2 .9-2 2-2 2 .9 2 2zm-7.97 0c0 1.1-.9 2-2 2s-2-.9-2-2 .9-2 2-2 2 .9 2 2zm-7.96 0c0 1.1-.9 2-2 2s-2-.9-2-2 .9-2 2-2 2 .9 2 2zm-7.96 0c0 1.1-.9 2-2 2s-2-.9-2-2 .9-2 2-2 2 .9 2 2zm-7.96 0c0 1.1-.9 2-2 2s-2-.9-2-2 .9-2 2-2 2 .9 2 2zm-7.96 0c0 1.1-.9 2-2 2s-2-.9-2-2 .9-2 2-2 2 .9 2 2zm-7.96 0c0 1.1-.9 2-2 2s-2-.9-2-2 .9-2 2-2 2 .9 2 2zm-7.97 0c0 1.1-.9 2-2 2s-2-.9-2-2 .9-2 2-2 2 .9 2 2zm-7.96 0c0 1.1-.9 2-2 2-1.12 0-2-.9-2-2s.88-2 2-2c1.1 0 2 .9 2 2zm-7.97 0c0 1.1-.9 2-2 2s-2-.9-2-2 .9-2 2-2 2 .9 2 2zm-7.97 0c0 1.1-.9 2-2 2s-2-.9-2-2 .9-2 2-2 2 .9 2 2zm-7.96 0c0 1.12-.9 2-2 2s-2-.88-2-2c0-1.1.9-2 2-2s2 .9 2 2zm-7.97 0c0 1.12-.9 2-2 2s-2-.88-2-2c0-1.1.9-2 2-2s2 .9 2 2zm-7.96 0c0 1.12-.9 2-2 2s-2-.88-2-2c0-1.1.9-2 2-2s2 .9 2 2zm-7.96 0c0 1.12-.9 2-2 2s-2-.88-2-2c0-1.1.9-2 2-2s2 .9 2 2zm-7.96 0c0 1.12-.9 2-2 2s-2-.88-2-2c0-1.1.9-2 2-2s2 .9 2 2zm-7.96.02c0 1.1-.9 2-2 2s-2-.9-2-2c0-1.12.9-2 2-2s2 .88 2 2zm-7.96 0c0 1.1-.9 2-2 2s-2-.9-2-2c0-1.12.9-2 2-2s2 .88 2 2zm-7.97 0c0 1.1-.9 2-2 2s-2-.9-2-2c0-1.12.9-2 2-2s2 .88 2 2zm-7.96 0c0 1.1-.9 2-2 2s-2-.9-2-2c0-1.12.9-2 2-2s2 .88 2 2zm-7.97 0c0 1.1-.9 2-2 2s-2-.9-2-2c0-1.12.9-2 2-2s2 .88 2 2zm-7.97 0c0 1.1-.9 2-2 2s-2-.9-2-2c0-1.12.9-2 2-2s2 .88 2 2zm-7.96 0c0 1.1-.9 2-2 2s-2-.9-2-2 .9-2 2-2 2 .9 2 2zm-7.96 0c0 1.1-.9 2-2 2s-2-.9-2-2 .9-2 2-2 2 .9 2 2zm-7.97 0c0 1.1-.9 2-2 2s-2-.9-2-2 .9-2 2-2 2 .9 2 2zm-7.96 0c0 1.1-.9 2-2 2s-2-.9-2-2 .9-2 2-2 2 .9 2 2zm-7.96 0c0 1.1-.9 2-2 2s-2-.9-2-2 .9-2 2-2 2 .9 2 2zm-7.96 0c0 1.1-.9 2-2 2s-2-.9-2-2 .9-2 2-2 2 .9 2 2zm-7.96 0c0 1.1-.9 2-2 2s-2-.9-2-2 .9-2 2-2 2 .9 2 2zm-7.97 0c0 1.1-.9 2-2 2s-2-.9-2-2 .9-2 2-2 2 .9 2 2zm-7.96 0c0 1.1-.9 2-2 2s-2-.9-2-2 .9-2 2-2 2 .9 2 2zm-7.97 0c0 1.1-.9 2-2 2s-2-.9-2-2 .9-2 2-2 2 .9 2 2zm-7.97 0c0 1.1-.9 2-2 2s-2-.9-2-2 .9-2 2-2 2 .9 2 2zm-7.96 0c0 1.1-.9 2-2 2s-2-.9-2-2 .9-2 2-2 2 .9 2 2zm-5.93-5.06c0 1.1-.9 2-2 2s-2-.9-2-2 .9-2 2-2 2 .9 2 2zm0-8.02c0 1.1-.9 2-2 2s-2-.9-2-2 .9-2 2-2 2 .9 2 2zm0-8c0 1.1-.9 2-2 2s-2-.9-2-2 .9-2 2-2 2 .9 2 2zm0-8.02c0 1.1-.9 2-2 2s-2-.9-2-2 .9-2 2-2 2 .9 2 2zm0-8.02c0 1.1-.9 2-2 2s-2-.9-2-2 .9-2 2-2 2 .9 2 2zm0-8c0 1.1-.9 2-2 2s-2-.9-2-2c0-1.12.9-2 2-2s2 .88 2 2zm0-8.03c0 1.1-.9 2-2 2s-2-.9-2-2 .9-2 2-2 2 .9 2 2zm0-8c0 1.1-.9 2-2 2s-2-.9-2-2c0-1.12.9-2 2-2s2 .88 2 2zm0-8.03c0 1.1-.9 2-2 2s-2-.9-2-2 .9-2 2-2 2 .9 2 2zm0-8c0 1.1-.9 2-2 2s-2-.9-2-2 .9-2 2-2 2 .9 2 2zm0-8.02c0 1.1-.9 2-2 2s-2-.9-2-2 .9-2 2-2 2 .9 2 2zm0-8.02c0 1.1-.9 2-2 2s-2-.9-2-2 .9-2 2-2 2 .9 2 2zm0-8c0 1.1-.9 2-2 2s-2-.9-2-2c0-1.12.9-2 2-2s2 .88 2 2zm0-8.03c0 1.1-.9 2-2 2-1.12 0-2-.9-2-2s.88-2 2-2c1.1 0 2 .9 2 2zm0-8c0 1.1-.9 2-2 2-1.12 0-2-.9-2-2 0-1.12.88-2 2-2 1.1 0 2 .88 2 2zm0-8.02c0 1.1-.9 2-2 2-1.12 0-2-.9-2-2s.88-2 2-2c1.1 0 2 .9 2 2zm0-8.02c0 1.12-.9 2-2 2-1.12 0-2-.88-2-2 0-1.1.88-2 2-2 1.1 0 2 .9 2 2zm-.02-8c0 1.1-.9 2-2 2s-2-.9-2-2 .9-2 2-2 2 .9 2 2zm0-8.02c0 1.1-.9 2-2 2s-2-.9-2-2 .9-2 2-2 2 .9 2 2zm0-8c0 1.1-.9 2-2 2s-2-.9-2-2c0-1.12.9-2 2-2s2 .88 2 2zm0-8.03c0 1.1-.9 2-2 2s-2-.9-2-2 .9-2 2-2 2 .9 2 2zm0-8c0 1.1-.9 2-2 2s-2-.9-2-2 .9-2 2-2 2 .9 2 2zm0-8.02c0 1.1-.9 2-2 2s-2-.9-2-2 .9-2 2-2 2 .9 2 2zm0-8.02c0 1.12-.9 2-2 2s-2-.88-2-2c0-1.1.9-2 2-2s2 .9 2 2zm0-8c0 1.1-.9 2-2 2s-2-.9-2-2 .9-2 2-2 2 .9 2 2zm0-8.02c0 1.1-.9 2-2 2s-2-.9-2-2 .9-2 2-2 2 .9 2 2zm0-8c0 1.1-.9 2-2 2s-2-.9-2-2c0-1.12.9-2 2-2s2 .88 2 2zm0-8.03c0 1.1-.9 2-2 2s-2-.9-2-2 .9-2 2-2 2 .9 2 2zm0-8c0 1.1-.9 2-2 2s-2-.9-2-2 .9-2 2-2 2 .9 2 2zm0-8.02c0 1.1-.9 2-2 2s-2-.9-2-2 .9-2 2-2 2 .9 2 2zm0-8.02c0 1.12-.9 2-2 2s-2-.88-2-2c0-1.1.9-2 2-2s2 .9 2 2zm0-8c0 1.1-.9 2-2 2-1.12 0-2-.9-2-2s.88-2 2-2c1.1 0 2 .9 2 2zm0-8.02c0 1.1-.9 2-2 2-1.12 0-2-.9-2-2s.88-2 2-2c1.1 0 2 .9 2 2zm0-8c0 1.1-.9 2-2 2-1.12 0-2-.9-2-2 0-1.12.88-2 2-2 1.1 0 2 .88 2 2zm0-8.02c0 1.1-.9 2-2 2-1.12 0-2-.9-2-2s.88-2 2-2c1.1 0 2 .9 2 2zm-.02-8.02c0 1.1-.9 2-2 2s-2-.9-2-2 .9-2 2-2 2 .9 2 2zm0-8c0 1.1-.9 2-2 2s-2-.9-2-2c0-1.12.9-2 2-2s2 .88 2 2zm0-8.03c0 1.12-.9 2-2 2s-2-.88-2-2c0-1.1.9-2 2-2s2 .9 2 2zm0-8c0 1.1-.9 2-2 2s-2-.9-2-2 .9-2 2-2 2 .9 2 2zm0-8.02c0 1.1-.9 2-2 2s-2-.9-2-2 .9-2 2-2 2 .9 2 2zm0-8c0 1.1-.9 2-2 2s-2-.9-2-2 .9-2 2-2 2 .9 2 2zm0-8.02c0 1.1-.9 2-2 2s-2-.9-2-2 .9-2 2-2 2 .9 2 2zm0-8.02c0 1.1-.9 2-2 2s-2-.9-2-2 .9-2 2-2 2 .9 2 2zm0-8c0 1.1-.9 2-2 2s-2-.9-2-2c0-1.12.9-2 2-2s2 .88 2 2zm0-8.03c0 1.12-.9 2-2 2s-2-.88-2-2c0-1.1.9-2 2-2s2 .9 2 2zm0-8c0 1.1-.9 2-2 2s-2-.9-2-2 .9-2 2-2 2 .9 2 2zm0-8.02c0 1.1-.9 2-2 2s-2-.9-2-2 .9-2 2-2 2 .9 2 2zm0-8c0 1.1-.9 2-2 2s-2-.9-2-2 .9-2 2-2 2 .9 2 2zm0-8.02c0 1.1-.9 2-2 2s-2-.9-2-2 .9-2 2-2 2 .9 2 2zm0-8.02c0 1.1-.9 2-2 2-1.12 0-2-.9-2-2s.88-2 2-2c1.1 0 2 .9 2 2zm0-8c0 1.1-.9 2-2 2-1.12 0-2-.9-2-2 0-1.12.88-2 2-2 1.1 0 2 .88 2 2zm0-8.03c0 1.12-.9 2-2 2-1.12 0-2-.88-2-2 0-1.1.88-2 2-2 1.1 0 2 .9 2 2zm0-8c0 1.1-.9 2-2 2-1.12 0-2-.9-2-2s.88-2 2-2c1.1 0 2 .9 2 2zm-.02-8.02c0 1.1-.88 2-2 2-1.1 0-2-.9-2-2s.9-2 2-2c1.12 0 2 .9 2 2zm0-8c0 1.1-.88 2-2 2-1.1 0-2-.9-2-2s.9-2 2-2c1.12 0 2 .9 2 2zm0-8.02c0 1.1-.88 2-2 2-1.1 0-2-.9-2-2s.9-2 2-2c1.12 0 2 .9 2 2zm0-8.02c0 1.1-.88 2-2 2-1.1 0-2-.9-2-2s.9-2 2-2c1.12 0 2 .9 2 2zm0-8c0 1.1-.9 2-2 2s-2-.9-2-2c0-1.12.9-2 2-2s2 .88 2 2zm0-8.03c0 1.12-.9 2-2 2s-2-.88-2-2c0-1.1.9-2 2-2s2 .9 2 2zm0-8c0 1.1-.9 2-2 2s-2-.9-2-2 .9-2 2-2 2 .9 2 2zm0-8c0 1.1-.9 2-2 2s-2-.9-2-2c0-1.12.9-2 2-2s2 .88 2 2zm0-8.03c0 1.1-.9 2-2 2s-2-.9-2-2 .9-2 2-2 2 .9 2 2zm0-8c0 1.1-.9 2-2 2s-2-.9-2-2c0-1.12.9-2 2-2s2 .88 2 2zm0-8.03c0 1.1-.9 2-2 2s-2-.9-2-2 .9-2 2-2 2 .9 2 2zm0-8c0 1.1-.9 2-2 2s-2-.9-2-2c0-1.12.9-2 2-2s2 .88 2 2zm0-8.03c0 1.12-.9 2-2 2s-2-.88-2-2c0-1.1.9-2 2-2s2 .9 2 2zm0-8c0 1.1-.9 2-2 2s-2-.9-2-2 .9-2 2-2 2 .9 2 2z" fill="#3a414a"/><use xlink:href="#d" transform="matrix(1,0,0,1,1065,165) translate(227.00000000000003 520.4419822933332)"/><use xlink:href="#b" transform="matrix(1,0,0,1,1065,165) translate(317.22222222222223 520.4419822933332)"/><use xlink:href="#e" transform="matrix(1,0,0,1,1065,165) translate(369.0740740740741 520.4419822933332)"/><path d="M40 166a6 6 0 0 1 6-6h328a6 6 0 0 1 6 6v528a6 6 0 0 1-6 6H46a6 6 0 0 1-6-6z" fill-opacity="0"/><path d="M42 166c0 1.1-.9 2-2 2s-2-.9-2-2 .9-2 2-2 2 .9 2 2zm5.06-5.93c0 1.1-.9 2-2 2s-2-.9-2-2 .9-2 2-2 2 .9 2 2zm8.02 0c0 1.1-.9 2-2 2s-2-.9-2-2 .9-2 2-2 2 .9 2 2zm8.03 0c0 1.1-.9 2-2 2s-2-.9-2-2 .9-2 2-2 2 .9 2 2zm8.03 0c0 1.1-.9 2-2 2s-2-.9-2-2 .9-2 2-2 2 .9 2 2zm8.02 0c0 1.1-.9 2-2 2s-2-.9-2-2 .9-2 2-2 2 .9 2 2zm8.03 0c0 1.1-.9 2-2 2s-2-.9-2-2 .9-2 2-2 2 .9 2 2zm8.02 0c0 1.1-.9 2-2 2s-2-.9-2-2 .9-2 2-2 2 .9 2 2zm8.02 0c0 1.1-.9 2-2 2s-2-.9-2-2 .9-2 2-2 2 .9 2 2zm8.02 0c0 1.1-.9 2-2 2s-2-.9-2-2c0-1.12.9-2 2-2s2 .88 2 2zm8.03 0c0 1.1-.9 2-2 2s-2-.9-2-2c0-1.12.9-2 2-2s2 .88 2 2zm8.02 0c0 1.1-.9 2-2 2s-2-.9-2-2c0-1.12.9-2 2-2s2 .88 2 2zm8-.02c0 1.1-.88 2-2 2-1.1 0-2-.9-2-2s.9-2 2-2c1.12 0 2 .9 2 2zm8.04 0c0 1.1-.9 2-2 2s-2-.9-2-2 .9-2 2-2 2 .9 2 2zm8.02 0c0 1.1-.9 2-2 2s-2-.9-2-2 .9-2 2-2 2 .9 2 2zm8.02 0c0 1.1-.9 2-2 2s-2-.9-2-2 .9-2 2-2 2 .9 2 2zm8.02 0c0 1.1-.9 2-2 2s-2-.9-2-2 .9-2 2-2 2 .9 2 2zm8.03 0c0 1.1-.9 2-2 2s-2-.9-2-2 .9-2 2-2 2 .9 2 2zm8.02 0c0 1.1-.9 2-2 2s-2-.9-2-2 .9-2 2-2 2 .9 2 2zm8.02 0c0 1.1-.9 2-2 2s-2-.9-2-2 .9-2 2-2 2 .9 2 2zm8.03 0c0 1.1-.9 2-2 2s-2-.9-2-2 .9-2 2-2 2 .9 2 2zm8.02 0c0 1.1-.9 2-2 2s-2-.9-2-2c0-1.12.9-2 2-2s2 .88 2 2zm8.02 0c0 1.1-.9 2-2 2s-2-.9-2-2c0-1.12.9-2 2-2s2 .88 2 2zm8.03-.02c0 1.1-.9 2-2 2s-2-.9-2-2 .9-2 2-2 2 .9 2 2zm8.02 0c0 1.1-.9 2-2 2-1.12 0-2-.9-2-2s.88-2 2-2c1.1 0 2 .9 2 2zm8 0c0 1.1-.88 2-2 2-1.1 0-2-.9-2-2s.9-2 2-2c1.12 0 2 .9 2 2zm8.03 0c0 1.1-.9 2-2 2s-2-.9-2-2 .9-2 2-2 2 .9 2 2zm8.03 0c0 1.1-.9 2-2 2s-2-.9-2-2 .9-2 2-2 2 .9 2 2zm8.02 0c0 1.1-.9 2-2 2s-2-.9-2-2 .9-2 2-2 2 .9 2 2zm8.02 0c0 1.1-.9 2-2 2s-2-.9-2-2 .9-2 2-2 2 .9 2 2zm8.03 0c0 1.1-.9 2-2 2s-2-.9-2-2 .9-2 2-2 2 .9 2 2zm8.02 0c0 1.1-.9 2-2 2s-2-.9-2-2 .9-2 2-2 2 .9 2 2zm8.02 0c0 1.1-.9 2-2 2s-2-.9-2-2c0-1.12.9-2 2-2s2 .88 2 2zm8.02 0c0 1.1-.9 2-2 2s-2-.9-2-2c0-1.12.9-2 2-2s2 .88 2 2zm8.02-.02c0 1.12-.9 2-2 2s-2-.88-2-2c0-1.1.9-2 2-2s2 .9 2 2zm8.02 0c0 1.12-.9 2-2 2s-2-.88-2-2c0-1.1.9-2 2-2s2 .9 2 2zm8.02 0c0 1.12-.9 2-2 2s-2-.88-2-2c0-1.1.9-2 2-2s2 .9 2 2zm8.03 0c0 1.1-.9 2-2 2-1.12 0-2-.9-2-2s.88-2 2-2c1.1 0 2 .9 2 2zm8 0c0 1.1-.9 2-2 2s-2-.9-2-2 .9-2 2-2 2 .9 2 2zm8.03 0c0 1.1-.9 2-2 2s-2-.9-2-2 .9-2 2-2 2 .9 2 2zm8.02 0c0 1.1-.9 2-2 2s-2-.9-2-2 .9-2 2-2 2 .9 2 2zm8.03 0c0 1.1-.9 2-2 2s-2-.9-2-2 .9-2 2-2 2 .9 2 2zm8.02 0c0 1.1-.9 2-2 2s-2-.9-2-2 .9-2 2-2 2 .9 2 2zm5.93 5.06c0 1.1-.9 2-2 2s-2-.9-2-2 .9-2 2-2 2 .9 2 2zm0 8.02c0 1.1-.9 2-2 2s-2-.9-2-2 .9-2 2-2 2 .9 2 2zm0 8c0 1.1-.9 2-2 2s-2-.9-2-2 .9-2 2-2 2 .9 2 2zm0 8.02c0 1.1-.9 2-2 2s-2-.9-2-2 .9-2 2-2 2 .9 2 2zm0 8.02c0 1.1-.9 2-2 2s-2-.9-2-2 .9-2 2-2 2 .9 2 2zm0 8c0 1.12-.9 2-2 2s-2-.88-2-2c0-1.1.9-2 2-2s2 .9 2 2zm0 8.03c0 1.1-.9 2-2 2s-2-.9-2-2 .9-2 2-2 2 .9 2 2zm0 8c0 1.12-.9 2-2 2s-2-.88-2-2c0-1.1.9-2 2-2s2 .9 2 2zm0 8.03c0 1.1-.9 2-2 2s-2-.9-2-2 .9-2 2-2 2 .9 2 2zm0 8c0 1.1-.9 2-2 2s-2-.9-2-2 .9-2 2-2 2 .9 2 2zm0 8.02c0 1.1-.9 2-2 2s-2-.9-2-2 .9-2 2-2 2 .9 2 2zm0 8.02c0 1.1-.9 2-2 2s-2-.9-2-2 .9-2 2-2 2 .9 2 2zm0 8c0 1.12-.9 2-2 2s-2-.88-2-2c0-1.1.9-2 2-2s2 .9 2 2zm0 8.03c0 1.1-.88 2-2 2-1.1 0-2-.9-2-2s.9-2 2-2c1.12 0 2 .9 2 2zm0 8c0 1.12-.88 2-2 2-1.1 0-2-.88-2-2 0-1.1.9-2 2-2 1.12 0 2 .9 2 2zm0 8.02c0 1.1-.88 2-2 2-1.1 0-2-.9-2-2s.9-2 2-2c1.12 0 2 .9 2 2zm0 8.02c0 1.1-.88 2-2 2-1.1 0-2-.9-2-2 0-1.12.9-2 2-2 1.12 0 2 .88 2 2zm.02 8c0 1.1-.9 2-2 2s-2-.9-2-2 .9-2 2-2 2 .9 2 2zm0 8.02c0 1.1-.9 2-2 2s-2-.9-2-2 .9-2 2-2 2 .9 2 2zm0 8c0 1.12-.9 2-2 2s-2-.88-2-2c0-1.1.9-2 2-2s2 .9 2 2zm0 8.03c0 1.1-.9 2-2 2s-2-.9-2-2 .9-2 2-2 2 .9 2 2zm0 8c0 1.1-.9 2-2 2s-2-.9-2-2 .9-2 2-2 2 .9 2 2zm0 8.02c0 1.1-.9 2-2 2s-2-.9-2-2 .9-2 2-2 2 .9 2 2zm0 8.02c0 1.1-.9 2-2 2s-2-.9-2-2c0-1.12.9-2 2-2s2 .88 2 2zm0 8c0 1.1-.9 2-2 2s-2-.9-2-2 .9-2 2-2 2 .9 2 2zm0 8.02c0 1.1-.9 2-2 2s-2-.9-2-2 .9-2 2-2 2 .9 2 2zm0 8c0 1.12-.9 2-2 2s-2-.88-2-2c0-1.1.9-2 2-2s2 .9 2 2zm0 8.03c0 1.1-.9 2-2 2s-2-.9-2-2 .9-2 2-2 2 .9 2 2zm0 8c0 1.1-.9 2-2 2s-2-.9-2-2 .9-2 2-2 2 .9 2 2zm0 8.02c0 1.1-.9 2-2 2s-2-.9-2-2 .9-2 2-2 2 .9 2 2zm0 8.02c0 1.1-.9 2-2 2s-2-.9-2-2c0-1.12.9-2 2-2s2 .88 2 2zm0 8c0 1.1-.88 2-2 2-1.1 0-2-.9-2-2s.9-2 2-2c1.12 0 2 .9 2 2zm0 8.02c0 1.1-.88 2-2 2-1.1 0-2-.9-2-2s.9-2 2-2c1.12 0 2 .9 2 2zm0 8c0 1.12-.88 2-2 2-1.1 0-2-.88-2-2 0-1.1.9-2 2-2 1.12 0 2 .9 2 2zm0 8.02c0 1.1-.88 2-2 2-1.1 0-2-.9-2-2s.9-2 2-2c1.12 0 2 .9 2 2zm.02 8.02c0 1.1-.9 2-2 2s-2-.9-2-2 .9-2 2-2 2 .9 2 2zm0 8c0 1.12-.9 2-2 2s-2-.88-2-2c0-1.1.9-2 2-2s2 .9 2 2zm0 8.03c0 1.1-.9 2-2 2s-2-.9-2-2c0-1.12.9-2 2-2s2 .88 2 2zm0 8c0 1.1-.9 2-2 2s-2-.9-2-2 .9-2 2-2 2 .9 2 2zm0 8.02c0 1.1-.9 2-2 2s-2-.9-2-2 .9-2 2-2 2 .9 2 2zm0 8c0 1.1-.9 2-2 2s-2-.9-2-2 .9-2 2-2 2 .9 2 2zm0 8.02c0 1.1-.9 2-2 2s-2-.9-2-2 .9-2 2-2 2 .9 2 2zm0 8.02c0 1.1-.9 2-2 2s-2-.9-2-2 .9-2 2-2 2 .9 2 2zm0 8c0 1.12-.9 2-2 2s-2-.88-2-2c0-1.1.9-2 2-2s2 .9 2 2zm0 8.03c0 1.1-.9 2-2 2s-2-.9-2-2c0-1.12.9-2 2-2s2 .88 2 2zm0 8c0 1.1-.9 2-2 2s-2-.9-2-2 .9-2 2-2 2 .9 2 2zm0 8.02c0 1.1-.9 2-2 2s-2-.9-2-2 .9-2 2-2 2 .9 2 2zm0 8c0 1.1-.9 2-2 2s-2-.9-2-2 .9-2 2-2 2 .9 2 2zm0 8.02c0 1.1-.9 2-2 2s-2-.9-2-2 .9-2 2-2 2 .9 2 2zm0 8.02c0 1.1-.88 2-2 2-1.1 0-2-.9-2-2s.9-2 2-2c1.12 0 2 .9 2 2zm0 8c0 1.12-.88 2-2 2-1.1 0-2-.88-2-2 0-1.1.9-2 2-2 1.12 0 2 .9 2 2zm0 8.03c0 1.1-.88 2-2 2-1.1 0-2-.9-2-2 0-1.12.9-2 2-2 1.12 0 2 .88 2 2zm0 8c0 1.1-.88 2-2 2-1.1 0-2-.9-2-2s.9-2 2-2c1.12 0 2 .9 2 2zm.02 8.02c0 1.1-.9 2-2 2-1.12 0-2-.9-2-2s.88-2 2-2c1.1 0 2 .9 2 2zm0 8c0 1.1-.9 2-2 2-1.12 0-2-.9-2-2s.88-2 2-2c1.1 0 2 .9 2 2zm0 8.02c0 1.1-.9 2-2 2-1.12 0-2-.9-2-2s.88-2 2-2c1.1 0 2 .9 2 2zm0 8.02c0 1.1-.9 2-2 2-1.12 0-2-.9-2-2s.88-2 2-2c1.1 0 2 .9 2 2zm0 8c0 1.12-.9 2-2 2s-2-.88-2-2c0-1.1.9-2 2-2s2 .9 2 2zm0 8.03c0 1.1-.9 2-2 2s-2-.9-2-2c0-1.12.9-2 2-2s2 .88 2 2zm0 8c0 1.1-.9 2-2 2s-2-.9-2-2 .9-2 2-2 2 .9 2 2zm0 8c0 1.12-.9 2-2 2s-2-.88-2-2c0-1.1.9-2 2-2s2 .9 2 2zm0 8.03c0 1.1-.9 2-2 2s-2-.9-2-2 .9-2 2-2 2 .9 2 2zm0 8c0 1.12-.9 2-2 2s-2-.88-2-2c0-1.1.9-2 2-2s2 .9 2 2zm0 8.03c0 1.1-.9 2-2 2s-2-.9-2-2 .9-2 2-2 2 .9 2 2zm0 8c0 1.12-.9 2-2 2s-2-.88-2-2c0-1.1.9-2 2-2s2 .9 2 2zm0 8.03c0 1.1-.9 2-2 2s-2-.9-2-2c0-1.12.9-2 2-2s2 .88 2 2zm0 8c0 1.1-.9 2-2 2s-2-.9-2-2 .9-2 2-2 2 .9 2 2zm-5.06 5.93c0 1.1-.9 2-2 2s-2-.9-2-2 .9-2 2-2 2 .9 2 2zm-8.02 0c0 1.1-.9 2-2 2s-2-.9-2-2 .9-2 2-2 2 .9 2 2zm-8.03 0c0 1.1-.9 2-2 2s-2-.9-2-2 .9-2 2-2 2 .9 2 2zm-8.03 0c0 1.1-.9 2-2 2s-2-.9-2-2 .9-2 2-2 2 .9 2 2zm-8.02 0c0 1.1-.9 2-2 2s-2-.9-2-2 .9-2 2-2 2 .9 2 2zm-8.03 0c0 1.1-.9 2-2 2s-2-.9-2-2 .9-2 2-2 2 .9 2 2zm-8.02 0c0 1.1-.9 2-2 2s-2-.9-2-2 .9-2 2-2 2 .9 2 2zm-8.02 0c0 1.1-.9 2-2 2s-2-.9-2-2 .9-2 2-2 2 .9 2 2zm-8.02 0c0 1.12-.9 2-2 2s-2-.88-2-2c0-1.1.9-2 2-2s2 .9 2 2zm-8.03 0c0 1.12-.9 2-2 2s-2-.88-2-2c0-1.1.9-2 2-2s2 .9 2 2zm-8.02 0c0 1.12-.9 2-2 2s-2-.88-2-2c0-1.1.9-2 2-2s2 .9 2 2zm-8 .02c0 1.1-.9 2-2 2-1.12 0-2-.9-2-2s.88-2 2-2c1.1 0 2 .9 2 2zm-8.04 0c0 1.1-.9 2-2 2s-2-.9-2-2 .9-2 2-2 2 .9 2 2zm-8.02 0c0 1.1-.9 2-2 2s-2-.9-2-2 .9-2 2-2 2 .9 2 2zm-8.02 0c0 1.1-.9 2-2 2s-2-.9-2-2 .9-2 2-2 2 .9 2 2zm-8.02 0c0 1.1-.9 2-2 2s-2-.9-2-2 .9-2 2-2 2 .9 2 2zm-8.03 0c0 1.1-.9 2-2 2s-2-.9-2-2 .9-2 2-2 2 .9 2 2zm-8.02 0c0 1.1-.9 2-2 2s-2-.9-2-2 .9-2 2-2 2 .9 2 2zm-8.02 0c0 1.1-.9 2-2 2s-2-.9-2-2 .9-2 2-2 2 .9 2 2zm-8.03 0c0 1.1-.9 2-2 2s-2-.9-2-2 .9-2 2-2 2 .9 2 2zm-8.02 0c0 1.12-.9 2-2 2s-2-.88-2-2c0-1.1.9-2 2-2s2 .9 2 2zm-8.02 0c0 1.12-.9 2-2 2s-2-.88-2-2c0-1.1.9-2 2-2s2 .9 2 2zm-8.03.02c0 1.1-.9 2-2 2s-2-.9-2-2 .9-2 2-2 2 .9 2 2zm-8.02 0c0 1.1-.88 2-2 2-1.1 0-2-.9-2-2s.9-2 2-2c1.12 0 2 .9 2 2zm-8 0c0 1.1-.9 2-2 2-1.12 0-2-.9-2-2s.88-2 2-2c1.1 0 2 .9 2 2zm-8.03 0c0 1.1-.9 2-2 2s-2-.9-2-2 .9-2 2-2 2 .9 2 2zm-8.03 0c0 1.1-.9 2-2 2s-2-.9-2-2 .9-2 2-2 2 .9 2 2zm-8.02 0c0 1.1-.9 2-2 2s-2-.9-2-2 .9-2 2-2 2 .9 2 2zm-8.02 0c0 1.1-.9 2-2 2s-2-.9-2-2 .9-2 2-2 2 .9 2 2zm-8.03 0c0 1.1-.9 2-2 2s-2-.9-2-2 .9-2 2-2 2 .9 2 2zm-8.02 0c0 1.1-.9 2-2 2s-2-.9-2-2 .9-2 2-2 2 .9 2 2zm-8.02 0c0 1.12-.9 2-2 2s-2-.88-2-2c0-1.1.9-2 2-2s2 .9 2 2zm-8.02 0c0 1.12-.9 2-2 2s-2-.88-2-2c0-1.1.9-2 2-2s2 .9 2 2zm-8.02.02c0 1.1-.9 2-2 2s-2-.9-2-2c0-1.12.9-2 2-2s2 .88 2 2zm-8.02 0c0 1.1-.9 2-2 2s-2-.9-2-2c0-1.12.9-2 2-2s2 .88 2 2zm-8.02 0c0 1.1-.9 2-2 2s-2-.9-2-2c0-1.12.9-2 2-2s2 .88 2 2zm-8.03 0c0 1.1-.88 2-2 2-1.1 0-2-.9-2-2s.9-2 2-2c1.12 0 2 .9 2 2zm-8 0c0 1.1-.9 2-2 2s-2-.9-2-2 .9-2 2-2 2 .9 2 2zm-8.03 0c0 1.1-.9 2-2 2s-2-.9-2-2 .9-2 2-2 2 .9 2 2zm-8.02 0c0 1.1-.9 2-2 2s-2-.9-2-2 .9-2 2-2 2 .9 2 2zm-8.03 0c0 1.1-.9 2-2 2s-2-.9-2-2 .9-2 2-2 2 .9 2 2zM48 700c0 1.1-.9 2-2 2s-2-.9-2-2 .9-2 2-2 2 .9 2 2zm-5.93-5.06c0 1.1-.9 2-2 2s-2-.9-2-2 .9-2 2-2 2 .9 2 2zm0-8.02c0 1.1-.9 2-2 2s-2-.9-2-2 .9-2 2-2 2 .9 2 2zm0-8c0 1.1-.9 2-2 2s-2-.9-2-2 .9-2 2-2 2 .9 2 2zm0-8.02c0 1.1-.9 2-2 2s-2-.9-2-2 .9-2 2-2 2 .9 2 2zm0-8.02c0 1.1-.9 2-2 2s-2-.9-2-2 .9-2 2-2 2 .9 2 2zm0-8c0 1.1-.9 2-2 2s-2-.9-2-2c0-1.12.9-2 2-2s2 .88 2 2zm0-8.03c0 1.1-.9 2-2 2s-2-.9-2-2 .9-2 2-2 2 .9 2 2zm0-8c0 1.1-.9 2-2 2s-2-.9-2-2c0-1.12.9-2 2-2s2 .88 2 2zm0-8.03c0 1.1-.9 2-2 2s-2-.9-2-2 .9-2 2-2 2 .9 2 2zm0-8c0 1.1-.9 2-2 2s-2-.9-2-2 .9-2 2-2 2 .9 2 2zm0-8.02c0 1.1-.9 2-2 2s-2-.9-2-2 .9-2 2-2 2 .9 2 2zm0-8.02c0 1.1-.9 2-2 2s-2-.9-2-2 .9-2 2-2 2 .9 2 2zm0-8c0 1.1-.9 2-2 2s-2-.9-2-2c0-1.12.9-2 2-2s2 .88 2 2zm0-8.03c0 1.1-.9 2-2 2-1.12 0-2-.9-2-2s.88-2 2-2c1.1 0 2 .9 2 2zm0-8c0 1.1-.9 2-2 2-1.12 0-2-.9-2-2 0-1.12.88-2 2-2 1.1 0 2 .88 2 2zm0-8.02c0 1.1-.9 2-2 2-1.12 0-2-.9-2-2s.88-2 2-2c1.1 0 2 .9 2 2zm0-8.02c0 1.12-.9 2-2 2-1.12 0-2-.88-2-2 0-1.1.88-2 2-2 1.1 0 2 .9 2 2zm-.02-8c0 1.1-.9 2-2 2s-2-.9-2-2 .9-2 2-2 2 .9 2 2zm0-8.02c0 1.1-.9 2-2 2s-2-.9-2-2 .9-2 2-2 2 .9 2 2zm0-8c0 1.1-.9 2-2 2s-2-.9-2-2c0-1.12.9-2 2-2s2 .88 2 2zm0-8.03c0 1.1-.9 2-2 2s-2-.9-2-2 .9-2 2-2 2 .9 2 2zm0-8c0 1.1-.9 2-2 2s-2-.9-2-2 .9-2 2-2 2 .9 2 2zm0-8.02c0 1.1-.9 2-2 2s-2-.9-2-2 .9-2 2-2 2 .9 2 2zm0-8.02c0 1.12-.9 2-2 2s-2-.88-2-2c0-1.1.9-2 2-2s2 .9 2 2zm0-8c0 1.1-.9 2-2 2s-2-.9-2-2 .9-2 2-2 2 .9 2 2zm0-8.02c0 1.1-.9 2-2 2s-2-.9-2-2 .9-2 2-2 2 .9 2 2zm0-8c0 1.1-.9 2-2 2s-2-.9-2-2c0-1.12.9-2 2-2s2 .88 2 2zm0-8.03c0 1.1-.9 2-2 2s-2-.9-2-2 .9-2 2-2 2 .9 2 2zm0-8c0 1.1-.9 2-2 2s-2-.9-2-2 .9-2 2-2 2 .9 2 2zm0-8.02c0 1.1-.9 2-2 2s-2-.9-2-2 .9-2 2-2 2 .9 2 2zm0-8.02c0 1.12-.9 2-2 2s-2-.88-2-2c0-1.1.9-2 2-2s2 .9 2 2zm0-8c0 1.1-.9 2-2 2-1.12 0-2-.9-2-2s.88-2 2-2c1.1 0 2 .9 2 2zm0-8.02c0 1.1-.9 2-2 2-1.12 0-2-.9-2-2s.88-2 2-2c1.1 0 2 .9 2 2zm0-8c0 1.1-.9 2-2 2-1.12 0-2-.9-2-2 0-1.12.88-2 2-2 1.1 0 2 .88 2 2zm0-8.02c0 1.1-.9 2-2 2-1.12 0-2-.9-2-2s.88-2 2-2c1.1 0 2 .9 2 2zm-.02-8.02c0 1.1-.9 2-2 2s-2-.9-2-2 .9-2 2-2 2 .9 2 2zm0-8c0 1.1-.9 2-2 2s-2-.9-2-2c0-1.12.9-2 2-2s2 .88 2 2zm0-8.03c0 1.12-.9 2-2 2s-2-.88-2-2c0-1.1.9-2 2-2s2 .9 2 2zm0-8c0 1.1-.9 2-2 2s-2-.9-2-2 .9-2 2-2 2 .9 2 2zm0-8.02c0 1.1-.9 2-2 2s-2-.9-2-2 .9-2 2-2 2 .9 2 2zm0-8c0 1.1-.9 2-2 2s-2-.9-2-2 .9-2 2-2 2 .9 2 2zm0-8.02c0 1.1-.9 2-2 2s-2-.9-2-2 .9-2 2-2 2 .9 2 2zm0-8.02c0 1.1-.9 2-2 2s-2-.9-2-2 .9-2 2-2 2 .9 2 2zm0-8c0 1.1-.9 2-2 2s-2-.9-2-2c0-1.12.9-2 2-2s2 .88 2 2zm0-8.03c0 1.12-.9 2-2 2s-2-.88-2-2c0-1.1.9-2 2-2s2 .9 2 2zm0-8c0 1.1-.9 2-2 2s-2-.9-2-2 .9-2 2-2 2 .9 2 2zm0-8.02c0 1.1-.9 2-2 2s-2-.9-2-2 .9-2 2-2 2 .9 2 2zm0-8c0 1.1-.9 2-2 2s-2-.9-2-2 .9-2 2-2 2 .9 2 2zm0-8.02c0 1.1-.9 2-2 2s-2-.9-2-2 .9-2 2-2 2 .9 2 2zm0-8.02c0 1.1-.9 2-2 2-1.12 0-2-.9-2-2s.88-2 2-2c1.1 0 2 .9 2 2zm0-8c0 1.1-.9 2-2 2-1.12 0-2-.9-2-2 0-1.12.88-2 2-2 1.1 0 2 .88 2 2zm0-8.03c0 1.12-.9 2-2 2-1.12 0-2-.88-2-2 0-1.1.88-2 2-2 1.1 0 2 .9 2 2zm0-8c0 1.1-.9 2-2 2-1.12 0-2-.9-2-2s.88-2 2-2c1.1 0 2 .9 2 2zm-.02-8.02c0 1.1-.88 2-2 2-1.1 0-2-.9-2-2s.9-2 2-2c1.12 0 2 .9 2 2zm0-8c0 1.1-.88 2-2 2-1.1 0-2-.9-2-2s.9-2 2-2c1.12 0 2 .9 2 2zm0-8.02c0 1.1-.88 2-2 2-1.1 0-2-.9-2-2s.9-2 2-2c1.12 0 2 .9 2 2zm0-8.02c0 1.1-.88 2-2 2-1.1 0-2-.9-2-2s.9-2 2-2c1.12 0 2 .9 2 2zm0-8c0 1.1-.9 2-2 2s-2-.9-2-2c0-1.12.9-2 2-2s2 .88 2 2zm0-8.03c0 1.12-.9 2-2 2s-2-.88-2-2c0-1.1.9-2 2-2s2 .9 2 2zm0-8c0 1.1-.9 2-2 2s-2-.9-2-2 .9-2 2-2 2 .9 2 2zm0-8c0 1.1-.9 2-2 2s-2-.9-2-2c0-1.12.9-2 2-2s2 .88 2 2zm0-8.03c0 1.1-.9 2-2 2s-2-.9-2-2 .9-2 2-2 2 .9 2 2zm0-8c0 1.1-.9 2-2 2s-2-.9-2-2c0-1.12.9-2 2-2s2 .88 2 2zm0-8.03c0 1.1-.9 2-2 2s-2-.9-2-2 .9-2 2-2 2 .9 2 2zm0-8c0 1.1-.9 2-2 2s-2-.9-2-2c0-1.12.9-2 2-2s2 .88 2 2zm0-8.03c0 1.12-.9 2-2 2s-2-.88-2-2c0-1.1.9-2 2-2s2 .9 2 2z" fill="#3a414a"/><use xlink:href="#f" transform="matrix(1,0,0,1,45,165) translate(14.814814814814838 520.4419822933332)"/><use xlink:href="#b" transform="matrix(1,0,0,1,45,165) translate(78.44444444444446 520.4419822933332)"/><use xlink:href="#g" transform="matrix(1,0,0,1,45,165) translate(130.2962962962963 520.4419822933332)"/><use xlink:href="#h" transform="matrix(1,0,0,1,45,165) translate(210.14814814814815 520.4419822933332)"/><path d="M80 326a6 6 0 0 1 6-6h248a6 6 0 0 1 6 6v138a6 6 0 0 1-6 6H86a6 6 0 0 1-6-6z" stroke="#3a414a" stroke-width="4" fill="#ffeca9"/><use xlink:href="#a" transform="matrix(1,0,0,1,92,332) translate(8.481481481481495 37.08333333333333)"/><use xlink:href="#i" transform="matrix(1,0,0,1,92,332) translate(113.5185185185185 37.08333333333333)"/><use xlink:href="#j" transform="matrix(1,0,0,1,92,332) translate(169.74074074074073 37.08333333333333)"/><use xlink:href="#k" transform="matrix(1,0,0,1,92,332) translate(184.55555555555554 37.08333333333333)"/><use xlink:href="#l" transform="matrix(1,0,0,1,92,332) translate(28.814814814814838 69.08333333333333)"/><use xlink:href="#m" transform="matrix(1,0,0,1,92,332) translate(126.44444444444444 69.08333333333333)"/><use xlink:href="#n" transform="matrix(1,0,0,1,92,332) translate(191.62962962962962 69.08333333333333)"/><use xlink:href="#o" transform="matrix(1,0,0,1,92,332) translate(81.77777777777779 101.08333333333333)"/><path d="M343.96 395h51.34" stroke="#3a414a" stroke-width="4" fill="none"/><path d="M344 397h-2.04v-4H344z" stroke="#3a414a" stroke-width=".05" fill="#3a414a"/><path d="M411.56 395l-14.26 4.64v-9.28z" stroke="#3a414a" stroke-width="4" fill="#3a414a"/><path d="M1023.96 395h51.34" stroke="#3a414a" stroke-width="4" fill="none"/><path d="M1024 397h-2.04v-4h2.05z" stroke="#3a414a" stroke-width=".05" fill="#3a414a"/><path d="M1091.56 395l-14.26 4.64v-9.28z" stroke="#3a414a" stroke-width="4" fill="#3a414a"/><path d="M420 341a6 6 0 0 1 6-6h248a6 6 0 0 1 6 6v108a6 6 0 0 1-6 6H426a6 6 0 0 1-6-6z" stroke="#3a414a" stroke-width="4" fill="#c7e8ac"/><use xlink:href="#p" transform="matrix(1,0,0,1,432,347) translate(27.7777777777778 36.33333333333333)"/><use xlink:href="#q" transform="matrix(1,0,0,1,432,347) translate(160.96296296296296 36.33333333333333)"/><use xlink:href="#r" transform="matrix(1,0,0,1,432,347) translate(61.77777777777779 68.33333333333333)"/><path d="M760 341a6 6 0 0 1 6-6h248a6 6 0 0 1 6 6v108a6 6 0 0 1-6 6H766a6 6 0 0 1-6-6z" stroke="#3a414a" stroke-width="4" fill="#c7e8ac"/><use xlink:href="#s" transform="matrix(1,0,0,1,772,347) translate(42.62962962962963 54.33333333333333)"/><use xlink:href="#t" transform="matrix(1,0,0,1,772,347) translate(109.14814814814814 54.33333333333333)"/><use xlink:href="#u" transform="matrix(1,0,0,1,772,347) translate(137.22222222222223 54.33333333333333)"/><path d="M600 506a6 6 0 0 1 6-6h248a6 6 0 0 1 6 6v108a6 6 0 0 1-6 6H606a6 6 0 0 1-6-6z" stroke="#3a414a" stroke-width="4" fill="#c7e8ac"/><use xlink:href="#v" transform="matrix(1,0,0,1,612,512) translate(54.37037037037038 36.33333333333333)"/><use xlink:href="#t" transform="matrix(1,0,0,1,612,512) translate(110.5925925925926 36.33333333333333)"/><use xlink:href="#w" transform="matrix(1,0,0,1,612,512) translate(138.66666666666666 36.33333333333333)"/><use xlink:href="#x" transform="matrix(1,0,0,1,612,512) translate(44.777777777777786 68.33333333333333)"/><path d="M683.96 395h51.34" stroke="#3a414a" stroke-width="4" fill="none"/><path d="M684 397h-2.04v-4H684z" stroke="#3a414a" stroke-width=".05" fill="#3a414a"/><path d="M751.56 395l-14.26 4.64v-9.28z" stroke="#3a414a" stroke-width="4" fill="#3a414a"/><path d="M550 479.7V554a6 6 0 0 0 6 6h19.3" stroke="#3a414a" stroke-width="4" fill="none"/><path d="M550 463.44l4.64 14.26h-9.28zM591.56 560l-14.26 4.64v-9.28z" stroke="#3a414a" stroke-width="4" fill="#3a414a"/><path d="M884.7 560a5.3 5.3 0 0 0 5.3-5.3v-75" stroke="#3a414a" stroke-width="4" fill="none"/><path d="M868.44 560l14.26-4.64v9.28zM890 463.44l4.64 14.26h-9.28z" stroke="#3a414a" stroke-width="4" fill="#3a414a"/><path d="M1100 341a6 6 0 0 1 6-6h248a6 6 0 0 1 6 6v108a6 6 0 0 1-6 6h-248a6 6 0 0 1-6-6z" stroke="#3a414a" stroke-width="4" fill="#c7e8ac"/><g><use xlink:href="#d" transform="matrix(1,0,0,1,1112,347) translate(21.7777777777778 54.33333333333333)"/><use xlink:href="#y" transform="matrix(1,0,0,1,1112,347) translate(112 54.33333333333333)"/><use xlink:href="#z" transform="matrix(1,0,0,1,1112,347) translate(141.62962962962962 54.33333333333333)"/></g><path d="M1440 341a6 6 0 0 1 6-6h248a6 6 0 0 1 6 6v108a6 6 0 0 1-6 6h-248a6 6 0 0 1-6-6z" stroke="#3a414a" stroke-width="4" fill="#c7e8ac"/><g><use xlink:href="#A" transform="matrix(1,0,0,1,1452,347) translate(27.740740740740762 54.33333333333333)"/><use xlink:href="#B" transform="matrix(1,0,0,1,1452,347) translate(129.88888888888889 54.33333333333333)"/></g><path d="M1363.96 395h51.34" stroke="#3a414a" stroke-width="4" fill="none"/><path d="M1364 397h-2.04v-4h2.05z" stroke="#3a414a" stroke-width=".05" fill="#3a414a"/><path d="M1431.56 395l-14.26 4.64v-9.28z" stroke="#3a414a" stroke-width="4" fill="#3a414a"/><path d="M1570 331.04v-32a6 6 0 0 0-6-6h-328a6 6 0 0 0-6 6v11.26" stroke="#3a414a" stroke-width="4" fill="none"/><path d="M1572 333.04h-4V331h4z" stroke="#3a414a" stroke-width=".05" fill="#3a414a"/><path d="M1230 326.56l-4.64-14.26h9.28z" stroke="#3a414a" stroke-width="4" fill="#3a414a"/><path d="M1570 331.04V256a6 6 0 0 0-6-6H556a6 6 0 0 0-6 6v54.3" stroke="#3a414a" stroke-width="4" fill="none"/><path d="M1572 333.04h-4V331h4z" stroke="#3a414a" stroke-width=".05" fill="#3a414a"/><path d="M550 326.56l-4.64-14.26h9.28z" stroke="#3a414a" stroke-width="4" fill="#3a414a"/><path d="M1570 331.04V216a6 6 0 0 0-6-6H216a6 6 0 0 0-6 6v79.3" stroke="#3a414a" stroke-width="4" fill="none"/><path d="M1572 333.04h-4V331h4z" stroke="#3a414a" stroke-width=".05" fill="#3a414a"/><path d="M210 311.56l-4.64-14.26h9.28z" stroke="#3a414a" stroke-width="4" fill="#3a414a"/><defs><path fill="#3a414a" d="M30-248c118-7 216 8 213 122C240-48 200 0 122 0H30v-248zM63-27c89 8 146-16 146-99s-60-101-146-95v194" id="C"/><path fill="#3a414a" d="M100-194c63 0 86 42 84 106H49c0 40 14 67 53 68 26 1 43-12 49-29l28 8c-11 28-37 45-77 45C44 4 14-33 15-96c1-61 26-98 85-98zm52 81c6-60-76-77-97-28-3 7-6 17-6 28h103" id="D"/><path fill="#3a414a" d="M108 0H70L1-190h34L89-25l56-165h34" id="E"/><path fill="#3a414a" d="M24 0v-261h32V0H24" id="F"/><path fill="#3a414a" d="M100-194c62-1 85 37 85 99 1 63-27 99-86 99S16-35 15-95c0-66 28-99 85-99zM99-20c44 1 53-31 53-75 0-43-8-75-51-75s-53 32-53 75 10 74 51 75" id="G"/><path fill="#3a414a" d="M115-194c55 1 70 41 70 98S169 2 115 4C84 4 66-9 55-30l1 105H24l-1-265h31l2 30c10-21 28-34 59-34zm-8 174c40 0 45-34 45-75s-6-73-45-74c-42 0-51 32-51 76 0 43 10 73 51 73" id="H"/><g id="a"><use transform="matrix(0.07407407407407407,0,0,0.07407407407407407,0,0)" xlink:href="#C"/><use transform="matrix(0.07407407407407407,0,0,0.07407407407407407,19.185185185185183,0)" xlink:href="#D"/><use transform="matrix(0.07407407407407407,0,0,0.07407407407407407,34,0)" xlink:href="#E"/><use transform="matrix(0.07407407407407407,0,0,0.07407407407407407,47.33333333333333,0)" xlink:href="#D"/><use transform="matrix(0.07407407407407407,0,0,0.07407407407407407,62.14814814814814,0)" xlink:href="#F"/><use transform="matrix(0.07407407407407407,0,0,0.07407407407407407,67.99999999999999,0)" xlink:href="#G"/><use transform="matrix(0.07407407407407407,0,0,0.07407407407407407,82.8148148148148,0)" xlink:href="#H"/></g><path fill="#3a414a" d="M141-36C126-15 110 5 73 4 37 3 15-17 15-53c-1-64 63-63 125-63 3-35-9-54-41-54-24 1-41 7-42 31l-33-3c5-37 33-52 76-52 45 0 72 20 72 64v82c-1 20 7 32 28 27v20c-31 9-61-2-59-35zM48-53c0 20 12 33 32 33 41-3 63-29 60-74-43 2-92-5-92 41" id="I"/><path fill="#3a414a" d="M117-194c89-4 53 116 60 194h-32v-121c0-31-8-49-39-48C34-167 62-67 57 0H25l-1-190h30c1 10-1 24 2 32 11-22 29-35 61-36" id="J"/><path fill="#3a414a" d="M85-194c31 0 48 13 60 33l-1-100h32l1 261h-30c-2-10 0-23-3-31C134-8 116 4 85 4 32 4 16-35 15-94c0-66 23-100 70-100zm9 24c-40 0-46 34-46 75 0 40 6 74 45 74 42 0 51-32 51-76 0-42-9-74-50-73" id="K"/><g id="b"><use transform="matrix(0.07407407407407407,0,0,0.07407407407407407,0,0)" xlink:href="#I"/><use transform="matrix(0.07407407407407407,0,0,0.07407407407407407,14.814814814814813,0)" xlink:href="#J"/><use transform="matrix(0.07407407407407407,0,0,0.07407407407407407,29.629629629629626,0)" xlink:href="#K"/></g><path fill="#3a414a" d="M59-47c-2 24 18 29 38 22v24C64 9 27 4 27-40v-127H5v-23h24l9-43h21v43h35v23H59v120" id="L"/><path fill="#3a414a" d="M135-143c-3-34-86-38-87 0 15 53 115 12 119 90S17 21 10-45l28-5c4 36 97 45 98 0-10-56-113-15-118-90-4-57 82-63 122-42 12 7 21 19 24 35" id="M"/><g id="c"><use transform="matrix(0.07407407407407407,0,0,0.07407407407407407,0,0)" xlink:href="#L"/><use transform="matrix(0.07407407407407407,0,0,0.07407407407407407,7.4074074074074066,0)" xlink:href="#D"/><use transform="matrix(0.07407407407407407,0,0,0.07407407407407407,22.22222222222222,0)" xlink:href="#M"/><use transform="matrix(0.07407407407407407,0,0,0.07407407407407407,35.55555555555556,0)" xlink:href="#L"/></g><path fill="#3a414a" d="M179-190L93 31C79 59 56 82 12 73V49c39 6 53-20 64-50L1-190h34L92-34l54-156h33" id="N"/><g id="d"><use transform="matrix(0.07407407407407407,0,0,0.07407407407407407,0,0)" xlink:href="#C"/><use transform="matrix(0.07407407407407407,0,0,0.07407407407407407,19.185185185185183,0)" xlink:href="#D"/><use transform="matrix(0.07407407407407407,0,0,0.07407407407407407,34,0)" xlink:href="#H"/><use transform="matrix(0.07407407407407407,0,0,0.07407407407407407,48.81481481481481,0)" xlink:href="#F"/><use transform="matrix(0.07407407407407407,0,0,0.07407407407407407,54.66666666666666,0)" xlink:href="#G"/><use transform="matrix(0.07407407407407407,0,0,0.07407407407407407,69.48148148148147,0)" xlink:href="#N"/></g><path fill="#3a414a" d="M24-231v-30h32v30H24zM24 0v-190h32V0H24" id="O"/><path fill="#3a414a" d="M114-163C36-179 61-72 57 0H25l-1-190h30c1 12-1 29 2 39 6-27 23-49 58-41v29" id="P"/><g id="e"><use transform="matrix(0.07407407407407407,0,0,0.07407407407407407,0,0)" xlink:href="#O"/><use transform="matrix(0.07407407407407407,0,0,0.07407407407407407,5.851851851851851,0)" xlink:href="#L"/><use transform="matrix(0.07407407407407407,0,0,0.07407407407407407,13.259259259259258,0)" xlink:href="#D"/><use transform="matrix(0.07407407407407407,0,0,0.07407407407407407,28.07407407407407,0)" xlink:href="#P"/><use transform="matrix(0.07407407407407407,0,0,0.07407407407407407,36.888888888888886,0)" xlink:href="#I"/><use transform="matrix(0.07407407407407407,0,0,0.07407407407407407,51.703703703703695,0)" xlink:href="#L"/><use transform="matrix(0.07407407407407407,0,0,0.07407407407407407,59.1111111111111,0)" xlink:href="#D"/></g><g id="f"><use transform="matrix(0.07407407407407407,0,0,0.07407407407407407,0,0)" xlink:href="#C"/><use transform="matrix(0.07407407407407407,0,0,0.07407407407407407,19.185185185185183,0)" xlink:href="#I"/><use transform="matrix(0.07407407407407407,0,0,0.07407407407407407,34,0)" xlink:href="#L"/><use transform="matrix(0.07407407407407407,0,0,0.07407407407407407,41.407407407407405,0)" xlink:href="#I"/></g><path fill="#3a414a" d="M210-169c-67 3-38 105-44 169h-31v-121c0-29-5-50-35-48C34-165 62-65 56 0H25l-1-190h30c1 10-1 24 2 32 10-44 99-50 107 0 11-21 27-35 58-36 85-2 47 119 55 194h-31v-121c0-29-5-49-35-48" id="Q"/><g id="g"><use transform="matrix(0.07407407407407407,0,0,0.07407407407407407,0,0)" xlink:href="#Q"/><use transform="matrix(0.07407407407407407,0,0,0.07407407407407407,22.148148148148145,0)" xlink:href="#G"/><use transform="matrix(0.07407407407407407,0,0,0.07407407407407407,36.96296296296296,0)" xlink:href="#K"/><use transform="matrix(0.07407407407407407,0,0,0.07407407407407407,51.77777777777777,0)" xlink:href="#D"/><use transform="matrix(0.07407407407407407,0,0,0.07407407407407407,66.59259259259258,0)" xlink:href="#F"/></g><path fill="#3a414a" d="M96-169c-40 0-48 33-48 73s9 75 48 75c24 0 41-14 43-38l32 2c-6 37-31 61-74 61-59 0-76-41-82-99-10-93 101-131 147-64 4 7 5 14 7 22l-32 3c-4-21-16-35-41-35" id="R"/><g id="h"><use transform="matrix(0.07407407407407407,0,0,0.07407407407407407,0,0)" xlink:href="#M"/><use transform="matrix(0.07407407407407407,0,0,0.07407407407407407,13.333333333333332,0)" xlink:href="#D"/><use transform="matrix(0.07407407407407407,0,0,0.07407407407407407,28.148148148148145,0)" xlink:href="#F"/><use transform="matrix(0.07407407407407407,0,0,0.07407407407407407,34,0)" xlink:href="#D"/><use transform="matrix(0.07407407407407407,0,0,0.07407407407407407,48.81481481481481,0)" xlink:href="#R"/><use transform="matrix(0.07407407407407407,0,0,0.07407407407407407,62.14814814814814,0)" xlink:href="#L"/><use transform="matrix(0.07407407407407407,0,0,0.07407407407407407,69.55555555555554,0)" xlink:href="#O"/><use transform="matrix(0.07407407407407407,0,0,0.07407407407407407,75.40740740740739,0)" xlink:href="#G"/><use transform="matrix(0.07407407407407407,0,0,0.07407407407407407,90.2222222222222,0)" xlink:href="#J"/></g><path fill="#3a414a" d="M206 0h-36l-40-164L89 0H53L-1-190h32L70-26l43-164h34l41 164 42-164h31" id="S"/><g id="i"><use transform="matrix(0.07407407407407407,0,0,0.07407407407407407,0,0)" xlink:href="#J"/><use transform="matrix(0.07407407407407407,0,0,0.07407407407407407,14.814814814814813,0)" xlink:href="#D"/><use transform="matrix(0.07407407407407407,0,0,0.07407407407407407,29.629629629629626,0)" xlink:href="#S"/></g><path fill="#3a414a" d="M0 4l72-265h28L28 4H0" id="T"/><use transform="matrix(0.07407407407407407,0,0,0.07407407407407407,0,0)" xlink:href="#T" id="j"/><path fill="#3a414a" d="M84 4C-5 8 30-112 23-190h32v120c0 31 7 50 39 49 72-2 45-101 50-169h31l1 190h-30c-1-10 1-25-2-33-11 22-28 36-60 37" id="U"/><g id="k"><use transform="matrix(0.07407407407407407,0,0,0.07407407407407407,0,0)" xlink:href="#U"/><use transform="matrix(0.07407407407407407,0,0,0.07407407407407407,14.814814814814813,0)" xlink:href="#M"/><use transform="matrix(0.07407407407407407,0,0,0.07407407407407407,28.148148148148145,0)" xlink:href="#D"/></g><path fill="#3a414a" d="M141 0L90-78 38 0H4l68-98-65-92h35l48 74 47-74h35l-64 92 68 98h-35" id="V"/><path fill="#3a414a" d="M177-190C167-65 218 103 67 71c-23-6-38-20-44-43l32-5c15 47 100 32 89-28v-30C133-14 115 1 83 1 29 1 15-40 15-95c0-56 16-97 71-98 29-1 48 16 59 35 1-10 0-23 2-32h30zM94-22c36 0 50-32 50-73 0-42-14-75-50-75-39 0-46 34-46 75s6 73 46 73" id="W"/><g id="l"><use transform="matrix(0.07407407407407407,0,0,0.07407407407407407,0,0)" xlink:href="#D"/><use transform="matrix(0.07407407407407407,0,0,0.07407407407407407,14.814814814814813,0)" xlink:href="#V"/><use transform="matrix(0.07407407407407407,0,0,0.07407407407407407,28.148148148148145,0)" xlink:href="#O"/><use transform="matrix(0.07407407407407407,0,0,0.07407407407407407,34,0)" xlink:href="#M"/><use transform="matrix(0.07407407407407407,0,0,0.07407407407407407,47.33333333333333,0)" xlink:href="#L"/><use transform="matrix(0.07407407407407407,0,0,0.07407407407407407,54.740740740740726,0)" xlink:href="#O"/><use transform="matrix(0.07407407407407407,0,0,0.07407407407407407,60.59259259259258,0)" xlink:href="#J"/><use transform="matrix(0.07407407407407407,0,0,0.07407407407407407,75.40740740740739,0)" xlink:href="#W"/></g><g id="m"><use transform="matrix(0.07407407407407407,0,0,0.07407407407407407,0,0)" xlink:href="#R"/><use transform="matrix(0.07407407407407407,0,0,0.07407407407407407,13.333333333333332,0)" xlink:href="#G"/><use transform="matrix(0.07407407407407407,0,0,0.07407407407407407,28.148148148148145,0)" xlink:href="#K"/><use transform="matrix(0.07407407407407407,0,0,0.07407407407407407,42.96296296296296,0)" xlink:href="#D"/></g><path fill="#3a414a" d="M118-107v75H92v-75H18v-26h74v-75h26v75h74v26h-74" id="X"/><use transform="matrix(0.07407407407407407,0,0,0.07407407407407407,0,0)" xlink:href="#X" id="n"/><g id="o"><use transform="matrix(0.07407407407407407,0,0,0.07407407407407407,0,0)" xlink:href="#Q"/><use transform="matrix(0.07407407407407407,0,0,0.07407407407407407,22.148148148148145,0)" xlink:href="#G"/><use transform="matrix(0.07407407407407407,0,0,0.07407407407407407,36.96296296296296,0)" xlink:href="#K"/><use transform="matrix(0.07407407407407407,0,0,0.07407407407407407,51.77777777777777,0)" xlink:href="#D"/><use transform="matrix(0.07407407407407407,0,0,0.07407407407407407,66.59259259259258,0)" xlink:href="#F"/></g><path fill="#3a414a" d="M33 0v-248h34V0H33" id="Y"/><g id="p"><use transform="matrix(0.07407407407407407,0,0,0.07407407407407407,0,0)" xlink:href="#Y"/><use transform="matrix(0.07407407407407407,0,0,0.07407407407407407,7.4074074074074066,0)" xlink:href="#J"/><use transform="matrix(0.07407407407407407,0,0,0.07407407407407407,22.22222222222222,0)" xlink:href="#M"/><use transform="matrix(0.07407407407407407,0,0,0.07407407407407407,35.55555555555556,0)" xlink:href="#L"/><use transform="matrix(0.07407407407407407,0,0,0.07407407407407407,42.96296296296296,0)" xlink:href="#P"/><use transform="matrix(0.07407407407407407,0,0,0.07407407407407407,51.77777777777777,0)" xlink:href="#U"/><use transform="matrix(0.07407407407407407,0,0,0.07407407407407407,66.5925925925926,0)" xlink:href="#Q"/><use transform="matrix(0.07407407407407407,0,0,0.07407407407407407,88.74074074074073,0)" xlink:href="#D"/><use transform="matrix(0.07407407407407407,0,0,0.07407407407407407,103.55555555555554,0)" xlink:href="#J"/><use transform="matrix(0.07407407407407407,0,0,0.07407407407407407,118.37037037037035,0)" xlink:href="#L"/></g><path fill="#3a414a" d="M106-169C34-169 62-67 57 0H25v-261h32l-1 103c12-21 28-36 61-36 89 0 53 116 60 194h-32v-121c2-32-8-49-39-48" id="Z"/><g id="q"><use transform="matrix(0.07407407407407407,0,0,0.07407407407407407,0,0)" xlink:href="#S"/><use transform="matrix(0.07407407407407407,0,0,0.07407407407407407,19.185185185185183,0)" xlink:href="#O"/><use transform="matrix(0.07407407407407407,0,0,0.07407407407407407,25.037037037037035,0)" xlink:href="#L"/><use transform="matrix(0.07407407407407407,0,0,0.07407407407407407,32.44444444444444,0)" xlink:href="#Z"/></g><g id="r"><use transform="matrix(0.07407407407407407,0,0,0.07407407407407407,0,0)" xlink:href="#H"/><use transform="matrix(0.07407407407407407,0,0,0.07407407407407407,14.814814814814813,0)" xlink:href="#N"/><use transform="matrix(0.07407407407407407,0,0,0.07407407407407407,28.148148148148145,0)" xlink:href="#S"/><use transform="matrix(0.07407407407407407,0,0,0.07407407407407407,47.33333333333333,0)" xlink:href="#I"/><use transform="matrix(0.07407407407407407,0,0,0.07407407407407407,62.14814814814814,0)" xlink:href="#W"/><use transform="matrix(0.07407407407407407,0,0,0.07407407407407407,76.96296296296295,0)" xlink:href="#W"/><use transform="matrix(0.07407407407407407,0,0,0.07407407407407407,91.77777777777776,0)" xlink:href="#F"/><use transform="matrix(0.07407407407407407,0,0,0.07407407407407407,97.6296296296296,0)" xlink:href="#D"/></g><path fill="#3a414a" d="M160-131c35 5 61 23 61 61C221 17 115-2 30 0v-248c76 3 177-17 177 60 0 33-19 50-47 57zm-97-11c50-1 110 9 110-42 0-47-63-36-110-37v79zm0 115c55-2 124 14 124-45 0-56-70-42-124-44v89" id="aa"/><g id="s"><use transform="matrix(0.07407407407407407,0,0,0.07407407407407407,0,0)" xlink:href="#aa"/><use transform="matrix(0.07407407407407407,0,0,0.07407407407407407,17.77777777777778,0)" xlink:href="#U"/><use transform="matrix(0.07407407407407407,0,0,0.07407407407407407,32.592592592592595,0)" xlink:href="#O"/><use transform="matrix(0.07407407407407407,0,0,0.07407407407407407,38.44444444444444,0)" xlink:href="#F"/><use transform="matrix(0.07407407407407407,0,0,0.07407407407407407,44.29629629629629,0)" xlink:href="#K"/></g><g id="t"><use transform="matrix(0.07407407407407407,0,0,0.07407407407407407,0,0)" xlink:href="#O"/><use transform="matrix(0.07407407407407407,0,0,0.07407407407407407,5.851851851851851,0)" xlink:href="#J"/></g><path fill="#3a414a" d="M30 0v-248h187v28H63v79h144v27H63v87h162V0H30" id="ab"/><path fill="#3a414a" d="M212-179c-10-28-35-45-73-45-59 0-87 40-87 99 0 60 29 101 89 101 43 0 62-24 78-52l27 14C228-24 195 4 139 4 59 4 22-46 18-125c-6-104 99-153 187-111 19 9 31 26 39 46" id="ac"/><path fill="#3a414a" d="M233-177c-1 41-23 64-60 70L243 0h-38l-65-103H63V0H30v-248c88 3 205-21 203 71zM63-129c60-2 137 13 137-47 0-61-80-42-137-45v92" id="ad"/><g id="u"><use transform="matrix(0.07407407407407407,0,0,0.07407407407407407,0,0)" xlink:href="#ab"/><use transform="matrix(0.07407407407407407,0,0,0.07407407407407407,17.77777777777778,0)" xlink:href="#ac"/><use transform="matrix(0.07407407407407407,0,0,0.07407407407407407,36.96296296296296,0)" xlink:href="#ad"/></g><path fill="#3a414a" d="M127-220V0H93v-220H8v-28h204v28h-85" id="ae"/><g id="v"><use transform="matrix(0.07407407407407407,0,0,0.07407407407407407,0,0)" xlink:href="#ae"/><use transform="matrix(0.07407407407407407,0,0,0.07407407407407407,13.259259259259258,0)" xlink:href="#D"/><use transform="matrix(0.07407407407407407,0,0,0.07407407407407407,28.074074074074073,0)" xlink:href="#M"/><use transform="matrix(0.07407407407407407,0,0,0.07407407407407407,41.407407407407405,0)" xlink:href="#L"/></g><g id="w"><use transform="matrix(0.07407407407407407,0,0,0.07407407407407407,0,0)" xlink:href="#K"/><use transform="matrix(0.07407407407407407,0,0,0.07407407407407407,14.814814814814813,0)" xlink:href="#D"/><use transform="matrix(0.07407407407407407,0,0,0.07407407407407407,29.629629629629626,0)" xlink:href="#E"/></g><g id="x"><use transform="matrix(0.07407407407407407,0,0,0.07407407407407407,0,0)" xlink:href="#D"/><use transform="matrix(0.07407407407407407,0,0,0.07407407407407407,14.814814814814813,0)" xlink:href="#J"/><use transform="matrix(0.07407407407407407,0,0,0.07407407407407407,29.629629629629626,0)" xlink:href="#E"/><use transform="matrix(0.07407407407407407,0,0,0.07407407407407407,42.96296296296296,0)" xlink:href="#O"/><use transform="matrix(0.07407407407407407,0,0,0.07407407407407407,48.81481481481481,0)" xlink:href="#P"/><use transform="matrix(0.07407407407407407,0,0,0.07407407407407407,57.629629629629626,0)" xlink:href="#G"/><use transform="matrix(0.07407407407407407,0,0,0.07407407407407407,72.44444444444444,0)" xlink:href="#J"/><use transform="matrix(0.07407407407407407,0,0,0.07407407407407407,87.25925925925925,0)" xlink:href="#Q"/><use transform="matrix(0.07407407407407407,0,0,0.07407407407407407,109.40740740740739,0)" xlink:href="#D"/><use transform="matrix(0.07407407407407407,0,0,0.07407407407407407,124.2222222222222,0)" xlink:href="#J"/><use transform="matrix(0.07407407407407407,0,0,0.07407407407407407,139.037037037037,0)" xlink:href="#L"/></g><g id="y"><use transform="matrix(0.07407407407407407,0,0,0.07407407407407407,0,0)" xlink:href="#L"/><use transform="matrix(0.07407407407407407,0,0,0.07407407407407407,7.4074074074074066,0)" xlink:href="#G"/></g><g id="z"><use transform="matrix(0.07407407407407407,0,0,0.07407407407407407,0,0)" xlink:href="#J"/><use transform="matrix(0.07407407407407407,0,0,0.07407407407407407,14.814814814814813,0)" xlink:href="#G"/><use transform="matrix(0.07407407407407407,0,0,0.07407407407407407,29.629629629629626,0)" xlink:href="#K"/><use transform="matrix(0.07407407407407407,0,0,0.07407407407407407,44.44444444444444,0)" xlink:href="#D"/><use transform="matrix(0.07407407407407407,0,0,0.07407407407407407,59.25925925925925,0)" xlink:href="#M"/></g><path fill="#3a414a" d="M205 0l-28-72H64L36 0H1l101-248h38L239 0h-34zm-38-99l-47-123c-12 45-31 82-46 123h93" id="af"/><path fill="#3a414a" d="M9 0v-24l116-142H16v-24h144v24L44-24h123V0H9" id="ag"/><g id="A"><use transform="matrix(0.07407407407407407,0,0,0.07407407407407407,0,0)" xlink:href="#af"/><use transform="matrix(0.07407407407407407,0,0,0.07407407407407407,17.77777777777778,0)" xlink:href="#J"/><use transform="matrix(0.07407407407407407,0,0,0.07407407407407407,32.592592592592595,0)" xlink:href="#I"/><use transform="matrix(0.07407407407407407,0,0,0.07407407407407407,47.407407407407405,0)" xlink:href="#F"/><use transform="matrix(0.07407407407407407,0,0,0.07407407407407407,53.25925925925926,0)" xlink:href="#N"/><use transform="matrix(0.07407407407407407,0,0,0.07407407407407407,66.59259259259258,0)" xlink:href="#ag"/><use transform="matrix(0.07407407407407407,0,0,0.07407407407407407,79.92592592592591,0)" xlink:href="#D"/></g><g id="B"><use transform="matrix(0.07407407407407407,0,0,0.07407407407407407,0,0)" xlink:href="#P"/><use transform="matrix(0.07407407407407407,0,0,0.07407407407407407,8.814814814814815,0)" xlink:href="#D"/><use transform="matrix(0.07407407407407407,0,0,0.07407407407407407,23.629629629629623,0)" xlink:href="#M"/><use transform="matrix(0.07407407407407407,0,0,0.07407407407407407,36.96296296296296,0)" xlink:href="#U"/><use transform="matrix(0.07407407407407407,0,0,0.07407407407407407,51.77777777777777,0)" xlink:href="#F"/><use transform="matrix(0.07407407407407407,0,0,0.07407407407407407,57.62962962962962,0)" xlink:href="#L"/><use transform="matrix(0.07407407407407407,0,0,0.07407407407407407,65.03703703703702,0)" xlink:href="#M"/></g></defs></g></svg>